SplineFontDB: 3.2
FontName: Jibberish
FullName: Jibberish
FamilyName: Jibberish
Weight: Book
Copyright: Copyright (c) 2025, user
Version: 001.000
ItalicAngle: 0
UnderlinePosition: -60
UnderlineWidth: 29
Ascent: 850
Descent: 150
InvalidEm: 0
sfntRevision: 0x00010000
LayerCount: 2
Layer: 0 1 "Back" 1
Layer: 1 1 "Fore" 0
HasVMetrics: 1
XUID: [1021 108 -1202558091 18804]
StyleMap: 0x0000
FSType: 0
OS2Version: 4
OS2_WeightWidthSlopeOnly: 0
OS2_UseTypoMetrics: 1
CreationTime: 1763840878
ModificationTime: 1771161337
PfmFamily: 17
TTFWeight: 400
TTFWidth: 5
LineGap: 95
VLineGap: 95
Panose: 2 0 5 3 0 0 0 0 0 0
OS2TypoAscent: 842
OS2TypoAOffset: 0
OS2TypoDescent: -211
OS2TypoDOffset: 0
OS2TypoLinegap: 0
OS2WinAscent: 850
OS2WinAOffset: 0
OS2WinDescent: 150
OS2WinDOffset: 0
HheadAscent: 700
HheadAOffset: 0
HheadDescent: -66
HheadDOffset: 0
OS2SubXSize: 685
OS2SubYSize: 737
OS2SubXOff: 0
OS2SubYOff: 147
OS2SupXSize: 685
OS2SupYSize: 737
OS2SupXOff: 0
OS2SupYOff: 505
OS2StrikeYSize: 51
OS2StrikeYPos: 270
OS2CapHeight: 575
OS2XHeight: 517
OS2Vendor: 'PfEd'
OS2CodePages: 00000001.00000000
OS2UnicodeRanges: 00000003.00000000.00000000.00000000
Lookup: 4 0 1 "'liga' Standard Ligatures in Latin lookup 0" { "'liga' Standard Ligatures in Latin lookup 0 subtable"  } ['liga' ('DFLT' <'dflt' > 'latn' <'dflt' > ) ]
Lookup: 258 0 0 "'kern' Horizontal Kerning in Latin lookup 0" { "'kern' Horizontal Kerning in Latin lookup 0 subtable"  } ['kern' ('latn' <'dflt' > ) ]
Lookup: 258 0 0 "'vkrn' Vertical Kerning in Latin lookup 1" { "'vkrn' Vertical Kerning in Latin lookup 1 subtable"  } ['vkrn' ('DFLT' <'dflt' > 'latn' <'dflt' > ) ]
MarkAttachClasses: 1
DEI: 91125
MacFeat: 0 0 0
MacName: 0 0 24 "All Typographic Features"
MacName: 0 1 24 "Fonctions typographiques"
MacName: 0 2 33 "Alle typografischen M\232glichkeiten"
MacName: 0 3 21 "Funzioni Tipografiche"
MacName: 0 4 28 "Alle typografische kenmerken"
MacSetting: 0
MacName: 0 0 17 "All Type Features"

StartChar: ampersand
Encoding: 38 38 3
Width: 480
VWidth: 1150
GlyphClass: 1
Flags: W
LayerCount: 2
Fore
SplineSet
160 406 m 0,0,1
 168 404 168 404 172 405 c 2,2,3
 172 405 172 405 173 405 c 128,-1,4
 174 405 174 405 174 405 c 2,5,6
 203 405 203 405 215 403 c 2,7,-1
 244 397 l 1,8,-1
 277 394 l 2,9,10
 281 394 281 394 304 385 c 2,11,-1
 328 372 l 1,12,-1
 355 360 l 1,13,-1
 368 350 l 2,14,15
 405 324 405 324 420 303 c 0,16,17
 424 298 424 298 430 292 c 2,18,19
 430 292 430 292 431 291 c 0,20,21
 437 284 437 284 467 235 c 1,22,23
 477 210 477 210 476 202 c 0,24,25
 476 198 476 198 478 190 c 0,26,27
 483 171 483 171 487 138 c 0,28,29
 489 122 489 122 489 112 c 2,30,31
 489 112 489 112 489 109.5 c 128,-1,32
 489 107 489 107 489 107 c 2,33,34
 489 89 489 89 479 60 c 0,35,36
 475 48 475 48 467 25 c 1,37,-1
 453 1 l 1,38,-1
 439 -24 l 1,39,-1
 420 -45 l 2,40,41
 418 -47 418 -47 416 -49 c 0,42,43
 409 -62 409 -62 378 -84 c 2,44,-1
 355 -99 l 1,45,-1
 328 -112 l 1,46,-1
 300 -125 l 1,47,-1
 274 -133 l 2,48,49
 248 -140 248 -140 215 -142 c 0,50,51
 205 -143 205 -143 202 -144 c 2,52,-1
 186 -147 l 1,53,-1
 168 -144 l 2,54,55
 168 -143 168 -143 161 -143 c 0,56,57
 147 -142 147 -142 130 -139 c 0,58,59
 87 -124 87 -124 61 -104 c 128,-1,60
 35 -84 35 -84 13 -49 c 1,61,-1
 12 -49 l 1,62,63
 7 -42 7 -42 5 -38 c 0,64,65
 2 -33 2 -33 0 -25 c 0,66,67
 -3 -15 -3 -15 -8 1 c 1,68,-1
 -8 16 l 1,69,-1
 -8 20 l 2,70,71
 -8 24 -8 24 -11 34 c 1,72,-1
 -8 50 l 1,73,-1
 -8 69 l 1,74,-1
 -2 86 l 2,75,76
 0 86 0 86 1 93 c 0,77,78
 2 108 2 108 13 119 c 0,79,80
 30 147 30 147 64 174 c 0,81,82
 81 188 81 188 94 194 c 2,83,-1
 110 201 l 2,84,85
 113 201 113 201 130 205 c 2,86,-1
 147 213 l 2,87,88
 148 213 148 213 168 215 c 1,89,90
 168 214 168 214 172.5 214 c 128,-1,91
 177 214 177 214 186 215 c 2,92,-1
 200 215 l 1,93,94
 239 211 239 211 274 185 c 0,95,96
 312 159 312 159 320 104 c 1,97,-1
 320 92 l 1,98,99
 315 59 315 59 314 51 c 0,100,101
 310 35 310 35 288 14 c 0,102,103
 247 -27 247 -27 202 -28 c 2,104,-1
 188 -28 l 1,105,-1
 188 26 l 1,106,-1
 193 26 l 2,107,108
 235 29 235 29 253 60 c 0,109,110
 263 76 263 76 262 97 c 0,111,112
 262 153 262 153 194 160 c 1,113,114
 120 160 120 160 83 115 c 0,115,116
 52 80 52 80 52 40 c 2,117,-1
 52 32 l 1,118,119
 57 -15 57 -15 83 -45 c 0,120,121
 111 -82 111 -82 172 -87 c 1,122,-1
 189 -87 l 1,123,-1
 211 -87 l 2,124,125
 212 -87 212 -87 216 -86 c 0,126,127
 232 -83 232 -83 256 -78 c 2,128,-1
 277 -71 l 1,129,-1
 298 -63 l 1,130,131
 333 -42 333 -42 346 -33 c 2,132,-1
 354 -26 l 2,133,134
 356 -24 356 -24 370 -8 c 2,135,-1
 383 5 l 1,136,-1
 395 26 l 1,137,-1
 409 46 l 1,138,-1
 415 67 l 1,139,-1
 421 85 l 2,140,141
 426 100 426 100 425 106 c 1,142,143
 425 106 425 106 425 106 c 1,144,145
 425 109 425 109 424.5 110.5 c 128,-1,146
 424 112 424 112 424 115 c 1,147,-1
 424 115 l 1,148,149
 424 116 424 116 424 117 c 128,-1,150
 424 118 424 118 424 120 c 128,-1,151
 424 122 424 122 424 123.5 c 128,-1,152
 424 125 424 125 425 130 c 0,153,154
 425 133 425 133 425 135 c 0,155,156
 425 144 425 144 423 151 c 2,157,-1
 421 172 l 1,158,-1
 415 192 l 1,159,-1
 409 213 l 1,160,-1
 396 230 l 2,161,162
 362 276 362 276 341 294 c 0,163,164
 338 296 338 296 320 309 c 1,165,-1
 298 320 l 1,166,-1
 277 330 l 1,167,-1
 257 334 l 2,168,169
 245 338 245 338 234 340 c 2,170,-1
 213 343 l 2,171,172
 194 346 194 346 186 345 c 0,173,174
 183 345 183 345 180.5 344.5 c 128,-1,175
 178 344 178 344 175 344 c 0,176,177
 170 344 170 344 163 346 c 2,178,-1
 147 350 l 1,179,-1
 126 353 l 1,180,-1
 105 360 l 1,181,-1
 105 361 l 1,182,-1
 86 367 l 1,183,-1
 67 379 l 1,184,-1
 66 379 l 1,185,186
 66 381 66 381 34 404 c 1,187,-1
 21 418 l 2,188,189
 17 422 17 422 5 435 c 1,190,-1
 -5 452 l 2,191,192
 -15 469 -15 469 -14 471 c 0,193,194
 -14 474 -14 474 -28 503 c 1,195,-1
 -30 523 l 2,196,197
 -30 542 -30 542 -25 581 c 1,198,-1
 -19 598 l 1,199,-1
 -11 616 l 1,200,-1
 -2 635 l 2,201,202
 14 669 14 669 55 697 c 2,203,-1
 67 705 l 2,204,205
 72 705 72 705 105 724 c 1,206,-1
 126 732 l 1,207,-1
 147 734 l 1,208,-1
 165 739 l 1,209,-1
 177 741 l 1,210,-1
 217 741 l 1,211,-1
 217 729 l 2,212,213
 215 724 215 724 215 679 c 1,214,-1
 204 679 l 2,215,216
 119 679 119 679 75 629 c 1,217,218
 45 586 45 586 41 555 c 2,219,-1
 39 543 l 1,220,221
 49 484 49 484 70 454 c 0,222,223
 97 418 97 418 160 406 c 0,0,1
EndSplineSet
EndChar

StartChar: at
Encoding: 64 64 4
Width: 968
VWidth: 1148
GlyphClass: 1
Flags: W
LayerCount: 2
Fore
SplineSet
481 740 m 2,0,1
 492 740 492 740 506 738 c 0,2,3
 531 734 531 734 577 732 c 1,4,-1
 625 719 l 1,5,6
 622 719 622 719 634 715 c 0,7,8
 669 705 669 705 711 686 c 2,9,-1
 755 666 l 1,10,11
 754 666 754 666 784 642 c 0,12,13
 835 601 835 601 845 595 c 0,14,15
 859 581 859 581 866 571 c 0,16,17
 874 560 874 560 889 542 c 0,18,19
 892 542 892 542 911 507 c 2,20,-1
 932 466 l 1,21,-1
 937 451 l 2,22,23
 937 449 937 449 945 435 c 0,24,25
 962 391 962 391 962 377 c 2,26,-1
 962 374 l 2,27,28
 962 361 962 361 965 337 c 2,29,-1
 972 298 l 1,30,-1
 968 285 l 2,31,32
 963 277 963 277 963 240 c 2,33,-1
 961 213 l 1,34,-1
 947 172 l 1,35,-1
 932 129 l 1,36,-1
 911 89 l 1,37,38
 911 90 911 90 889 53 c 1,39,-1
 858 17 l 1,40,41
 858 18 858 18 826 -15 c 1,42,-1
 792 -44 l 1,43,44
 794 -44 794 -44 755 -71 c 1,45,-1
 754 -71 l 2,46,47
 750 -71 750 -71 704 -95 c 0,48,49
 679 -108 679 -108 675 -109 c 0,50,51
 668 -113 668 -113 621 -123 c 0,52,53
 574 -137 574 -137 541 -141 c 0,54,55
 520 -144 520 -144 500 -144 c 2,56,-1
 498 -144 l 1,57,-1
 485 -144 l 1,58,59
 485 -143 485 -143 437 -142 c 2,60,-1
 387 -137 l 1,61,62
 387 -138 387 -138 363 -132 c 0,63,64
 328 -119 328 -119 324 -119 c 2,65,-1
 319 -119 l 1,66,-1
 298 -113 l 1,67,-1
 255 -92 l 2,68,69
 208 -68 208 -68 205 -65 c 0,70,71
 204 -64 204 -64 199 -61 c 0,72,73
 193 -56 193 -56 190 -54 c 0,74,75
 174 -42 174 -42 168 -37 c 2,76,-1
 140 -15 l 1,77,-1
 111 17 l 2,78,79
 83 47 83 47 63 79 c 0,80,81
 56 92 56 92 54 94 c 0,82,83
 49 100 49 100 35 129 c 1,84,-1
 19 172 l 1,85,86
 20 172 20 172 5 213 c 1,87,-1
 0 255 l 2,88,89
 -5 285 -5 285 -5 298 c 128,-1,90
 -5 311 -5 311 0 342 c 2,91,-1
 5 385 l 1,92,-1
 19 426 l 1,93,-1
 35 466 l 2,94,95
 36 466 36 466 39 475 c 0,96,97
 54 507 54 507 79 542 c 1,98,-1
 111 575 l 1,99,-1
 140 611 l 1,100,-1
 175 637 l 2,101,102
 175 638 175 638 185 644 c 0,103,104
 215 667 215 667 255 686 c 2,105,-1
 298 707 l 2,106,107
 299 707 299 707 342 719 c 1,108,-1
 343 719 l 2,109,110
 347 719 347 719 389 732 c 1,111,-1
 435 735 l 1,112,-1
 481 740 l 2,0,1
415 575 m 0,113,114
 443 598 443 598 480 598 c 2,115,-1
 491 598 l 2,116,117
 502 598 502 598 513 595 c 0,118,119
 548 587 548 587 568 563 c 0,120,121
 593 538 593 538 594 504 c 2,122,-1
 594 501 l 2,123,124
 593 466 593 466 567 437 c 0,125,126
 536 403 536 403 489 404 c 2,127,-1
 485 404 l 2,128,129
 438 405 438 405 405 435 c 0,130,131
 375 464 375 464 375 505 c 2,132,-1
 375 507 l 2,133,134
 375 549 375 549 415 575 c 0,113,114
413 323 m 1,135,136
 413 326 413 326 431 323 c 0,137,138
 445 320 445 320 455 320 c 0,139,140
 460 320 460 320 470 320 c 0,141,142
 495 321 495 321 504 320 c 0,143,144
 519 320 519 320 530 319 c 2,145,-1
 551 315 l 1,146,-1
 575 311 l 1,147,-1
 598 302 l 2,148,149
 598 301 598 301 621 292 c 2,150,-1
 645 281 l 2,151,152
 646 280 646 280 654 275 c 0,153,154
 682 260 682 260 695 242 c 0,155,156
 700 235 700 235 702 228 c 1,157,158
 702 229 702 229 714 215 c 2,159,-1
 728 196 l 1,160,-1
 737 177 l 1,161,-1
 744 156 l 1,162,-1
 753 135 l 2,163,164
 753 133 753 133 754 120 c 0,165,166
 756 101 756 101 756 93 c 0,167,168
 756 90 756 90 755 85 c 0,169,170
 753 66 753 66 753 45 c 1,171,-1
 744 24 l 2,172,173
 737 3 737 3 732 -11 c 1,174,175
 747 -4 747 -4 758 5 c 2,176,-1
 782 26 l 1,177,-1
 807 56 l 1,178,-1
 835 85 l 1,179,-1
 855 119 l 1,180,-1
 874 151 l 1,181,-1
 887 186 l 1,182,-1
 900 224 l 2,183,184
 900 225 900 225 902 258 c 2,185,-1
 905 298 l 1,186,-1
 900 337 l 1,187,188
 901 337 901 337 897 374 c 1,189,-1
 892 393 l 2,190,191
 890 397 890 397 886 405 c 0,192,193
 880 421 880 421 879 425 c 0,194,195
 878 428 878 428 874 445 c 1,196,-1
 856 477 l 2,197,198
 835 514 835 514 825 521 c 0,199,200
 819 526 819 526 802 550 c 1,201,-1
 782 568 l 1,202,-1
 753 595 l 2,203,204
 753 598 753 598 721 615 c 2,205,-1
 681 635 l 1,206,-1
 647 651 l 1,207,-1
 605 663 l 1,208,-1
 566 674 l 1,209,-1
 528 677 l 2,210,211
 507 681 507 681 498 681 c 0,212,213
 492 681 492 681 489 679 c 2,214,-1
 465 679 l 2,215,216
 440 679 440 679 439 677 c 1,217,218
 437 677 437 677 398 674 c 1,219,-1
 366 666 l 2,220,221
 340 660 340 660 332 655 c 0,222,223
 319 649 319 649 308 633 c 0,224,225
 297 618 297 618 285 607 c 1,226,-1
 274 592 l 1,227,228
 274 593 274 593 266 574 c 1,229,230
 268 574 268 574 258 560 c 1,231,-1
 249 526 l 2,232,233
 248 526 248 526 247 492 c 1,234,-1
 253 463 l 1,235,-1
 266 435 l 1,236,-1
 274 415 l 1,237,238
 273 415 273 415 280 407 c 0,239,240
 285 402 285 402 287 400 c 0,241,242
 324 358 324 358 363 341 c 0,243,244
 371 337 371 337 372 335 c 0,245,246
 374 332 374 332 395 330 c 1,247,248
 393 329 393 329 413 323 c 1,135,136
495 193 m 1,249,250
 563 187 563 187 586 121 c 0,251,252
 592 104 592 104 593 94 c 0,253,254
 593 82 593 82 587 66 c 0,255,256
 575 33 575 33 547 14 c 0,257,258
 522 -5 522 -5 481 -5 c 0,259,260
 403 -5 403 -5 380 71 c 0,261,262
 375 91 375 91 375 101 c 0,263,264
 375 116 375 116 385 135 c 0,265,266
 413 186 413 186 472 193 c 1,267,-1
 481 193 l 1,268,-1
 495 193 l 1,249,250
202 581 m 1,269,270
 202 583 202 583 186 568 c 1,271,272
 187 568 187 568 161 540 c 1,273,274
 161 543 161 543 134 511 c 1,275,-1
 113 477 l 1,276,277
 113 478 113 478 93 445 c 1,278,-1
 83 407 l 2,279,280
 85 406 85 406 70 374 c 1,281,-1
 68 337 l 1,282,-1
 61 298 l 1,283,284
 62 298 62 298 68 260 c 1,285,-1
 70 225 l 2,286,287
 70 224 70 224 83 186 c 2,288,-1
 93 151 l 1,289,-1
 113 119 l 1,290,-1
 134 85 l 2,291,292
 135 85 135 85 161 56 c 1,293,294
 161 59 161 59 186 26 c 1,295,-1
 217 2 l 1,296,-1
 249 -21 l 1,297,-1
 287 -39 l 1,298,299
 287 -38 287 -38 323 -58 c 1,300,-1
 363 -68 l 1,301,-1
 404 -79 l 1,302,-1
 405 -79 l 2,303,304
 410 -79 410 -79 445 -81 c 1,305,-1
 486 -87 l 1,306,307
 486 -86 486 -86 526 -81 c 2,308,-1
 565 -79 l 2,309,310
 565 -78 565 -78 589 -72 c 0,311,312
 614 -66 614 -66 614.5 -66 c 128,-1,313
 615 -66 615 -66 622 -63 c 0,314,315
 646 -47 646 -47 660 -26 c 2,316,-1
 672 -14 l 1,317,318
 672 -16 672 -16 681 4 c 2,319,-1
 692 19 l 1,320,321
 692 18 692 18 695 28 c 0,322,323
 704 57 704 57 704 71 c 0,324,325
 704 74 704 74 704 77 c 2,326,-1
 708 89 l 1,327,-1
 704 107 l 1,328,-1
 702 125 l 1,329,-1
 698 142 l 1,330,-1
 692 161 l 1,331,332
 692 160 692 160 685 173 c 0,333,334
 666 205 666 205 634 235 c 1,335,-1
 618 242 l 1,336,337
 618 240 618 240 606 246 c 0,338,339
 598 251 598 251 585 258 c 2,340,-1
 563 265 l 1,341,-1
 542 270 l 1,342,-1
 524 270 l 1,343,344
 475 275 475 275 449 275 c 0,345,346
 435 275 435 275 431 276 c 0,347,348
 426 278 426 278 404 279 c 1,349,-1
 381 286 l 1,350,-1
 355 292 l 1,351,-1
 334 302 l 2,352,353
 333 302 333 302 325 305 c 0,354,355
 310 312 310 312 301 321 c 128,-1,356
 292 330 292 330 272 342 c 1,357,358
 274 342 274 342 258 360 c 2,359,-1
 242 375 l 1,360,361
 242 374 242 374 228 395 c 0,362,363
 214 420 214 420 207 445 c 1,364,-1
 205 460 l 2,365,366
 203 460 203 460 202 483 c 2,367,-1
 197 503 l 1,368,-1
 202 526 l 1,369,-1
 205 550 l 1,370,-1
 211 570 l 2,371,372
 216 589 216 589 217 592 c 1,373,374
 207 586 207 586 202 581 c 1,269,270
485 542 m 1,375,376
 440 537 440 537 439 502 c 0,377,378
 439 472 439 472 463 463 c 0,379,380
 472 459 472 459 482 460 c 0,381,382
 488 460 488 460 495 461 c 0,383,384
 529 467 529 467 529 497 c 0,385,386
 530 504 530 504 527 514 c 0,387,388
 520 542 520 542 485 542 c 1,375,376
485 53 m 0,389,390
 520 53 520 53 528 81 c 1,391,-1
 528 92 l 2,392,393
 528 116 528 116 499 129 c 0,394,395
 493 132 493 132 490 132 c 2,396,-1
 479 132 l 1,397,398
 445 128 445 128 439 104 c 0,399,400
 437 97 437 97 439 92 c 0,401,402
 439 62 439 62 468 55 c 0,403,404
 477 53 477 53 485 53 c 0,389,390
EndSplineSet
EndChar

StartChar: A
Encoding: 65 65 5
Width: 177
VWidth: 1114
GlyphClass: 1
Flags: W
LayerCount: 2
Fore
SplineSet
80 617 m 128,-1,1
 85 617 85 617 90 616 c 0,2,3
 106 614 106 614 119 607 c 0,4,5
 131 602 131 602 133 604 c 2,6,-1
 134 604 l 1,7,8
 141 600 141 600 150 594 c 0,9,10
 185 568 185 568 191 521 c 0,11,12
 192 518 192 518 192 514 c 0,13,14
 192 481 192 481 172 458 c 0,15,16
 145 432 145 432 110 421 c 0,17,18
 94 416 94 416 79 415 c 2,19,-1
 71 415 l 1,20,21
 32 419 32 419 5 445 c 0,22,23
 -20 466 -20 466 -25 492 c 0,24,25
 -26 507 -26 507 -26 525 c 0,26,27
 -21 565 -21 565 10 590 c 0,28,29
 36 612 36 612 70 616 c 0,30,0
 75 617 75 617 80 617 c 128,-1,1
35 520 m 0,31,32
 35 517 35 517 36 514 c 0,33,34
 37 512 37 512 37 509 c 0,35,36
 37 484 37 484 67 478 c 0,37,38
 74 476 74 476 77 476 c 0,39,40
 79 476 79 476 83 476 c 0,41,42
 108 477 108 477 120 497 c 0,43,44
 126 507 126 507 126 515.5 c 128,-1,45
 126 524 126 524 123 532 c 0,46,47
 113 555 113 555 84 555 c 0,48,49
 83 555 83 555 81 554 c 0,50,51
 48 553 48 553 38 529 c 0,52,53
 35 524 35 524 35 520 c 0,31,32
-25 499 m 1,54,55
 -15 308 -15 308 -15 308 c 129,-1,56
 -15 308 -15 308 -21 403 c 0,57,58
 -24 495 -24 495 -25 499 c 1,54,55
-25 499 m 1,59,60
 -26 504 -26 504 -26 508 c 1,61,62
 -25 504 -25 504 -25 499 c 1,59,60
EndSplineSet
EndChar

StartChar: B
Encoding: 66 66 6
Width: 272
VWidth: 1111
GlyphClass: 1
Flags: W
LayerCount: 2
Fore
SplineSet
47 747 m 2,0,-1
 77 744 l 1,1,2
 74 744 74 744 90 740 c 0,3,4
 100 737 100 737 125 732 c 1,5,-1
 151 721 l 1,6,-1
 172 711 l 1,7,-1
 192 696 l 1,8,9
 192 698 192 698 213 679 c 1,10,11
 211 679 211 679 226 660 c 2,12,-1
 242 645 l 1,13,-1
 249 628 l 1,14,15
 263 609 263 609 275 581 c 1,16,-1
 281 560 l 1,17,-1
 285 537 l 2,18,19
 289 513 289 513 288 512 c 128,-1,20
 287 511 287 511 285 487 c 2,21,-1
 281 466 l 1,22,-1
 275 445 l 2,23,24
 274 445 274 445 268 421 c 1,25,-1
 256 400 l 1,26,-1
 242 381 l 1,27,28
 241 383 241 383 226 363 c 2,29,-1
 211 344 l 1,30,-1
 192 332 l 1,31,-1
 172 314 l 1,32,-1
 149 305 l 1,33,-1
 125 292 l 2,34,35
 124 292 124 292 100 287 c 1,36,-1
 77 279 l 1,37,-1
 51 279 l 1,38,39
 25 275 25 275 15 275 c 2,40,-1
 -14 275 l 1,41,-1
 -11 305 l 1,42,-1
 -11 334 l 1,43,-1
 0 334 l 2,44,45
 11 334 11 334 45 337 c 2,46,-1
 63 340 l 1,47,-1
 81 342 l 1,48,49
 155 361 155 361 191 419 c 0,50,51
 196 429 196 429 205 445 c 2,52,-1
 213 460 l 2,53,54
 215 460 215 460 215 477 c 2,55,-1
 217 495 l 1,56,-1
 217 514 l 2,57,58
 217 533 217 533 215 550 c 2,59,-1
 211 565 l 2,60,61
 197 602 197 602 169 632 c 0,62,63
 159 642 159 642 154 645 c 0,64,65
 149 648 149 648 145 652 c 0,66,67
 137 661 137 661 119 668 c 2,68,-1
 98 677 l 1,69,70
 98 675 98 675 83 679 c 0,71,72
 50 687 50 687 14 689 c 2,73,-1
 -11 689 l 1,74,-1
 -11 750 l 2,75,76
 -11 753 -11 753 -1 753 c 0,77,78
 12 752 12 752 47 747 c 2,0,-1
EndSplineSet
EndChar

StartChar: C
Encoding: 67 67 7
Width: 657
VWidth: 1150
GlyphClass: 1
Flags: W
LayerCount: 2
Fore
SplineSet
342 349 m 1,0,1
 356 344 356 344 366 344 c 2,2,-1
 397 342 l 1,3,-1
 428 332 l 1,4,-1
 458 325 l 1,5,-1
 489 311 l 1,6,-1
 517 298 l 2,7,8
 517 297 517 297 525 293 c 0,9,10
 544 277 544 277 553 271 c 0,11,12
 568 263 568 263 589 237 c 2,13,-1
 607 214 l 2,14,15
 607 213 607 213 625 186 c 2,16,-1
 639 163 l 1,17,-1
 645 147 l 2,18,19
 650 130 650 130 653 124 c 0,20,21
 658 109 658 109 658 95 c 2,22,-1
 661 66 l 2,23,24
 663 51 663 51 665 26 c 2,25,-1
 665 5 l 1,26,27
 394 3 394 3 377 4 c 2,28,-1
 376 4 l 1,29,-1
 597 5 l 1,30,-1
 597 71 l 1,31,32
 598 71 598 71 597 74 c 0,33,34
 597 79 597 79 595 95 c 2,35,-1
 585 119 l 2,36,37
 584 119 584 119 577 142 c 1,38,-1
 565 161 l 2,39,40
 565 163 565 163 561 169 c 0,41,42
 552 183 552 183 531 204 c 0,43,44
 515 220 515 220 511 226 c 0,45,46
 483 250 483 250 458 260 c 2,47,-1
 437 268 l 1,48,-1
 411 277 l 2,49,50
 411 278 411 278 385 283 c 2,51,-1
 361 287 l 1,52,-1
 334 289 l 1,53,-1
 307 287 l 1,54,-1
 281 283 l 1,55,-1
 258 277 l 2,56,57
 258 276 258 276 230 268 c 2,58,-1
 207 260 l 2,59,60
 206 257 206 257 197 253 c 0,61,62
 183 248 183 248 165 235 c 2,63,-1
 145 217 l 2,64,65
 145 216 145 216 129 197 c 2,66,-1
 113 183 l 2,67,68
 110 183 110 183 100 160 c 2,69,-1
 89 140 l 2,70,71
 88 140 88 140 81 119 c 2,72,-1
 72 95 l 1,73,-1
 71 75 l 2,74,75
 69 40 69 40 68 32 c 2,76,-1
 68 5 l 1,77,-1
 37 5 l 1,78,-1
 4 5 l 1,79,-1
 4 26 l 2,80,81
 5 33 5 33 5 77 c 2,82,-1
 7 107 l 1,83,-1
 17 134 l 2,84,85
 18 134 18 134 20 139 c 0,86,87
 26 164 26 164 42 186 c 2,88,-1
 58 214 l 2,89,90
 58 215 58 215 79 237 c 2,91,-1
 100 260 l 2,92,93
 100 263 100 263 123 279 c 2,94,-1
 149 298 l 2,95,96
 151 298 151 298 170 307 c 0,97,98
 179 312 179 312 189 316 c 0,99,100
 208 323 208 323 237 332 c 2,101,-1
 268 342 l 1,102,-1
 300 344 l 2,103,104
 305 344 305 344 330 349 c 1,105,-1
 334 349 l 1,106,-1
 342 349 l 1,0,1
EndSplineSet
EndChar

StartChar: D
Encoding: 68 68 8
Width: 250
VWidth: 1111
GlyphClass: 1
Flags: W
LayerCount: 2
Fore
SplineSet
-1029 -149 m 1024,0,-1
34 555 m 1,1,-1
 26 521 l 1,2,-1
 32 477 l 1,3,4
 31 477 31 477 37 460 c 2,5,-1
 42 445 l 1,6,-1
 49 428 l 2,7,8
 63 402 63 402 105 372 c 0,9,10
 120 361 120 361 132 355 c 2,11,-1
 147 349 l 1,12,-1
 165 342 l 1,13,14
 164 343 164 343 185 340 c 2,15,-1
 204 337 l 2,16,17
 239 333 239 333 240 334 c 2,18,-1
 258 334 l 1,19,-1
 258 321 l 1,20,21
 260 321 260 321 259.5 313.5 c 128,-1,22
 259 306 259 306 258 292 c 2,23,-1
 258 275 l 1,24,-1
 239 275 l 2,25,26
 205 276 205 276 195 279 c 2,27,-1
 172 279 l 1,28,-1
 145 287 l 2,29,30
 144 286 144 286 121 292 c 1,31,-1
 98 305 l 1,32,-1
 77 315 l 1,33,-1
 56 330 l 1,34,-1
 37 342 l 1,35,-1
 19 363 l 1,36,37
 20 363 20 363 5 383 c 2,38,-1
 -7 404 l 1,39,-1
 -19 421 l 2,40,41
 -20 421 -20 421 -23 432 c 0,42,43
 -27 446 -27 446 -29 452 c 0,44,45
 -34 467 -34 467 -37 489 c 2,46,-1
 -40 511 l 1,47,48
 -39 511 -39 511 -37 532 c 0,49,50
 -37 535 -37 535 -37 535 c 0,51,52
 -35 560 -35 560 -26 581 c 2,53,-1
 -19 604 l 1,54,-1
 -7 625 l 1,55,-1
 5 645 l 1,56,-1
 19 660 l 2,57,58
 33 675 33 675 35 679 c 0,59,60
 41 685 41 685 50 691 c 0,61,62
 58 696 58 696 77 711 c 1,63,-1
 100 721 l 1,64,65
 100 718 100 718 121 732 c 1,66,-1
 145 740 l 1,67,-1
 172 744 l 2,68,69
 173 744 173 744 183 745 c 0,70,71
 221 750 221 750 235 751 c 2,72,-1
 239 751 l 1,73,-1
 258 751 l 2,74,75
 261 751 261 751 258 737 c 2,76,-1
 258 689 l 1,77,-1
 204 689 l 2,78,79
 201 689 201 689 185 686 c 2,80,-1
 165 681 l 1,81,-1
 151 677 l 1,82,83
 152 676 152 676 132 668 c 0,84,85
 100 650 100 650 89 642 c 0,86,87
 82 637 82 637 77 632 c 0,88,89
 65 621 65 621 49 597 c 1,90,-1
 42 581 l 1,91,-1
 34 555 l 1,1,-1
EndSplineSet
EndChar

StartChar: E
Encoding: 69 69 9
Width: 213
VWidth: 1151
GlyphClass: 1
Flags: W
LayerCount: 2
Fore
SplineSet
97 392 m 0,0,1
 109 394 109 394 119 392 c 0,2,3
 136 392 136 392 156 383 c 0,4,5
 158 382 158 382 162 378 c 0,6,7
 169 373 169 373 177 368 c 0,8,9
 212 343 212 343 217 301 c 0,10,11
 218 295 218 295 217 289 c 0,12,13
 216 259 216 259 195 235 c 0,14,15
 168 204 168 204 124 195 c 0,16,17
 114 193 114 193 103 193 c 0,18,19
 67 194 67 194 37 215 c 0,20,21
 0 249 0 249 0 286 c 0,22,23
 0 294 0 294 1 300 c 0,24,25
 7 344 7 344 41 369 c 0,26,27
 65 388 65 388 97 392 c 0,0,1
101 331 m 0,28,29
 75 326 75 326 66 304 c 0,30,31
 64 297 64 297 65 290 c 0,32,33
 66 261 66 261 98 256 c 0,34,35
 105 252 105 252 111 251 c 0,36,37
 137 251 137 251 148 274 c 0,38,39
 153 283 153 283 153 292 c 0,40,41
 153 302 153 302 149 310 c 0,42,43
 143 324 143 324 128 329 c 0,44,45
 116 334 116 334 101 331 c 0,28,29
EndSplineSet
EndChar

StartChar: F
Encoding: 70 70 10
Width: 600
VWidth: 1216
GlyphClass: 1
Flags: W
LayerCount: 2
Fore
SplineSet
4 -139 m 2,0,-1
 -5 -139 l 1,1,-1
 -5 -111 l 1,2,-1
 -5 -79 l 1,3,-1
 -2 -79 l 1,4,-1
 4 -79 l 2,5,6
 8 -79 8 -79 14 -76 c 0,7,8
 35 -66 35 -66 39 -36 c 0,9,10
 40 -31 40 -31 40 -35 c 1,11,12
 54 60 54 60 148 60 c 2,13,-1
 161 60 l 1,14,15
 196 56 196 56 219 37 c 0,16,17
 256 11 256 11 258 -34 c 0,18,19
 262 -53 262 -53 266 -60 c 0,20,21
 274 -81 274 -81 304 -80 c 0,22,23
 311 -80 311 -80 319 -78 c 0,24,25
 344 -71 344 -71 347 -44 c 2,26,-1
 349 -28 l 2,27,28
 354 17 354 17 390 41 c 0,29,30
 418 60 418 60 458 60 c 1,31,32
 458 59 458 59 467 58 c 0,33,34
 507 55 507 55 541 15 c 0,35,36
 552 2 552 2 556 -7 c 0,37,38
 573 -68 573 -68 585 -75 c 0,39,40
 590 -78 590 -78 607 -77 c 1,41,-1
 611 -79 l 1,42,-1
 611 -111 l 1,43,-1
 611 -139 l 1,44,45
 596 -141 596 -141 597 -140 c 1,46,-1
 593 -140 l 1,47,-1
 592 -140 l 2,48,49
 578 -140 578 -140 553 -129 c 0,50,51
 508 -105 508 -105 500 -44 c 1,52,53
 495 -39 495 -39 500 -26 c 1,54,55
 495 -9 495 -9 474 -1 c 0,56,57
 465 3 465 3 456.5 3 c 128,-1,58
 448 3 448 3 441 -1 c 0,59,60
 421 -7 421 -7 415 -26 c 1,61,62
 415 -44 415 -44 409 -64 c 0,63,64
 389 -121 389 -121 325 -137 c 0,65,66
 310 -141 310 -141 295 -140 c 2,67,-1
 270 -134 l 2,68,69
 202 -117 202 -117 195 -45 c 1,70,71
 195 -8 195 -8 164 1 c 0,72,73
 159 3 159 3 154 3 c 0,74,75
 146 3 146 3 137 -1 c 0,76,77
 115 -7 115 -7 107 -26 c 0,78,79
 108 -31 108 -31 107 -35 c 0,80,81
 107 -54 107 -54 100 -68 c 0,82,83
 84 -117 84 -117 19 -137 c 0,84,85
 13 -139 13 -139 14 -137 c 1,86,87
 9 -137 9 -137 4 -139 c 2,0,-1
EndSplineSet
EndChar

StartChar: G
Encoding: 71 71 11
Width: 593
VWidth: 1167
GlyphClass: 1
Flags: W
LayerCount: 2
Fore
SplineSet
253 247 m 2,0,-1
 250 234 l 2,1,2
 247 219 247 219 245 211 c 0,3,4
 235 176 235 176 205 155 c 0,5,6
 178 135 178 135 145 135 c 2,7,-1
 139 135 l 2,8,9
 134 135 134 135 123 138 c 0,10,11
 45 161 45 161 35 229 c 0,12,13
 30 263 30 263 -2 275 c 0,14,15
 -6 276 -6 276 -7 276 c 0,16,17
 -12 277 -12 277 -13.5 279 c 128,-1,18
 -15 281 -15 281 -15 295.5 c 128,-1,19
 -15 310 -15 310 -14 334 c 1,20,-1
 -8 334 l 1,21,-1
 -5 334 l 2,22,23
 0 332 0 332 6 332 c 0,24,25
 21 332 21 332 37 321 c 0,26,27
 90 295 90 295 96 235 c 0,28,29
 98 220 98 220 105 210 c 0,30,31
 116 195 116 195 139 195 c 2,32,33
 139 195 139 195 140 195 c 0,34,35
 180 195 180 195 185 243 c 0,36,37
 190 286 190 286 229 313 c 0,38,39
 260 334 260 334 295 334 c 2,40,-1
 307 334 l 1,41,42
 342 330 342 330 363 311 c 0,43,44
 397 285 397 285 403 242 c 0,45,46
 406 218 406 218 417 205 c 0,47,48
 425 197 425 197 439 195 c 0,49,50
 453 191 453 191 461 196 c 0,51,52
 489 203 489 203 494 244 c 0,53,54
 499 285 499 285 533 311 c 0,55,56
 560 332 560 332 593 334 c 2,57,-1
 602 334 l 1,58,59
 604 320 604 320 604 305 c 2,60,-1
 604 277 l 1,61,-1
 600 277 l 1,62,-1
 597 277 l 2,63,64
 592 276 592 276 577 268 c 0,65,66
 562 256 562 256 560 247 c 2,67,-1
 558 230 l 2,68,69
 559 215 559 215 553 205 c 0,70,71
 529 142 529 142 459 135 c 0,72,73
 453 134 453 134 446 135 c 0,74,75
 411 135 411 135 385 155 c 0,76,77
 355 180 355 180 345 210 c 0,78,79
 342 219 342 219 341 230 c 0,80,81
 335 276 335 276 303 277 c 0,82,83
 289 277 289 277 275 270 c 0,84,85
 258 261 258 261 253 247 c 2,0,-1
EndSplineSet
EndChar

StartChar: H
Encoding: 72 72 12
Width: 593
VWidth: 1085
GlyphClass: 1
Flags: W
LayerCount: 2
Fore
SplineSet
146 611 m 0,0,1
 172 611 172 611 185 639 c 1,2,3
 185 697 185 697 226 730 c 0,4,5
 254 753 254 753 287 753 c 2,6,-1
 300 753 l 1,7,8
 339 748 339 748 366 726 c 0,9,10
 397 702 397 702 403 661 c 0,11,12
 406 633 406 633 423 618 c 0,13,14
 432 611 432 611 439 611 c 2,15,-1
 450 611 l 2,16,17
 461 611 461 611 472 617 c 0,18,19
 492 629 492 629 495 665 c 0,20,21
 496 672 496 672 499 683 c 0,22,23
 516 739 516 739 593 751 c 1,24,-1
 604 751 l 1,25,-1
 604 721 l 1,26,-1
 604 692 l 1,27,-1
 602 692 l 1,28,-1
 600 692 l 2,29,30
 598 690 598 690 596 689 c 0,31,32
 592 689 592 689 586 686 c 0,33,34
 563 676 563 676 560 660 c 2,35,-1
 558 645 l 2,36,37
 553 601 553 601 519 575 c 0,38,39
 491 552 491 552 455 553 c 2,40,-1
 449 553 l 2,41,42
 446 555 446 555 443 554.5 c 128,-1,43
 440 554 440 554 430 555 c 0,44,45
 368 559 368 559 347 615 c 0,46,47
 341 631 341 631 340 649 c 0,48,49
 339 664 339 664 335 671 c 0,50,51
 330 679 330 679 321 685 c 0,52,53
 309 691 309 691 295 691 c 0,54,55
 267 689 267 689 253 660 c 1,56,-1
 250 644 l 2,57,58
 247 629 247 629 245 615 c 0,59,60
 231 580 231 580 187 560 c 0,61,62
 172 553 172 553 156 552 c 0,63,64
 152 552 152 552 146 552 c 0,65,66
 63 553 63 553 38 624 c 0,67,68
 33 638 33 638 33 647 c 0,69,70
 33 650 33 650 33 655 c 0,71,72
 30 677 30 677 10 688 c 0,73,74
 5 691 5 691 3 691 c 0,75,76
 1 691 1 691 -1 690 c 0,77,78
 -11 688 -11 688 -14 695 c 2,79,-1
 -14 753 l 1,80,-1
 -8 753 l 1,81,-1
 -5 753 l 2,82,83
 0 751 0 751 3 751 c 0,84,85
 8 751 8 751 17 744 c 1,86,87
 85 726 85 726 97 658 c 0,88,89
 101 633 101 633 115 622 c 0,90,91
 127 611 127 611 146 611 c 0,0,1
EndSplineSet
EndChar

StartChar: I
Encoding: 73 73 13
Width: 177
VWidth: 1082
GlyphClass: 1
Flags: W
LayerCount: 2
Fore
SplineSet
5 794 m 0,0,1
 33 816 33 816 65 815 c 0,2,3
 73 815 73 815 81 814 c 2,4,-1
 92 814 l 1,5,6
 118 810 118 810 142 794 c 0,7,8
 182 766 182 766 183 722 c 2,9,-1
 183 708 l 1,10,11
 179 680 179 680 160 655 c 0,12,13
 134 627 134 627 95 619 c 0,14,15
 82 616 82 616 68 615 c 0,16,17
 28 615 28 615 -3 645 c 0,18,19
 -34 674 -34 674 -35 713 c 2,20,-1
 -35 724 l 1,21,22
 -30 766 -30 766 5 794 c 0,0,1
34 732 m 0,23,24
 31 726 31 726 31 720 c 0,25,26
 31 713 31 713 33 705 c 0,27,28
 39 683 39 683 56 678 c 0,29,30
 64 675 64 675 74 676 c 0,31,32
 103 677 103 677 114 698 c 0,33,34
 119 706 119 706 118 720 c 0,35,36
 118 743 118 743 95 753 c 0,37,38
 87 757 87 757 75 756 c 0,39,40
 44 757 44 757 34 732 c 0,23,24
EndSplineSet
EndChar

StartChar: J
Encoding: 74 74 14
Width: 640
VWidth: 1190
GlyphClass: 1
Flags: W
LayerCount: 2
Fore
SplineSet
642 300 m 1,0,-1
 642 270 l 1,1,-1
 605 270 l 2,2,3
 568 270 568 270 562 269 c 0,4,5
 555 268 555 268 550 260 c 0,6,7
 545 255 545 255 307 50 c 0,8,9
 119 -113 119 -113 103 -125 c 0,10,11
 83 -140 83 -140 26 -140 c 2,12,-1
 14 -140 l 1,13,-1
 -15 -140 l 1,14,-1
 -15 -81 l 1,15,-1
 19 -79 l 2,16,17
 58 -79 58 -79 68 -75 c 0,18,19
 79 -70 79 -70 144 -11 c 2,20,-1
 165 7 l 2,21,22
 183 25 183 25 205 43 c 0,23,24
 225 58 225 58 230 65 c 2,25,-1
 245 77 l 2,26,27
 259 84 259 84 261 88 c 0,28,29
 263 91 263 91 285 110 c 0,30,31
 319 139 319 139 324 146 c 0,32,33
 326 150 326 150 335.5 156.5 c 128,-1,34
 345 163 345 163 359 178 c 0,35,36
 363 182 363 182 365 184 c 0,37,38
 375 194 375 194 383 195 c 1,39,40
 388 200 388 200 386 203 c 0,41,42
 386 204 386 204 386 204 c 2,43,44
 386 205 386 205 415 228 c 0,45,46
 492 299 492 299 519 315 c 0,47,48
 530 321 530 321 541 325 c 0,49,50
 564 332 564 332 604 332 c 2,51,-1
 639 332 l 1,52,-1
 642 300 l 1,0,-1
EndSplineSet
EndChar

StartChar: K
Encoding: 75 75 15
Width: 630
VWidth: 1111
GlyphClass: 1
Flags: W
LayerCount: 2
Fore
SplineSet
65 751 m 1,0,1
 99 746 99 746 120 728 c 0,2,3
 143 709 143 709 351 525 c 0,4,5
 557 342 557 342 571 340 c 0,6,7
 573 339 573 339 585 340 c 2,8,-1
 607 340 l 1,9,-1
 645 340 l 1,10,-1
 645 308 l 1,11,-1
 645 279 l 1,12,-1
 614 279 l 1,13,-1
 604 279 l 2,14,15
 542 279 542 279 519 296 c 0,16,17
 505 302 505 302 500 311 c 0,18,19
 465 341 465 341 197 576 c 0,20,21
 94 666 94 666 87 674 c 0,22,23
 70 690 70 690 29 689 c 2,24,-1
 -14 689 l 1,25,-1
 -14 721 l 1,26,-1
 -14 751 l 1,27,-1
 65 751 l 1,0,1
EndSplineSet
EndChar

StartChar: L
Encoding: 76 76 16
Width: 627
VWidth: 1148
GlyphClass: 1
Flags: W
LayerCount: 2
Fore
SplineSet
637 308 m 1,0,-1
 637 277 l 1,1,-1
 311 277 l 1,2,-1
 -14 277 l 1,3,-1
 -14 308 l 1,4,-1
 -14 337 l 1,5,-1
 637 337 l 1,6,-1
 637 308 l 1,0,-1
EndSplineSet
EndChar

StartChar: M
Encoding: 77 77 17
Width: 638
VWidth: 1111
GlyphClass: 1
Flags: W
LayerCount: 2
Fore
SplineSet
-8 340 m 1,0,-1
 37 340 l 2,1,2
 75 340 75 340 85 349 c 2,3,-1
 134 393 l 2,4,5
 287 525 287 525 307 545 c 0,6,7
 312 550 312 550 324 560 c 0,8,9
 337 572 337 572 345 577 c 0,10,11
 350 582 350 582 353 585 c 0,12,13
 381 608 381 608 426 649 c 2,14,-1
 439 660 l 2,15,16
 441 662 441 662 446 666 c 0,17,18
 466 681 466 681 470 689 c 1,19,20
 467 688 467 688 500 713 c 1,21,22
 526 739 526 739 556 745 c 0,23,24
 571 748 571 748 614 750 c 2,25,-1
 647 750 l 1,26,-1
 647 689 l 1,27,-1
 614 689 l 2,28,29
 566 689 566 689 477 610 c 0,30,31
 454 589 454 589 377 522 c 0,32,33
 191 358 191 358 154 328 c 0,34,35
 134 313 134 313 126 302 c 1,36,37
 107 287 107 287 92 283 c 0,38,39
 77 279 77 279 34 279 c 2,40,-1
 24 279 l 1,41,-1
 -8 279 l 1,42,-1
 -8 308 l 1,43,-1
 -8 340 l 1,0,-1
EndSplineSet
EndChar

StartChar: N
Encoding: 78 78 18
Width: 642
VWidth: 1190
GlyphClass: 1
Flags: W
LayerCount: 2
Fore
SplineSet
122 315 m 0,0,1
 145 300 145 300 306 157 c 0,2,3
 330 136 330 136 335 132 c 0,4,5
 370 100 370 100 441 37 c 0,6,7
 556 -68 556 -68 561 -68 c 0,8,9
 569 -75 569 -75 589 -77 c 2,10,-1
 655 -77 l 1,11,-1
 655 -108 l 1,12,-1
 655 -139 l 1,13,-1
 623 -139 l 2,14,15
 579 -139 579 -139 556 -131 c 0,16,17
 541 -126 541 -126 519 -113 c 1,18,-1
 349 37 l 2,19,20
 332 52 332 52 322 59 c 0,21,22
 311 66 311 66 295 81 c 2,23,-1
 272 102 l 2,24,25
 243 128 243 128 207 159 c 0,26,27
 150 208 150 208 131 228 c 0,28,29
 121 239 121 239 111 248 c 0,30,31
 81 273 81 273 60 274 c 2,32,-1
 -3 274 l 1,33,34
 -3 300 -3 300 -4 334 c 1,35,-1
 29 334 l 2,36,37
 61 334 61 334 75 332 c 0,38,39
 102 329 102 329 122 315 c 0,0,1
-3 274 m 1,40,-1
 -4 274 l 1,41,42
 -3 181 -3 181 -3 181 c 129,-1,43
 -3 181 -3 181 -2 185 c 0,44,45
 -2 199 -2 199 -3 274 c 1,40,-1
EndSplineSet
EndChar

StartChar: O
Encoding: 79 79 19
Width: 211
VWidth: 1190
GlyphClass: 1
Flags: W
LayerCount: 2
Fore
SplineSet
123 196 m 1,0,1
 160 191 160 191 186 169 c 0,2,3
 216 144 216 144 217 111 c 2,4,-1
 217 100 l 2,5,6
 217 40 217 40 156 12 c 0,7,8
 136 2 136 2 123 2 c 2,9,-1
 105 2 l 2,10,11
 65 2 65 2 30 30 c 1,12,13
 4 56 4 56 2 89 c 2,14,-1
 2 100 l 2,15,16
 2 134 2 134 23 159 c 0,17,18
 53 196 53 196 105 196 c 2,19,-1
 123 196 l 1,0,1
153 113 m 0,20,21
 145 133 145 133 122 140 c 0,22,23
 114 143 114 143 106 143 c 0,24,25
 93 143 93 143 81 131 c 0,26,27
 66 117 66 117 66 98 c 0,28,29
 66 72 66 72 93 62 c 0,30,31
 102 58 102 58 112 58 c 0,32,33
 142 58 142 58 152 89 c 0,34,35
 158 106 158 106 153 113 c 0,20,21
EndSplineSet
EndChar

StartChar: P
Encoding: 80 80 20
Width: 277
VWidth: 1190
GlyphClass: 1
Flags: W
LayerCount: 2
Fore
SplineSet
14 337 m 2,0,1
 34 337 34 337 46 335 c 0,2,3
 58 333 58 333 81 332 c 1,4,-1
 105 326 l 1,5,-1
 129 319 l 1,6,-1
 153 308 l 1,7,-1
 176 296 l 2,8,9
 177 296 177 296 195 281 c 1,10,11
 209 274 209 274 216 265 c 0,12,13
 218 263 218 263 220 261 c 0,14,15
 225 257 225 257 228 253 c 0,16,17
 232 248 232 248 235 247 c 2,18,-1
 247 232 l 1,19,-1
 258 211 l 1,20,-1
 272 189 l 2,21,22
 273 189 273 189 279 166 c 2,23,-1
 287 144 l 1,24,25
 284 144 284 144 289 123 c 1,26,-1
 289 74 l 1,27,-1
 287 51 l 1,28,29
 290 51 290 51 279 32 c 1,30,-1
 272 8 l 1,31,32
 273 8 273 8 258 -14 c 2,33,-1
 247 -34 l 1,34,35
 249 -34 249 -34 232 -49 c 2,36,-1
 215 -68 l 1,37,38
 215 -67 215 -67 211 -71 c 0,39,40
 195 -82 195 -82 176 -98 c 1,41,42
 177 -98 177 -98 153 -108 c 2,43,-1
 129 -119 l 1,44,-1
 105 -125 l 2,45,46
 65 -133 65 -133 14 -137 c 1,47,-1
 -7 -137 l 1,48,-1
 -7 -108 l 2,49,50
 -7 -107 -7 -107 -5 -79 c 1,51,52
 0 -77 0 -77 15 -78 c 0,53,54
 22 -79 22 -79 29 -78 c 0,55,56
 40 -78 40 -78 49 -77 c 2,57,-1
 66 -75 l 1,58,-1
 86 -68 l 1,59,-1
 105 -63 l 1,60,-1
 121 -58 l 1,61,62
 177 -32 177 -32 200 15 c 2,63,-1
 208 32 l 2,64,65
 209 33 209 33 211 35 c 0,66,67
 216 45 216 45 219 65 c 2,68,-1
 221 81 l 1,69,-1
 225 100 l 1,70,-1
 221 119 l 1,71,-1
 219 134 l 1,72,-1
 215 151 l 1,73,-1
 208 166 l 1,74,75
 208 164 208 164 200 185 c 1,76,77
 186 204 186 204 179 214 c 0,78,79
 154 238 154 238 121 256 c 2,80,-1
 102 265 l 2,81,82
 102 267 102 267 85 270 c 2,83,-1
 66 274 l 1,84,85
 67 272 67 272 42 275 c 0,86,87
 21 279 21 279 14 279 c 2,88,-1
 -5 279 l 1,89,90
 -7 293 -7 293 -7 308 c 2,91,-1
 -7 337 l 1,92,-1
 14 337 l 2,0,1
EndSplineSet
EndChar

StartChar: Q
Encoding: 81 81 21
Width: 872
VWidth: 1146
GlyphClass: 1
Flags: W
LayerCount: 2
Fore
SplineSet
886 28 m 2,0,1
 888 23 888 23 892 -40 c 1,2,-1
 892 -49 l 1,3,-1
 892 -68 l 1,4,5
 857 -64 857 -64 840 -65 c 0,6,7
 829 -65 829 -65 826 -66 c 1,8,9
 829 -61 829 -61 826 -45 c 0,10,11
 826 -11 826 -11 825 -5 c 0,12,13
 824 -2 824 -2 818 19 c 2,14,-1
 814 42 l 1,15,-1
 805 66 l 1,16,-1
 793 86 l 1,17,-1
 783 107 l 1,18,19
 784 107 784 107 763 125 c 1,20,-1
 750 142 l 1,21,-1
 730 160 l 1,22,-1
 708 174 l 1,23,-1
 686 185 l 1,24,-1
 661 195 l 1,25,26
 661 194 661 194 651 197 c 0,27,28
 623 204 623 204 586 211 c 2,29,-1
 561 214 l 1,30,-1
 534 211 l 1,31,-1
 507 207 l 1,32,-1
 483 204 l 2,33,34
 481 204 481 204 458 195 c 2,35,-1
 437 185 l 1,36,-1
 414 174 l 1,37,-1
 393 160 l 1,38,-1
 374 142 l 1,39,-1
 355 123 l 1,40,41
 356 123 356 123 340 107 c 1,42,-1
 326 86 l 1,43,-1
 315 66 l 1,44,-1
 307 42 l 1,45,-1
 300 19 l 1,46,-1
 298 0 l 2,47,48
 294 -35 294 -35 295 -40 c 2,49,-1
 295 -68 l 1,50,-1
 261 -68 l 1,51,-1
 228 -68 l 1,52,-1
 228 -49 l 1,53,-1
 228 -39 l 2,54,55
 229 -22 229 -22 235 2 c 2,56,-1
 237 30 l 2,57,58
 238 30 238 30 245 60 c 1,59,-1
 256 87 l 1,60,61
 255 87 255 87 255 88 c 0,62,63
 255 93 255 93 286 140 c 1,64,65
 286 139 286 139 294 148 c 0,66,67
 306 163 306 163 326 186 c 1,68,69
 325 186 325 186 329 189 c 0,70,71
 353 204 353 204 362 213 c 0,72,73
 377 226 377 226 405 237 c 2,74,-1
 435 249 l 2,75,76
 435 250 435 250 465 258 c 2,77,-1
 498 268 l 1,78,-1
 530 270 l 2,79,80
 561 270 561 270 561 275 c 0,81,82
 561 279 561 279 532 300 c 1,83,-1
 500 332 l 1,84,85
 432 392 432 392 340 475 c 2,86,-1
 177 625 l 2,87,88
 176 625 176 625 158 637 c 2,89,-1
 139 653 l 1,90,-1
 115 665 l 1,91,-1
 92 675 l 1,92,-1
 68 681 l 1,93,94
 68 678 68 678 60 683 c 0,95,96
 43 692 43 692 19 692 c 0,97,98
 -7 696 -7 696 -7 693 c 1,99,-1
 -7 693 l 1,100,101
 -8 722 -8 722 -8 755 c 1,102,-1
 -7 755 l 1,103,-1
 -4 755 l 1,104,105
 10 751 10 751 27 751 c 0,106,107
 52 750 52 750 60 744 c 1,108,-1
 92 737 l 1,109,-1
 119 732 l 1,110,-1
 144 717 l 2,111,112
 145 717 145 717 174 703 c 1,113,114
 173 703 173 703 197 683 c 1,115,116
 196 683 196 683 226 666 c 1,117,118
 225 666 225 666 312 587 c 0,119,120
 633 292 633 292 662 270 c 0,121,122
 668 265 668 265 687 249 c 1,123,124
 686 250 686 250 696 245 c 0,125,126
 712 237 712 237 744 224 c 1,127,-1
 770 204 l 2,128,129
 770 203 770 203 795 186 c 1,130,-1
 814 163 l 1,131,-1
 814 163 l 1,132,133
 814 161 814 161 837 140 c 1,134,-1
 851 113 l 1,135,-1
 866 87 l 1,136,-1
 875 60 l 2,137,138
 880 46 880 46 886 34 c 1,139,-1
 886 28 l 2,0,1
-7 693 m 1,140,-1
 -8 693 l 1,141,142
 -4 431 -4 431 -4 431 c 129,-1,143
 -4 431 -4 431 -7 693 c 1,140,-1
EndSplineSet
EndChar

StartChar: R
Encoding: 82 82 22
Width: 273
VWidth: 1190
GlyphClass: 1
Flags: W
LayerCount: 2
Fore
SplineSet
279 317 m 1,0,-1
 279 287 l 1,1,-1
 279 277 l 1,2,-1
 263 277 l 2,3,4
 256 277 256 277 226 275 c 1,5,-1
 207 272 l 2,6,7
 206 274 206 274 186 268 c 2,8,-1
 172 263 l 1,9,-1
 155 256 l 2,10,11
 108 239 108 239 74 183 c 1,12,-1
 66 165 l 2,13,14
 65 165 65 165 58 149 c 2,15,-1
 55 134 l 1,16,-1
 51 119 l 1,17,-1
 51 81 l 1,18,-1
 55 63 l 1,19,-1
 60 47 l 1,20,-1
 66 30 l 1,21,-1
 74 15 l 2,22,23
 84 -8 84 -8 100 -19 c 1,24,25
 114 -36 114 -36 155 -58 c 1,26,-1
 172 -65 l 1,27,28
 171 -66 171 -66 186 -68 c 1,29,-1
 207 -77 l 1,30,-1
 226 -79 l 1,31,-1
 279 -79 l 1,32,-1
 279 -89 l 1,33,-1
 279 -119 l 1,34,-1
 279 -139 l 1,35,-1
 260 -139 l 2,36,37
 225 -139 225 -139 217 -137 c 2,38,-1
 193 -134 l 1,39,-1
 168 -126 l 1,40,-1
 144 -121 l 1,41,-1
 123 -111 l 2,42,43
 82 -92 82 -92 52 -60 c 0,44,45
 32 -40 32 -40 15 -14 c 2,46,-1
 4 7 l 2,47,48
 2 7 2 7 -14 53 c 1,49,-1
 -14 77 l 1,50,-1
 -15 98 l 1,51,-1
 -14 121 l 2,52,53
 -14 123 -14 123 -14 126 c 0,54,55
 -12 143 -12 143 -5 165 c 2,56,-1
 4 186 l 1,57,58
 0 186 0 186 15 208 c 2,59,-1
 28 230 l 1,60,61
 28 229 28 229 45 247 c 1,62,63
 45 244 45 244 60 268 c 1,64,-1
 79 281 l 1,65,-1
 100 296 l 1,66,-1
 121 307 l 1,67,-1
 144 319 l 1,68,-1
 170 325 l 2,69,70
 171 325 171 325 195 332 c 1,71,-1
 217 334 l 2,72,73
 229 336 229 336 244 335 c 0,74,75
 251 335 251 335 260 335 c 2,76,-1
 279 335 l 1,77,-1
 279 317 l 1,0,-1
EndSplineSet
EndChar

StartChar: S
Encoding: 83 83 23
Width: 640
VWidth: 1148
GlyphClass: 1
Flags: W
LayerCount: 2
Fore
SplineSet
60 581 m 2,0,1
 59 576 59 576 59 569 c 0,2,3
 59 555 59 555 61 535 c 1,4,-1
 66 515 l 1,5,-1
 74 493 l 1,6,-1
 81 468 l 1,7,-1
 92 449 l 1,8,-1
 105 428 l 1,9,-1
 121 413 l 1,10,-1
 139 393 l 1,11,-1
 158 375 l 1,12,13
 158 376 158 376 177 363 c 1,14,-1
 202 353 l 1,15,-1
 225 342 l 1,16,-1
 247 334 l 1,17,-1
 270 326 l 2,18,19
 271 326 271 326 300 323 c 2,20,-1
 326 321 l 1,21,-1
 353 323 l 1,22,-1
 377 326 l 1,23,-1
 404 334 l 2,24,25
 404 335 404 335 428 342 c 1,26,-1
 449 353 l 2,27,28
 475 367 475 367 483 371 c 0,29,30
 488 374 488 374 494 378 c 0,31,32
 529 400 529 400 560 449 c 2,33,-1
 572 468 l 1,34,-1
 581 493 l 1,35,36
 581 491 581 491 586 513 c 1,37,-1
 587 540 l 2,38,39
 591 560 591 560 592 585 c 2,40,-1
 592 605 l 1,41,-1
 658 605 l 1,42,-1
 658 577 l 2,43,44
 658 542 658 542 649 503 c 1,45,-1
 639 475 l 1,46,-1
 632 447 l 1,47,-1
 615 421 l 1,48,-1
 604 395 l 1,49,-1
 583 374 l 2,50,51
 559 348 559 348 541 337 c 0,52,53
 529 330 529 330 511 313 c 1,54,55
 511 314 511 314 481 300 c 2,56,-1
 453 287 l 2,57,58
 451 287 451 287 423 279 c 2,59,-1
 393 268 l 1,60,-1
 360 265 l 1,61,-1
 325 261 l 1,62,-1
 292 265 l 1,63,-1
 260 268 l 1,64,-1
 228 277 l 2,65,66
 227 277 227 277 197 283 c 1,67,-1
 172 300 l 2,68,69
 171 300 171 300 142 313 c 1,70,71
 142 312 142 312 134 318 c 0,72,73
 117 332 117 332 89 350 c 1,74,-1
 74 372 l 2,75,76
 66 379 66 379 56 392 c 1,77,-1
 51 395 l 1,78,79
 51 394 51 394 47 399 c 0,80,81
 41 407 41 407 38 415 c 0,82,83
 34 425 34 425 19 447 c 1,84,-1
 14 475 l 1,85,-1
 -2 505 l 1,86,-1
 -4 532 l 2,87,88
 -7 550 -7 550 -5 568 c 0,89,90
 -5 576 -5 576 -5 585 c 2,91,-1
 -5 605 l 1,92,-1
 28 605 l 1,93,-1
 58 605 l 1,94,-1
 60 581 l 2,0,1
EndSplineSet
EndChar

StartChar: T
Encoding: 84 84 24
Width: 192
VWidth: 1150
GlyphClass: 1
Flags: W
LayerCount: 2
Fore
SplineSet
129 289 m 1,0,-1
 126 85 l 1,1,-1
 126 -58 l 1,2,-1
 121 -74 l 2,3,4
 106 -109 106 -109 87 -121 c 1,5,6
 42 -136 42 -136 35 -140 c 0,7,8
 25 -145 25 -145 8 -142 c 2,9,-1
 -5 -142 l 1,10,-1
 -7 -142 l 1,11,-1
 -7 -113 l 1,12,-1
 -7 -86 l 1,13,14
 -7 -88 -7 -88 -5 -85 c 1,15,16
 19 -85 19 -85 30 -81 c 0,17,18
 52 -76 52 -76 55 -68 c 0,19,20
 60 -51 60 -51 60 339 c 0,21,22
 60 647 60 647 66 690 c 0,23,24
 77 752 77 752 189 753 c 2,25,-1
 196 753 l 1,26,-1
 200 753 l 1,27,-1
 200 721 l 1,28,-1
 200 692 l 1,29,-1
 193 692 l 1,30,-1
 161 692 l 1,31,32
 135 685 135 685 129 660 c 1,33,-1
 129 289 l 1,0,-1
EndSplineSet
EndChar

StartChar: U
Encoding: 85 85 25
Width: 206
VWidth: 1214
GlyphClass: 1
Flags: W
LayerCount: 2
Fore
SplineSet
119 -8 m 1,0,1
 156 -13 156 -13 183 -39 c 0,2,3
 208 -64 208 -64 214 -100 c 1,4,-1
 214 -108 l 2,5,6
 215 -168 215 -168 153 -196 c 0,7,8
 128 -207 128 -207 103 -207 c 2,9,-1
 98 -207 l 2,10,11
 59 -207 59 -207 26 -177 c 0,12,13
 -3 -151 -3 -151 -5 -119 c 2,14,-1
 -5 -111 l 2,15,16
 -5 -77 -5 -77 15 -50 c 0,17,18
 45 -10 45 -10 102 -8 c 2,19,-1
 119 -8 l 1,0,1
145 -121 m 0,20,21
 147 -115 147 -115 147 -108 c 0,22,23
 147 -83 147 -83 120 -72 c 0,24,25
 107 -67 107 -67 100 -68 c 0,26,27
 86 -68 86 -68 75 -78 c 0,28,29
 61 -91 61 -91 60 -113 c 0,30,31
 61 -137 61 -137 86 -145 c 0,32,33
 96 -149 96 -149 106 -149 c 0,34,35
 138 -149 138 -149 145 -121 c 0,20,21
EndSplineSet
EndChar

StartChar: V
Encoding: 86 86 26
Width: 630
VWidth: 1124
GlyphClass: 1
Flags: W
LayerCount: 2
Fore
SplineSet
323 761 m 2,0,1
 329 759 329 759 337 759 c 128,-1,2
 345 759 345 759 353 761 c 2,3,-1
 385 755 l 1,4,-1
 414 745 l 1,5,-1
 447 740 l 1,6,7
 447 742 447 742 456 735 c 0,8,9
 475 722 475 722 503 711 c 1,10,-1
 530 692 l 1,11,-1
 555 672 l 1,12,-1
 575 649 l 2,13,14
 578 648 578 648 595 626 c 2,15,-1
 613 602 l 1,16,17
 611 602 611 602 626 574 c 1,18,19
 634 548 634 548 639 534 c 2,20,-1
 647 519 l 1,21,-1
 647 489 l 1,22,-1
 649 458 l 1,23,24
 648 458 648 458 647 428 c 2,25,-1
 647 400 l 1,26,-1
 635 374 l 2,27,28
 634 374 634 374 626 344 c 1,29,-1
 611 319 l 2,30,31
 611 318 611 318 595 292 c 1,32,-1
 575 268 l 2,33,34
 576 267 576 267 576 267 c 2,35,36
 576 263 576 263 553 247 c 1,37,-1
 530 226 l 2,38,39
 529 226 529 226 503 207 c 1,40,-1
 475 196 l 1,41,-1
 447 183 l 1,42,-1
 415 172 l 1,43,44
 418 171 418 171 385 163 c 1,45,-1
 353 163 l 1,46,-1
 321 160 l 1,47,-1
 287 163 l 1,48,-1
 256 163 l 1,49,50
 256 162 256 162 255 163 c 0,51,52
 251 163 251 163 240 167 c 0,53,54
 227 172 227 172 195 183 c 0,55,56
 195 186 195 186 163 195 c 1,57,-1
 135 207 l 1,58,59
 135 206 135 206 111 226 c 2,60,-1
 86 247 l 1,61,-1
 65 268 l 2,62,63
 31 306 31 306 32 317 c 1,64,-1
 28 319 l 1,65,66
 28 318 28 318 19 332 c 2,67,-1
 14 344 l 1,68,-1
 5 374 l 2,69,70
 2 374 2 374 -5 400 c 1,71,-1
 -7 428 l 1,72,-1
 -14 458 l 2,73,74
 -14 461 -14 461 -7 489 c 1,75,76
 -8 489 -8 489 -8 494 c 0,77,78
 -8 501 -8 501 -5 519 c 1,79,-1
 5 547 l 1,80,-1
 14 575 l 1,81,-1
 28 602 l 1,82,-1
 45 626 l 1,83,-1
 56 637 l 1,84,-1
 74 658 l 1,85,-1
 86 672 l 2,86,87
 87 672 87 672 99 681 c 128,-1,88
 111 690 111 690 135 711 c 1,89,-1
 163 721 l 1,90,91
 189 736 189 736 192 738 c 0,92,93
 193 739 193 739 193 739 c 2,94,95
 195 742 195 742 225 745 c 1,96,-1
 255 755 l 2,97,98
 255 756 255 756 287 761 c 1,99,-1
 323 761 l 2,0,1
292 700 m 1,100,-1
 266 698 l 2,101,102
 266 697 266 697 256 694 c 0,103,104
 242 689 242 689 215 683 c 1,105,-1
 195 670 l 1,106,-1
 174 660 l 1,107,-1
 153 645 l 2,108,109
 129 630 129 630 120 618 c 0,110,111
 115 613 115 613 111 607 c 2,112,-1
 100 595 l 1,113,-1
 87 574 l 1,114,-1
 74 553 l 1,115,-1
 66 530 l 2,116,117
 65 530 65 530 58 507 c 1,118,-1
 58 483 l 2,119,120
 58 482 58 482 56 458 c 1,121,-1
 58 437 l 1,122,-1
 58 414 l 1,123,-1
 68 389 l 1,124,-1
 74 365 l 1,125,-1
 87 345 l 1,126,127
 86 345 86 345 100 325 c 1,128,-1
 115 308 l 2,129,130
 116 308 116 308 132 289 c 1,131,-1
 153 275 l 1,132,133
 153 276 153 276 174 258 c 1,134,-1
 195 247 l 1,135,-1
 215 237 l 1,136,-1
 237 232 l 2,137,138
 271 226 271 226 277 223 c 0,139,140
 279 222 279 222 286 221 c 1,141,-1
 286 292 l 1,142,-1
 281 365 l 1,143,-1
 355 365 l 1,144,-1
 355 221 l 1,145,-1
 360 221 l 2,146,147
 365 221 365 221 384 225 c 0,148,149
 396 229 396 229 425 237 c 0,150,151
 426 234 426 234 447 247 c 2,152,-1
 468 260 l 2,153,154
 489 274 489 274 489 270 c 1,155,-1
 508 289 l 1,156,-1
 523 308 l 1,157,-1
 540 323 l 2,158,159
 543 323 543 323 553 344 c 2,160,-1
 565 365 l 2,161,162
 565 367 565 367 572 389 c 2,163,-1
 581 413 l 1,164,-1
 585 435 l 1,165,-1
 585 486 l 1,166,-1
 581 508 l 1,167,-1
 572 530 l 2,168,169
 572 531 572 531 571 534 c 0,170,171
 566 553 566 553 553 574 c 2,172,-1
 542 595 l 1,173,-1
 523 613 l 1,174,-1
 508 630 l 1,175,-1
 487 645 l 1,176,-1
 466 660 l 1,177,-1
 445 670 l 1,178,-1
 425 683 l 2,179,180
 424 683 424 683 397 689 c 2,181,-1
 372 698 l 2,182,183
 372 699 372 699 344 700 c 2,184,-1
 292 700 l 1,100,-1
EndSplineSet
EndChar

StartChar: W
Encoding: 87 87 27
Width: 640
VWidth: 1177
GlyphClass: 1
Flags: W
LayerCount: 2
Fore
SplineSet
323 462 m 1,0,1
 338 457 338 457 350 461 c 1,2,3
 350 460 350 460 381 459 c 1,4,-1
 413 448 l 2,5,6
 413 447 413 447 442 440 c 1,7,-1
 470 427 l 1,8,9
 467 427 467 427 500 414 c 1,10,-1
 525 394 l 2,11,12
 526 393 526 393 553 375 c 0,13,14
 553 372 553 372 574 354 c 1,15,-1
 593 331 l 1,16,17
 592 331 592 331 597 322 c 0,18,19
 608 303 608 303 625 277 c 1,20,21
 639 247 639 247 637 238 c 2,22,-1
 642 222 l 1,23,-1
 645 193 l 1,24,-1
 647 162 l 1,25,-1
 645 133 l 1,26,-1
 642 101 l 1,27,-1
 635 76 l 1,28,-1
 625 46 l 2,29,30
 624 46 624 46 607 22 c 2,31,-1
 593 -5 l 1,32,33
 594 -4 594 -4 589 -9 c 0,34,35
 574 -28 574 -28 550 -49 c 2,36,-1
 525 -69 l 2,37,38
 523 -72 523 -72 500 -88 c 1,39,-1
 470 -101 l 1,40,41
 471 -101 471 -101 445 -118 c 1,42,-1
 414 -124 l 2,43,44
 414 -126 414 -126 383 -133 c 1,45,-1
 350 -135 l 1,46,-1
 317 -139 l 1,47,-1
 285 -135 l 1,48,-1
 249 -133 l 1,49,-1
 221 -124 l 2,50,51
 219 -124 219 -124 216 -123 c 0,52,53
 191 -118 191 -118 163 -101 c 1,54,55
 163 -102 163 -102 132 -88 c 1,56,-1
 108 -69 l 2,57,58
 107 -69 107 -69 81 -52 c 1,59,-1
 61 -28 l 2,60,61
 35 0 35 0 26 19 c 1,62,-1
 26 22 l 1,63,64
 21 27 21 27 20 33 c 0,65,66
 18 38 18 38 11 48 c 2,67,-1
 0 76 l 1,68,-1
 -7 101 l 2,69,70
 -7 104 -7 104 -7 110 c 0,71,72
 -9 133 -9 133 -15 162 c 1,73,-1
 -11 193 l 1,74,-1
 -7 224 l 1,75,-1
 0 250 l 2,76,77
 0 251 0 251 5 262 c 0,78,79
 12 279 12 279 26 303 c 2,80,-1
 40 331 l 1,81,-1
 51 341 l 1,82,-1
 71 362 l 1,83,84
 71 361 71 361 74 365 c 0,85,86
 81 375 81 375 95 384 c 0,87,88
 110 394 110 394 132 414 c 1,89,-1
 158 425 l 2,90,91
 184 439 184 439 201 444 c 0,92,93
 204 445 204 445 217 448 c 2,94,-1
 249 459 l 1,95,-1
 285 461 l 2,96,97
 299 461 299 461 314 462 c 2,98,-1
 319 462 l 1,99,-1
 323 462 l 1,0,1
357 399 m 0,100,101
 353 399 353 399 353 329 c 2,102,-1
 353 255 l 1,103,-1
 317 255 l 1,104,-1
 281 255 l 1,105,-1
 281 329 l 2,106,107
 281 397 281 397 277 399 c 0,108,109
 273 397 273 397 265 396 c 0,110,111
 256 395 256 395 239 393 c 2,112,-1
 214 385 l 1,113,-1
 193 375 l 1,114,-1
 170 365 l 1,115,-1
 151 348 l 2,116,117
 126 331 126 331 115 315 c 0,118,119
 112 310 112 310 108 310 c 2,120,-1
 96 295 l 1,121,-1
 81 275 l 1,122,-1
 71 254 l 1,123,124
 38 156 38 156 38 155 c 1,125,-1
 56 208 l 1,126,127
 56 207 56 207 55 185 c 2,128,-1
 51 162 l 1,129,-1
 55 140 l 1,130,-1
 56 114 l 1,131,-1
 66 93 l 1,132,-1
 71 69 l 1,133,-1
 81 48 l 1,134,-1
 96 27 l 1,135,-1
 113 10 l 2,136,137
 114 9 114 9 129 -10 c 1,138,-1
 151 -24 l 1,139,140
 151 -21 151 -21 156 -26 c 0,141,142
 168 -38 168 -38 194 -50 c 0,143,144
 217 -61 217 -61 240 -67 c 2,145,-1
 265 -76 l 1,146,-1
 289 -78 l 2,147,148
 297 -79 297 -79 306 -79 c 0,149,150
 313 -79 313 -79 321 -78 c 0,151,152
 332 -77 332 -77 345 -78 c 2,153,-1
 365 -76 l 1,154,155
 365 -77 365 -77 366 -76 c 0,156,157
 371 -76 371 -76 393 -67 c 2,158,-1
 419 -60 l 1,159,-1
 442 -49 l 1,160,-1
 466 -38 l 1,161,-1
 485 -24 l 1,162,-1
 503 -10 l 1,163,-1
 521 10 l 1,164,-1
 537 27 l 1,165,166
 535 27 535 27 550 48 c 2,167,-1
 563 69 l 1,168,-1
 570 93 l 1,169,-1
 575 114 l 1,170,-1
 581 135 l 2,171,172
 583 148 583 148 583 161 c 128,-1,173
 583 174 583 174 581 187 c 2,174,-1
 575 210 l 1,175,-1
 570 230 l 2,176,177
 569 230 569 230 563 255 c 1,178,179
 564 255 564 255 550 277 c 2,180,-1
 540 295 l 1,181,-1
 521 314 l 2,182,183
 520 313 520 313 503 333 c 1,184,185
 503 332 503 332 497 335 c 0,186,187
 482 346 482 346 463 365 c 1,188,189
 463 362 463 362 440 375 c 2,190,-1
 419 385 l 2,191,192
 418 385 418 385 395 393 c 0,193,194
 358 399 358 399 357 399 c 0,100,101
EndSplineSet
EndChar

StartChar: X
Encoding: 88 88 28
Width: 348
VWidth: 1124
GlyphClass: 1
Flags: W
LayerCount: 2
Fore
SplineSet
35 605 m 1,0,-1
 63 604 l 1,1,-1
 89 585 l 1,2,-1
 115 572 l 1,3,-1
 137 545 l 1,4,-1
 160 523 l 1,5,-1
 166 508 l 1,6,7
 179 493 179 493 179 492 c 1,8,9
 184 499 184 499 186 508 c 2,10,-1
 196 523 l 1,11,-1
 219 545 l 1,12,-1
 240 572 l 1,13,14
 240 571 240 571 265 585 c 2,15,-1
 292 600 l 2,16,17
 296 602 296 602 325 605 c 1,18,-1
 355 614 l 1,19,-1
 355 553 l 1,20,21
 350 554 350 554 330 550 c 2,22,-1
 305 544 l 1,23,24
 305 545 305 545 285 532 c 2,25,-1
 261 521 l 2,26,27
 261 519 261 519 226 481 c 1,28,-1
 215 466 l 1,29,-1
 205 445 l 1,30,31
 210 437 210 437 213 432 c 0,32,33
 217 426 217 426 228 405 c 1,34,-1
 240 393 l 2,35,36
 244 389 244 389 246 386 c 0,37,38
 251 381 251 381 256 375 c 0,39,40
 266 366 266 366 278 360 c 0,41,42
 287 355 287 355 308 342 c 1,43,-1
 332 340 l 1,44,45
 349 334 349 334 356 334 c 2,46,-1
 360 334 l 1,47,-1
 360 302 l 2,48,49
 360 273 360 273 357 273 c 2,50,-1
 327 279 l 2,51,52
 300 284 300 284 299 286 c 128,-1,53
 298 288 298 288 270 300 c 1,54,55
 242 317 242 317 235 326 c 0,56,57
 230 331 230 331 214 349 c 2,58,-1
 200 363 l 1,59,-1
 189 383 l 2,60,61
 180 395 180 395 179 397 c 1,62,63
 172 390 172 390 172 390 c 2,64,65
 166 384 166 384 158 363 c 1,66,-1
 134 342 l 1,67,-1
 113 317 l 1,68,69
 113 318 113 318 87 300 c 1,70,-1
 60 287 l 1,71,72
 60 288 60 288 59 288 c 0,73,74
 54 288 54 288 30 279 c 1,75,-1
 0 274 l 1,76,-1
 0 334 l 1,77,-1
 4 334 l 2,78,79
 18 334 18 334 25 338 c 0,80,81
 30 340 30 340 37 342 c 0,82,83
 45 345 45 345 51 344 c 0,84,85
 56 344 56 344 58 346 c 0,86,87
 61 351 61 351 75 355 c 1,88,-1
 92 365 l 1,89,90
 120 393 120 393 142 430 c 0,91,92
 149 442 149 442 151 442 c 0,93,94
 152 442 152 442 153 445 c 2,95,-1
 142 460 l 2,96,97
 127 484 127 484 123 487 c 0,98,99
 121 489 121 489 122 491 c 0,100,101
 123 495 123 495 113 503 c 2,102,-1
 96 521 l 2,103,104
 98 524 98 524 75 532 c 1,105,106
 56 546 56 546 46 545 c 0,107,108
 41 545 41 545 26 550 c 2,109,-1
 4 553 l 1,110,-1
 2 349 l 1,111,-1
 4 614 l 1,112,113
 20 610 20 610 35 605 c 1,0,-1
EndSplineSet
EndChar

StartChar: Y
Encoding: 89 89 29
Width: 335
VWidth: 1173
GlyphClass: 1
Flags: W
LayerCount: 2
Fore
SplineSet
-5 305 m 0,0,1
 -5 334 -5 334 25 334 c 0,2,3
 29 334 29 334 32 333 c 0,4,5
 47 331 47 331 61 327 c 0,6,7
 98 315 98 315 120 286 c 0,8,9
 125 280 125 280 135 268 c 0,10,11
 158 240 158 240 168 225 c 1,12,13
 182 240 182 240 183 242 c 0,14,15
 183 244 183 244 193 258 c 2,16,-1
 214 283 l 2,17,18
 251 327 251 327 298 333 c 0,19,20
 307 335 307 335 319 334 c 0,21,22
 324 334 324 334 333 334 c 2,23,-1
 342 333 l 2,24,25
 343 333 343 333 343 316.5 c 128,-1,26
 343 300 343 300 340 274 c 1,27,-1
 321 274 l 2,28,29
 301 274 301 274 293 270 c 0,30,31
 283 266 283 266 271 254 c 0,32,33
 264 244 264 244 245 226 c 1,34,-1
 235 205 l 1,35,-1
 224 185 l 1,36,37
 225 186 225 186 215 161 c 0,38,39
 204 136 204 136 204 133 c 0,40,41
 204 131 204 131 200 122 c 0,42,43
 197 115 197 115 195 108 c 0,44,45
 190 91 190 91 185 81 c 2,46,-1
 168 44 l 1,47,48
 154 74 154 74 145 107 c 0,49,50
 140 126 140 126 135 133 c 0,51,52
 131 139 131 139 123 163 c 2,53,-1
 115 185 l 1,54,-1
 104 205 l 1,55,-1
 92 226 l 2,56,57
 92 227 92 227 82 238 c 0,58,59
 57 269 57 269 40 272 c 0,60,61
 34 274 34 274 15 274 c 2,62,-1
 -4 274 l 2,63,64
 -5 274 -5 274 -5 291 c 0,65,66
 -5 302 -5 302 -5 305 c 0,0,1
-4 231 m 0,67,68
 -5 281 -5 281 -5 287 c 1,69,70
 -3 184 -3 184 -3 185 c 128,-1,71
 -3 186 -3 186 -4 231 c 0,67,68
EndSplineSet
EndChar

StartChar: Z
Encoding: 90 90 30
Width: 953
VWidth: 1188
GlyphClass: 1
Flags: W
LayerCount: 2
Fore
SplineSet
623 342 m 2,0,1
 638 339 638 339 648 339 c 0,2,3
 653 339 653 339 655 340 c 2,4,-1
 668 340 l 1,5,-1
 687 337 l 1,6,-1
 719 329 l 2,7,8
 720 329 720 329 728 326 c 0,9,10
 751 319 751 319 762 311 c 0,11,12
 776 302 776 302 807 289 c 1,13,-1
 832 274 l 2,14,15
 837 269 837 269 844 265 c 0,16,17
 858 259 858 259 858 249 c 0,18,19
 861 245 861 245 866 245 c 0,20,21
 874 238 874 238 876 233 c 0,22,23
 880 227 880 227 886 220 c 0,24,25
 900 206 900 206 913 185 c 2,26,-1
 930 155 l 1,27,-1
 934 139 l 2,28,29
 939 124 939 124 941 117 c 0,30,31
 949 96 949 96 955 47 c 1,32,-1
 955 -61 l 1,33,-1
 955 -134 l 1,34,-1
 921 -134 l 1,35,-1
 889 -134 l 1,36,-1
 889 47 l 1,37,-1
 887 68 l 1,38,-1
 881 87 l 2,39,40
 882 88 882 88 876 111 c 1,41,42
 878 111 878 111 868 132 c 2,43,-1
 858 153 l 1,44,-1
 845 174 l 1,45,-1
 828 193 l 1,46,-1
 808 214 l 1,47,48
 794 221 794 221 785 229 c 0,49,50
 773 238 773 238 750 253 c 1,51,-1
 724 263 l 1,52,53
 725 263 725 263 700 270 c 2,54,-1
 677 277 l 2,55,56
 677 278 677 278 666 278 c 0,57,58
 649 279 649 279 637 280 c 0,59,60
 632 281 632 281 624 282 c 0,61,62
 612 282 612 282 597 279 c 2,63,-1
 572 277 l 1,64,-1
 545 270 l 2,65,66
 543 271 543 271 521 263 c 2,67,-1
 498 253 l 1,68,-1
 477 240 l 1,69,70
 478 240 478 240 472 237 c 0,71,72
 455 226 455 226 437 213 c 2,73,-1
 417 193 l 1,74,75
 417 194 417 194 404 174 c 2,76,-1
 393 153 l 1,77,-1
 379 132 l 1,78,-1
 372 111 l 1,79,-1
 363 87 l 1,80,-1
 359 37 l 2,81,82
 359 28 359 28 360 19 c 2,83,-1
 360 -4 l 1,84,-1
 292 -4 l 1,85,86
 292 -3 292 -3 248 46 c 0,87,88
 174 130 174 130 58 263 c 1,89,-1
 58 47 l 1,90,-1
 58 -134 l 1,91,-1
 26 -134 l 1,92,-1
 -5 -134 l 1,93,-1
 -5 340 l 1,94,-1
 58 340 l 1,95,96
 57 337 57 337 206 171 c 0,97,98
 294 72 294 72 296 68 c 1,99,100
 296 75 296 75 297 79 c 0,101,102
 299 84 299 84 300 98 c 2,103,-1
 308 125 l 1,104,-1
 317 155 l 1,105,106
 315 155 315 155 332 185 c 2,107,-1
 345 207 l 1,108,109
 344 207 344 207 368 230 c 2,110,-1
 387 253 l 1,111,-1
 415 274 l 1,112,-1
 440 289 l 2,113,114
 442 288 442 288 468 303 c 2,115,-1
 498 319 l 1,116,-1
 528 326 l 1,117,-1
 558 334 l 2,118,119
 558 335 558 335 589 340 c 1,120,-1
 623 342 l 2,0,1
EndSplineSet
EndChar

StartChar: a
Encoding: 97 97 31
Width: 177
VWidth: 1114
GlyphClass: 1
Flags: W
LayerCount: 2
Fore
SplineSet
71 615 m 0,0,1
 79 618 79 618 89 615 c 0,2,3
 106 614 106 614 119 607 c 0,4,5
 133 602 133 602 135 602 c 0,6,7
 141 600 141 600 151 593 c 0,8,9
 186 568 186 568 191 521 c 0,10,11
 192 518 192 518 192 514 c 0,12,13
 192 481 192 481 172 458 c 0,14,15
 145 432 145 432 107 420 c 0,16,17
 92 415 92 415 84 415 c 2,18,-1
 71 415 l 1,19,20
 32 419 32 419 5 445 c 0,21,22
 -27 471 -27 471 -26 508 c 2,23,-1
 -26 525 l 1,24,25
 -21 565 -21 565 10 590 c 0,26,27
 36 611 36 611 71 615 c 0,0,1
74 554 m 0,28,29
 48 549 48 549 39 531 c 0,30,31
 34 521 34 521 37 513 c 0,32,33
 36 485 36 485 71 479 c 0,34,35
 76 475 76 475 84 476 c 0,36,37
 108 477 108 477 120 496 c 0,38,39
 126 506 126 506 126 515 c 0,40,41
 126 523 126 523 123 532 c 0,42,43
 117 547 117 547 101 552 c 0,44,45
 89 557 89 557 74 554 c 0,28,29
EndSplineSet
EndChar

StartChar: b
Encoding: 98 98 32
Width: 272
VWidth: 1111
GlyphClass: 1
Flags: W
LayerCount: 2
Fore
SplineSet
47 747 m 2,0,-1
 77 744 l 1,1,2
 74 744 74 744 90 740 c 0,3,4
 100 737 100 737 125 732 c 1,5,-1
 151 721 l 1,6,-1
 172 711 l 1,7,-1
 192 696 l 1,8,9
 192 698 192 698 213 679 c 1,10,11
 211 679 211 679 226 660 c 2,12,-1
 242 645 l 1,13,-1
 249 628 l 1,14,15
 263 609 263 609 275 581 c 1,16,-1
 281 560 l 1,17,-1
 285 537 l 2,18,19
 289 513 289 513 288 512 c 128,-1,20
 287 511 287 511 285 487 c 2,21,-1
 281 466 l 1,22,-1
 275 445 l 2,23,24
 274 445 274 445 268 421 c 1,25,-1
 256 400 l 1,26,-1
 242 381 l 1,27,28
 241 383 241 383 226 363 c 2,29,-1
 211 344 l 1,30,-1
 192 332 l 1,31,-1
 172 314 l 1,32,-1
 149 305 l 1,33,-1
 125 292 l 2,34,35
 124 292 124 292 100 287 c 1,36,-1
 77 279 l 1,37,-1
 51 279 l 1,38,39
 25 275 25 275 15 275 c 2,40,-1
 -14 275 l 1,41,-1
 -11 305 l 1,42,-1
 -11 334 l 1,43,-1
 0 334 l 2,44,45
 11 334 11 334 45 337 c 2,46,-1
 63 340 l 1,47,-1
 81 342 l 1,48,49
 155 361 155 361 191 419 c 0,50,51
 196 429 196 429 205 445 c 2,52,-1
 213 460 l 2,53,54
 215 460 215 460 215 477 c 2,55,-1
 217 495 l 1,56,-1
 217 514 l 2,57,58
 217 533 217 533 215 550 c 2,59,-1
 211 565 l 2,60,61
 197 602 197 602 169 632 c 0,62,63
 159 642 159 642 154 645 c 0,64,65
 149 648 149 648 145 652 c 0,66,67
 137 661 137 661 119 668 c 2,68,-1
 98 677 l 1,69,70
 98 675 98 675 83 679 c 0,71,72
 50 687 50 687 14 689 c 2,73,-1
 -11 689 l 1,74,-1
 -11 750 l 2,75,76
 -11 753 -11 753 -1 753 c 0,77,78
 12 752 12 752 47 747 c 2,0,-1
EndSplineSet
EndChar

StartChar: c
Encoding: 99 99 33
Width: 657
VWidth: 1150
GlyphClass: 1
Flags: W
LayerCount: 2
Fore
SplineSet
342 349 m 1,0,1
 356 344 356 344 366 344 c 2,2,-1
 397 342 l 1,3,-1
 428 332 l 1,4,-1
 458 325 l 1,5,-1
 489 311 l 1,6,-1
 517 298 l 2,7,8
 517 297 517 297 525 293 c 0,9,10
 544 277 544 277 553 271 c 0,11,12
 568 263 568 263 589 237 c 2,13,-1
 607 214 l 2,14,15
 607 213 607 213 625 186 c 2,16,-1
 639 163 l 1,17,-1
 645 147 l 2,18,19
 650 130 650 130 653 124 c 0,20,21
 658 109 658 109 658 95 c 2,22,-1
 661 66 l 2,23,24
 663 51 663 51 665 26 c 2,25,-1
 665 5 l 1,26,27
 394 3 394 3 377 4 c 2,28,-1
 376 4 l 1,29,-1
 597 5 l 1,30,-1
 597 71 l 1,31,32
 599 71 599 71 595 95 c 1,33,-1
 585 119 l 1,34,35
 585 118 585 118 577 142 c 1,36,-1
 565 161 l 1,37,38
 566 161 566 161 553 183 c 1,39,40
 553 182 553 182 542 193 c 0,41,42
 514 220 514 220 511 226 c 0,43,44
 483 250 483 250 458 260 c 2,45,-1
 437 268 l 1,46,-1
 411 277 l 1,47,48
 413 277 413 277 385 283 c 2,49,-1
 361 287 l 1,50,-1
 334 289 l 1,51,-1
 307 287 l 1,52,-1
 281 283 l 1,53,-1
 258 277 l 2,54,55
 258 276 258 276 230 268 c 2,56,-1
 207 260 l 2,57,58
 206 257 206 257 197 253 c 0,59,60
 183 248 183 248 165 235 c 2,61,-1
 145 217 l 2,62,63
 145 216 145 216 129 197 c 2,64,-1
 113 183 l 2,65,66
 110 183 110 183 100 160 c 2,67,-1
 89 140 l 2,68,69
 88 140 88 140 81 119 c 2,70,-1
 72 95 l 1,71,-1
 71 75 l 2,72,73
 69 40 69 40 68 32 c 2,74,-1
 68 5 l 1,75,-1
 37 5 l 1,76,-1
 4 5 l 1,77,-1
 4 26 l 2,78,79
 5 33 5 33 5 77 c 2,80,-1
 7 107 l 1,81,-1
 17 134 l 2,82,83
 18 134 18 134 26 163 c 1,84,85
 26 162 26 162 42 186 c 2,86,-1
 58 214 l 2,87,88
 58 215 58 215 79 237 c 2,89,-1
 100 260 l 2,90,91
 100 263 100 263 123 279 c 2,92,-1
 149 298 l 1,93,94
 149 297 149 297 169 307 c 0,95,96
 179 312 179 312 189 316 c 0,97,98
 208 323 208 323 237 332 c 2,99,-1
 268 342 l 1,100,-1
 300 344 l 2,101,102
 305 344 305 344 330 349 c 1,103,-1
 334 349 l 1,104,-1
 342 349 l 1,0,1
EndSplineSet
EndChar

StartChar: d
Encoding: 100 100 34
Width: 250
VWidth: 1111
GlyphClass: 1
Flags: W
LayerCount: 2
Fore
SplineSet
-1029 -149 m 1024,0,-1
34 555 m 1,1,-1
 26 521 l 1,2,-1
 32 477 l 1,3,4
 31 477 31 477 37 460 c 2,5,-1
 42 445 l 1,6,-1
 49 428 l 2,7,8
 63 402 63 402 105 372 c 0,9,10
 120 361 120 361 132 355 c 2,11,-1
 147 349 l 1,12,-1
 165 342 l 1,13,14
 164 343 164 343 185 340 c 2,15,-1
 204 337 l 2,16,17
 239 333 239 333 240 334 c 2,18,-1
 258 334 l 1,19,-1
 258 321 l 1,20,21
 260 321 260 321 259.5 313.5 c 128,-1,22
 259 306 259 306 258 292 c 2,23,-1
 258 275 l 1,24,-1
 239 275 l 2,25,26
 205 276 205 276 195 279 c 2,27,-1
 172 279 l 1,28,-1
 145 287 l 2,29,30
 144 286 144 286 121 292 c 1,31,-1
 98 305 l 1,32,-1
 77 315 l 1,33,-1
 56 330 l 1,34,-1
 37 342 l 1,35,-1
 19 363 l 1,36,37
 20 363 20 363 5 383 c 2,38,-1
 -7 404 l 1,39,-1
 -19 421 l 2,40,41
 -20 421 -20 421 -23 432 c 0,42,43
 -27 446 -27 446 -29 452 c 0,44,45
 -34 467 -34 467 -37 489 c 2,46,-1
 -40 511 l 1,47,48
 -39 511 -39 511 -37 532 c 0,49,50
 -37 535 -37 535 -37 535 c 0,51,52
 -35 560 -35 560 -26 581 c 2,53,-1
 -19 604 l 1,54,-1
 -7 625 l 1,55,-1
 5 645 l 1,56,-1
 19 660 l 2,57,58
 33 675 33 675 35 679 c 0,59,60
 41 685 41 685 50 691 c 0,61,62
 58 696 58 696 77 711 c 1,63,-1
 100 721 l 1,64,65
 100 718 100 718 121 732 c 1,66,-1
 145 740 l 1,67,-1
 172 744 l 2,68,69
 173 744 173 744 183 745 c 0,70,71
 221 750 221 750 235 751 c 2,72,-1
 239 751 l 1,73,-1
 258 751 l 2,74,75
 261 751 261 751 258 737 c 2,76,-1
 258 689 l 1,77,-1
 204 689 l 2,78,79
 201 689 201 689 185 686 c 2,80,-1
 165 681 l 1,81,-1
 151 677 l 1,82,83
 152 676 152 676 132 668 c 0,84,85
 100 650 100 650 89 642 c 0,86,87
 82 637 82 637 77 632 c 0,88,89
 65 621 65 621 49 597 c 1,90,-1
 42 581 l 1,91,-1
 34 555 l 1,1,-1
EndSplineSet
EndChar

StartChar: e
Encoding: 101 101 35
Width: 213
VWidth: 1151
GlyphClass: 1
Flags: W
LayerCount: 2
Fore
SplineSet
97 392 m 0,0,1
 109 394 109 394 119 392 c 0,2,3
 136 392 136 392 156 383 c 0,4,5
 158 382 158 382 162 378 c 0,6,7
 169 373 169 373 177 368 c 0,8,9
 212 343 212 343 217 301 c 0,10,11
 218 295 218 295 217 289 c 0,12,13
 216 259 216 259 195 235 c 0,14,15
 168 204 168 204 124 195 c 0,16,17
 114 193 114 193 103 193 c 0,18,19
 67 194 67 194 37 215 c 0,20,21
 0 249 0 249 0 286 c 0,22,23
 0 294 0 294 1 300 c 0,24,25
 7 344 7 344 41 369 c 0,26,27
 65 388 65 388 97 392 c 0,0,1
101 331 m 0,28,29
 75 326 75 326 66 304 c 0,30,31
 64 297 64 297 65 290 c 0,32,33
 66 261 66 261 98 256 c 0,34,35
 105 252 105 252 111 251 c 0,36,37
 137 251 137 251 148 274 c 0,38,39
 153 283 153 283 153 292 c 0,40,41
 153 302 153 302 149 310 c 0,42,43
 143 324 143 324 128 329 c 0,44,45
 116 334 116 334 101 331 c 0,28,29
EndSplineSet
EndChar

StartChar: f
Encoding: 102 102 36
Width: 600
VWidth: 1216
GlyphClass: 1
Flags: W
LayerCount: 2
Fore
SplineSet
4 -139 m 2,0,-1
 -5 -139 l 1,1,-1
 -5 -111 l 1,2,-1
 -5 -79 l 1,3,-1
 -2 -79 l 1,4,-1
 4 -79 l 2,5,6
 8 -79 8 -79 14 -76 c 0,7,8
 35 -66 35 -66 39 -36 c 0,9,10
 40 -31 40 -31 40 -35 c 1,11,12
 54 60 54 60 148 60 c 2,13,-1
 161 60 l 1,14,15
 196 56 196 56 219 37 c 0,16,17
 256 11 256 11 258 -34 c 0,18,19
 262 -53 262 -53 266 -60 c 0,20,21
 274 -81 274 -81 304 -80 c 0,22,23
 311 -80 311 -80 319 -78 c 0,24,25
 344 -71 344 -71 347 -44 c 2,26,-1
 349 -28 l 2,27,28
 354 17 354 17 390 41 c 0,29,30
 418 60 418 60 458 60 c 1,31,32
 458 59 458 59 467 58 c 0,33,34
 507 55 507 55 541 15 c 0,35,36
 552 2 552 2 556 -7 c 0,37,38
 573 -68 573 -68 585 -75 c 0,39,40
 590 -78 590 -78 607 -77 c 1,41,-1
 611 -79 l 1,42,-1
 611 -111 l 1,43,-1
 611 -139 l 1,44,45
 596 -141 596 -141 597 -140 c 1,46,-1
 593 -140 l 1,47,-1
 592 -140 l 2,48,49
 578 -140 578 -140 553 -129 c 0,50,51
 508 -105 508 -105 500 -44 c 1,52,53
 495 -39 495 -39 500 -26 c 1,54,55
 495 -9 495 -9 474 -1 c 0,56,57
 465 3 465 3 456.5 3 c 128,-1,58
 448 3 448 3 441 -1 c 0,59,60
 421 -7 421 -7 415 -26 c 1,61,62
 415 -44 415 -44 409 -64 c 0,63,64
 389 -121 389 -121 325 -137 c 0,65,66
 310 -141 310 -141 295 -140 c 2,67,-1
 270 -134 l 2,68,69
 202 -117 202 -117 195 -45 c 1,70,71
 195 -8 195 -8 164 1 c 0,72,73
 159 3 159 3 154 3 c 0,74,75
 146 3 146 3 137 -1 c 0,76,77
 115 -7 115 -7 107 -26 c 0,78,79
 108 -31 108 -31 107 -35 c 0,80,81
 107 -54 107 -54 100 -68 c 0,82,83
 84 -117 84 -117 19 -137 c 0,84,85
 13 -139 13 -139 14 -137 c 1,86,87
 9 -137 9 -137 4 -139 c 2,0,-1
EndSplineSet
EndChar

StartChar: g
Encoding: 103 103 37
Width: 593
VWidth: 1167
GlyphClass: 1
Flags: W
LayerCount: 2
Fore
SplineSet
253 247 m 2,0,-1
 250 234 l 2,1,2
 247 219 247 219 245 211 c 0,3,4
 235 176 235 176 205 155 c 0,5,6
 178 135 178 135 145 135 c 2,7,-1
 139 135 l 2,8,9
 134 135 134 135 123 138 c 0,10,11
 45 161 45 161 35 229 c 0,12,13
 30 263 30 263 -2 275 c 0,14,15
 -6 276 -6 276 -7 276 c 0,16,17
 -12 277 -12 277 -13.5 279 c 128,-1,18
 -15 281 -15 281 -15 295.5 c 128,-1,19
 -15 310 -15 310 -14 334 c 1,20,-1
 -8 334 l 1,21,-1
 -5 334 l 2,22,23
 0 332 0 332 6 332 c 0,24,25
 21 332 21 332 37 321 c 0,26,27
 90 295 90 295 96 235 c 0,28,29
 98 220 98 220 105 210 c 0,30,31
 116 195 116 195 139 195 c 2,32,33
 139 195 139 195 140 195 c 0,34,35
 180 195 180 195 185 243 c 0,36,37
 190 286 190 286 229 313 c 0,38,39
 260 334 260 334 295 334 c 2,40,-1
 307 334 l 1,41,42
 342 330 342 330 363 311 c 0,43,44
 397 285 397 285 403 242 c 0,45,46
 406 218 406 218 417 205 c 0,47,48
 425 197 425 197 439 195 c 0,49,50
 453 191 453 191 461 196 c 0,51,52
 489 203 489 203 494 244 c 0,53,54
 499 285 499 285 533 311 c 0,55,56
 560 332 560 332 593 334 c 2,57,-1
 602 334 l 1,58,59
 604 320 604 320 604 305 c 2,60,-1
 604 277 l 1,61,-1
 600 277 l 1,62,-1
 597 277 l 2,63,64
 592 276 592 276 577 268 c 0,65,66
 562 256 562 256 560 247 c 2,67,-1
 558 230 l 2,68,69
 559 215 559 215 553 205 c 0,70,71
 529 142 529 142 459 135 c 0,72,73
 453 134 453 134 446 135 c 0,74,75
 411 135 411 135 385 155 c 0,76,77
 355 180 355 180 345 210 c 0,78,79
 342 219 342 219 341 230 c 0,80,81
 335 276 335 276 303 277 c 0,82,83
 289 277 289 277 275 270 c 0,84,85
 258 261 258 261 253 247 c 2,0,-1
EndSplineSet
EndChar

StartChar: h
Encoding: 104 104 38
Width: 593
VWidth: 1085
GlyphClass: 1
Flags: W
LayerCount: 2
Fore
SplineSet
146 611 m 0,0,1
 172 611 172 611 185 639 c 1,2,3
 185 697 185 697 226 730 c 0,4,5
 254 753 254 753 287 753 c 2,6,-1
 300 753 l 1,7,8
 339 748 339 748 366 726 c 0,9,10
 397 702 397 702 403 661 c 0,11,12
 406 633 406 633 423 618 c 0,13,14
 432 611 432 611 439 611 c 2,15,-1
 450 611 l 2,16,17
 461 611 461 611 472 617 c 0,18,19
 492 629 492 629 495 665 c 0,20,21
 496 672 496 672 499 683 c 0,22,23
 516 739 516 739 593 751 c 1,24,-1
 604 751 l 1,25,-1
 604 721 l 1,26,-1
 604 692 l 1,27,-1
 602 692 l 1,28,-1
 600 692 l 2,29,30
 598 690 598 690 596 689 c 0,31,32
 592 689 592 689 586 686 c 0,33,34
 563 676 563 676 560 660 c 2,35,-1
 558 645 l 2,36,37
 553 601 553 601 519 575 c 0,38,39
 491 552 491 552 455 553 c 2,40,-1
 449 553 l 2,41,42
 444 556 444 556 437 553 c 0,43,44
 369 558 369 558 346 615 c 0,45,46
 341 630 341 630 340 649 c 0,47,48
 339 664 339 664 335 671 c 0,49,50
 330 679 330 679 321 685 c 0,51,52
 309 691 309 691 295 691 c 0,53,54
 267 689 267 689 253 660 c 1,55,-1
 250 644 l 2,56,57
 247 629 247 629 245 615 c 0,58,59
 231 580 231 580 187 560 c 0,60,61
 172 553 172 553 156 552 c 0,62,63
 152 552 152 552 146 552 c 0,64,65
 63 553 63 553 38 624 c 0,66,67
 33 638 33 638 33 647 c 0,68,69
 33 650 33 650 33 655 c 0,70,71
 30 677 30 677 13 687 c 0,72,73
 3 692 3 692 -5 690 c 0,74,75
 -11 687 -11 687 -14 695 c 2,76,-1
 -14 753 l 1,77,-1
 -8 753 l 1,78,-1
 -5 753 l 2,79,80
 0 751 0 751 3 751 c 0,81,82
 8 751 8 751 17 744 c 1,83,84
 85 726 85 726 97 658 c 0,85,86
 101 633 101 633 115 622 c 0,87,88
 127 611 127 611 146 611 c 0,0,1
EndSplineSet
EndChar

StartChar: i
Encoding: 105 105 39
Width: 177
VWidth: 1082
GlyphClass: 1
Flags: W
LayerCount: 2
Fore
SplineSet
5 794 m 0,0,1
 33 816 33 816 65 815 c 0,2,3
 73 815 73 815 81 814 c 2,4,-1
 92 814 l 1,5,6
 118 810 118 810 142 794 c 0,7,8
 182 766 182 766 183 722 c 2,9,-1
 183 708 l 1,10,11
 179 680 179 680 160 655 c 0,12,13
 134 627 134 627 95 619 c 0,14,15
 82 616 82 616 68 615 c 0,16,17
 28 615 28 615 -3 645 c 0,18,19
 -34 674 -34 674 -35 713 c 2,20,-1
 -35 724 l 1,21,22
 -30 766 -30 766 5 794 c 0,0,1
34 732 m 0,23,24
 31 726 31 726 31 720 c 0,25,26
 31 713 31 713 33 705 c 0,27,28
 39 683 39 683 56 678 c 0,29,30
 64 675 64 675 74 676 c 0,31,32
 103 677 103 677 114 698 c 0,33,34
 119 706 119 706 118 720 c 0,35,36
 118 743 118 743 95 753 c 0,37,38
 87 757 87 757 75 756 c 0,39,40
 44 757 44 757 34 732 c 0,23,24
EndSplineSet
EndChar

StartChar: j
Encoding: 106 106 40
Width: 640
VWidth: 1190
GlyphClass: 1
Flags: W
LayerCount: 2
Fore
SplineSet
642 300 m 1,0,-1
 642 270 l 1,1,-1
 605 270 l 2,2,3
 568 270 568 270 562 269 c 0,4,5
 555 268 555 268 550 260 c 0,6,7
 545 255 545 255 307 50 c 0,8,9
 119 -113 119 -113 103 -125 c 0,10,11
 83 -140 83 -140 26 -140 c 2,12,-1
 14 -140 l 1,13,-1
 -15 -140 l 1,14,-1
 -15 -81 l 1,15,-1
 19 -79 l 2,16,17
 58 -79 58 -79 68 -75 c 0,18,19
 79 -70 79 -70 144 -11 c 2,20,-1
 165 7 l 2,21,22
 183 25 183 25 205 43 c 0,23,24
 225 58 225 58 230 65 c 2,25,-1
 245 77 l 2,26,27
 259 84 259 84 261 88 c 0,28,29
 263 91 263 91 285 110 c 0,30,31
 319 139 319 139 324 146 c 0,32,33
 326 150 326 150 335.5 156.5 c 128,-1,34
 345 163 345 163 359 178 c 0,35,36
 363 182 363 182 365 184 c 0,37,38
 375 194 375 194 383 195 c 1,39,40
 388 200 388 200 386 201 c 0,41,42
 386 205 386 205 415 228 c 0,43,44
 492 299 492 299 519 315 c 0,45,46
 530 321 530 321 541 325 c 0,47,48
 564 332 564 332 604 332 c 2,49,-1
 639 332 l 1,50,-1
 642 300 l 1,0,-1
EndSplineSet
EndChar

StartChar: k
Encoding: 107 107 41
Width: 630
VWidth: 1111
GlyphClass: 1
Flags: W
LayerCount: 2
Fore
SplineSet
65 751 m 1,0,1
 99 746 99 746 120 728 c 0,2,3
 143 709 143 709 351 525 c 0,4,5
 557 342 557 342 571 340 c 0,6,7
 573 339 573 339 585 340 c 2,8,-1
 607 340 l 1,9,-1
 645 340 l 1,10,-1
 645 308 l 1,11,-1
 645 279 l 1,12,-1
 614 279 l 1,13,-1
 604 279 l 2,14,15
 542 279 542 279 519 296 c 0,16,17
 505 302 505 302 500 311 c 0,18,19
 465 341 465 341 197 576 c 0,20,21
 94 666 94 666 87 674 c 0,22,23
 70 690 70 690 29 689 c 2,24,-1
 -14 689 l 1,25,-1
 -14 721 l 1,26,-1
 -14 751 l 1,27,-1
 65 751 l 1,0,1
EndSplineSet
EndChar

StartChar: l
Encoding: 108 108 42
Width: 627
VWidth: 1148
GlyphClass: 1
Flags: W
LayerCount: 2
Fore
SplineSet
637 308 m 1,0,-1
 637 277 l 1,1,-1
 311 277 l 1,2,-1
 -14 277 l 1,3,-1
 -14 308 l 1,4,-1
 -14 337 l 1,5,-1
 637 337 l 1,6,-1
 637 308 l 1,0,-1
EndSplineSet
EndChar

StartChar: m
Encoding: 109 109 43
Width: 638
VWidth: 1111
GlyphClass: 1
Flags: W
LayerCount: 2
Fore
SplineSet
419 645 m 0,0,1
 534 741 534 741 563 746 c 0,2,3
 570 748 570 748 614 750 c 2,4,-1
 647 750 l 1,5,-1
 647 689 l 1,6,-1
 614 689 l 2,7,8
 567 689 567 689 555 680 c 0,9,10
 553 678 553 678 548 674 c 0,11,12
 530 658 530 658 455 591 c 0,13,14
 232 393 232 393 177 348 c 0,15,16
 151 326 151 326 135 312 c 0,17,18
 110 287 110 287 92 283 c 0,19,20
 77 279 77 279 34 279 c 2,21,-1
 24 279 l 1,22,-1
 -8 279 l 1,23,-1
 -8 308 l 1,24,-1
 -8 340 l 1,25,-1
 37 340 l 2,26,27
 75 340 75 340 85 349 c 2,28,-1
 134 393 l 2,29,30
 300 545 300 545 419 645 c 0,0,1
EndSplineSet
EndChar

StartChar: n
Encoding: 110 110 44
Width: 642
VWidth: 1190
GlyphClass: 1
Flags: W
LayerCount: 2
Fore
SplineSet
122 315 m 0,0,1
 145 300 145 300 306 157 c 0,2,3
 330 136 330 136 335 132 c 0,4,5
 370 100 370 100 441 37 c 0,6,7
 556 -68 556 -68 561 -68 c 0,8,9
 569 -75 569 -75 589 -77 c 2,10,-1
 655 -77 l 1,11,-1
 655 -108 l 1,12,-1
 655 -139 l 1,13,-1
 623 -139 l 2,14,15
 579 -139 579 -139 556 -131 c 0,16,17
 541 -126 541 -126 519 -113 c 1,18,-1
 349 37 l 2,19,20
 332 52 332 52 322 59 c 0,21,22
 311 66 311 66 295 81 c 2,23,-1
 272 102 l 2,24,25
 243 128 243 128 207 159 c 0,26,27
 150 208 150 208 131 228 c 0,28,29
 121 239 121 239 111 248 c 0,30,31
 81 273 81 273 60 274 c 2,32,-1
 -3 274 l 1,33,34
 -3 300 -3 300 -4 334 c 1,35,-1
 29 334 l 2,36,37
 61 334 61 334 75 332 c 0,38,39
 102 329 102 329 122 315 c 0,0,1
-3 274 m 1,40,-1
 -4 274 l 1,41,42
 -3 181 -3 181 -3 181 c 129,-1,43
 -3 181 -3 181 -2 185 c 0,44,45
 -2 199 -2 199 -3 274 c 1,40,-1
EndSplineSet
EndChar

StartChar: o
Encoding: 111 111 45
Width: 211
VWidth: 1190
GlyphClass: 1
Flags: W
LayerCount: 2
Fore
SplineSet
123 196 m 1,0,1
 160 191 160 191 186 169 c 0,2,3
 216 144 216 144 217 111 c 2,4,-1
 217 100 l 2,5,6
 217 40 217 40 156 12 c 0,7,8
 136 2 136 2 123 2 c 2,9,-1
 105 2 l 2,10,11
 65 2 65 2 30 30 c 1,12,13
 4 56 4 56 2 89 c 2,14,-1
 2 100 l 2,15,16
 2 134 2 134 23 159 c 0,17,18
 53 196 53 196 105 196 c 2,19,-1
 123 196 l 1,0,1
153 113 m 0,20,21
 145 133 145 133 122 140 c 0,22,23
 114 143 114 143 106 143 c 0,24,25
 93 143 93 143 81 131 c 0,26,27
 66 117 66 117 66 98 c 0,28,29
 66 72 66 72 93 62 c 0,30,31
 102 58 102 58 112 58 c 0,32,33
 142 58 142 58 152 89 c 0,34,35
 158 106 158 106 153 113 c 0,20,21
EndSplineSet
EndChar

StartChar: p
Encoding: 112 112 46
Width: 203
VWidth: 1190
GlyphClass: 1
Flags: W
LayerCount: 2
Fore
SplineSet
-7 274 m 1,0,-1
 -61 279 l 1,1,-1
 -79 279 l 1,2,3
 -81 293 -81 293 -81 308 c 2,4,-1
 -81 337 l 1,5,-1
 -60 337 l 2,6,7
 -57 337 -57 337 -45 335 c 0,8,9
 -17 332 -17 332 7 332 c 1,10,-1
 32 326 l 1,11,-1
 55 319 l 1,12,-1
 79 308 l 1,13,-1
 102 296 l 2,14,15
 103 296 103 296 121 281 c 1,16,17
 139 271 139 271 145 263 c 0,18,19
 147 260 147 260 148 259 c 0,20,21
 151 257 151 257 154 254 c 0,22,23
 159 248 159 248 161 247 c 2,24,-1
 174 232 l 1,25,-1
 184 211 l 1,26,-1
 198 189 l 2,27,28
 199 189 199 189 205 166 c 2,29,-1
 212 140 l 2,30,31
 216 135 216 135 215 100 c 2,32,-1
 215 74 l 1,33,-1
 214 51 l 2,34,35
 211 44 211 44 205 32 c 2,36,-1
 198 8 l 1,37,38
 199 8 199 8 184 -14 c 1,39,-1
 174 -34 l 2,40,41
 173 -36 173 -36 157 -49 c 2,42,-1
 142 -68 l 2,43,44
 141 -69 141 -69 138 -71 c 0,45,46
 121 -82 121 -82 113 -88 c 0,47,48
 102 -98 102 -98 79 -108 c 2,49,-1
 55 -119 l 1,50,-1
 32 -125 l 2,51,52
 -8 -133 -8 -133 -61 -137 c 1,53,-1
 -81 -137 l 1,54,-1
 -81 -108 l 2,55,56
 -81 -107 -81 -107 -79 -79 c 1,57,58
 -74 -77 -74 -77 -58 -78 c 0,59,60
 -51 -79 -51 -79 -45 -78 c 0,61,62
 -34 -78 -34 -78 -25 -77 c 2,63,-1
 -7 -75 l 1,64,-1
 12 -68 l 1,65,-1
 32 -63 l 1,66,-1
 47 -58 l 1,67,68
 103 -32 103 -32 126 15 c 2,69,-1
 135 32 l 2,70,71
 136 33 136 33 137 35 c 0,72,73
 142 45 142 45 145 65 c 2,74,-1
 147 81 l 1,75,-1
 151 100 l 1,76,-1
 147 119 l 1,77,-1
 145 134 l 1,78,-1
 142 151 l 1,79,-1
 135 166 l 1,80,81
 135 164 135 164 126 185 c 1,82,83
 113 205 113 205 104 215 c 0,84,85
 86 235 86 235 47 256 c 2,86,-1
 28 265 l 2,87,88
 28 267 28 267 10 270 c 2,89,-1
 -7 274 l 1,0,-1
EndSplineSet
EndChar

StartChar: q
Encoding: 113 113 47
Width: 872
VWidth: 1146
GlyphClass: 1
Flags: W
LayerCount: 2
Fore
SplineSet
886 28 m 2,0,1
 888 23 888 23 892 -40 c 1,2,-1
 892 -49 l 1,3,-1
 892 -68 l 1,4,5
 857 -64 857 -64 840 -65 c 0,6,7
 829 -65 829 -65 826 -66 c 1,8,9
 829 -61 829 -61 826 -45 c 0,10,11
 826 -11 826 -11 825 -5 c 0,12,13
 824 -2 824 -2 818 19 c 2,14,-1
 814 42 l 1,15,-1
 805 66 l 1,16,-1
 793 86 l 1,17,-1
 783 107 l 1,18,19
 784 107 784 107 763 125 c 1,20,-1
 750 142 l 1,21,-1
 730 160 l 1,22,-1
 708 174 l 1,23,-1
 686 185 l 1,24,-1
 661 195 l 1,25,26
 661 194 661 194 651 197 c 0,27,28
 616 206 616 206 586 211 c 2,29,-1
 561 214 l 1,30,-1
 534 211 l 1,31,-1
 507 207 l 1,32,-1
 483 204 l 2,33,34
 479 203 479 203 458 195 c 2,35,-1
 437 185 l 1,36,-1
 414 174 l 1,37,-1
 393 160 l 1,38,-1
 374 142 l 1,39,-1
 355 123 l 1,40,41
 356 123 356 123 340 107 c 1,42,-1
 326 86 l 1,43,-1
 315 66 l 1,44,-1
 307 42 l 1,45,-1
 300 19 l 1,46,-1
 298 0 l 2,47,48
 294 -34 294 -34 295 -40 c 2,49,-1
 295 -68 l 1,50,-1
 261 -68 l 1,51,-1
 228 -68 l 1,52,-1
 228 -49 l 1,53,-1
 228 -39 l 2,54,55
 228 -24 228 -24 235 2 c 1,56,-1
 237 30 l 2,57,58
 238 30 238 30 245 60 c 1,59,-1
 256 87 l 1,60,61
 255 87 255 87 255 88 c 0,62,63
 255 93 255 93 286 140 c 1,64,65
 286 139 286 139 294 148 c 0,66,67
 306 163 306 163 326 186 c 1,68,69
 325 186 325 186 329 189 c 0,70,71
 353 204 353 204 362 213 c 0,72,73
 377 226 377 226 405 237 c 2,74,-1
 435 249 l 2,75,76
 440 252 440 252 465 258 c 2,77,-1
 498 268 l 1,78,-1
 530 270 l 2,79,80
 561 272 561 272 561 275 c 0,81,82
 561 279 561 279 532 300 c 1,83,-1
 500 332 l 1,84,85
 402 419 402 419 340 475 c 2,86,-1
 177 625 l 2,87,88
 176 625 176 625 158 637 c 2,89,-1
 139 653 l 1,90,-1
 115 665 l 1,91,-1
 92 675 l 1,92,-1
 68 681 l 2,93,94
 66 681 66 681 60 683 c 0,95,96
 51 685 51 685 44 685 c 0,97,98
 36 686 36 686 29 687 c 0,99,100
 21 688 21 688 15 687 c 2,101,102
 15 687 15 687 -7 689 c 1,103,-1
 -7 693 l 2,104,105
 -8 724 -8 724 -8 755 c 1,106,-1
 -7 755 l 1,107,-1
 -4 755 l 2,108,109
 1 753 1 753 9 752 c 0,110,111
 10 752 10 752 10 752 c 2,112,113
 11 752 11 752 12 752 c 128,-1,114
 13 752 13 752 13 752 c 129,-1,115
 13 752 13 752 13 752 c 129,-1,116
 13 752 13 752 14 752 c 128,-1,117
 15 752 15 752 15 752 c 2,118,119
 16 752 16 752 15 752 c 2,120,121
 20 752 20 752 27 751 c 0,122,123
 52 750 52 750 60 744 c 1,124,-1
 92 737 l 1,125,-1
 119 732 l 1,126,-1
 144 717 l 2,127,128
 145 717 145 717 174 703 c 1,129,130
 173 703 173 703 197 683 c 1,131,132
 196 683 196 683 226 666 c 1,133,134
 225 666 225 666 312 587 c 0,135,136
 633 292 633 292 662 270 c 0,137,138
 668 265 668 265 687 249 c 1,139,140
 686 250 686 250 696 245 c 0,141,142
 712 237 712 237 744 224 c 1,143,-1
 770 204 l 2,144,145
 775 200 775 200 795 186 c 1,146,-1
 814 163 l 1,147,-1
 814 163 l 1,148,149
 814 161 814 161 837 140 c 1,150,-1
 851 113 l 1,151,-1
 866 87 l 1,152,-1
 875 60 l 2,153,154
 880 44 880 44 886 34 c 1,155,-1
 886 28 l 2,0,1
EndSplineSet
EndChar

StartChar: r
Encoding: 114 114 48
Width: 273
VWidth: 1190
GlyphClass: 1
Flags: W
LayerCount: 2
Fore
SplineSet
279 317 m 1,0,-1
 279 287 l 1,1,-1
 279 277 l 1,2,-1
 263 277 l 2,3,4
 256 277 256 277 226 275 c 1,5,-1
 207 272 l 2,6,7
 206 274 206 274 186 268 c 2,8,-1
 172 263 l 1,9,-1
 155 256 l 2,10,11
 108 239 108 239 74 183 c 1,12,-1
 66 165 l 2,13,14
 65 165 65 165 58 149 c 2,15,-1
 55 134 l 1,16,-1
 51 119 l 1,17,-1
 51 81 l 1,18,-1
 55 63 l 1,19,-1
 60 47 l 1,20,-1
 66 30 l 1,21,-1
 74 15 l 2,22,23
 84 -8 84 -8 100 -19 c 1,24,25
 114 -36 114 -36 155 -58 c 1,26,-1
 172 -65 l 1,27,28
 171 -66 171 -66 186 -68 c 1,29,-1
 207 -77 l 1,30,-1
 226 -79 l 1,31,-1
 279 -79 l 1,32,-1
 279 -89 l 1,33,-1
 279 -119 l 1,34,-1
 279 -139 l 1,35,-1
 260 -139 l 2,36,37
 225 -139 225 -139 217 -137 c 2,38,-1
 193 -134 l 1,39,-1
 168 -126 l 1,40,-1
 144 -121 l 1,41,-1
 123 -111 l 2,42,43
 82 -92 82 -92 52 -60 c 0,44,45
 32 -40 32 -40 15 -14 c 2,46,-1
 4 7 l 2,47,48
 2 7 2 7 -14 53 c 1,49,-1
 -14 77 l 1,50,-1
 -15 98 l 1,51,-1
 -14 121 l 2,52,53
 -14 123 -14 123 -14 126 c 0,54,55
 -12 143 -12 143 -5 165 c 2,56,-1
 4 186 l 1,57,58
 0 186 0 186 15 208 c 2,59,-1
 28 230 l 1,60,61
 28 229 28 229 45 247 c 1,62,63
 45 244 45 244 60 268 c 1,64,-1
 79 281 l 1,65,-1
 100 296 l 1,66,-1
 121 307 l 1,67,-1
 144 319 l 1,68,-1
 170 325 l 2,69,70
 171 325 171 325 195 332 c 1,71,-1
 217 334 l 2,72,73
 229 336 229 336 244 335 c 0,74,75
 251 335 251 335 260 335 c 2,76,-1
 279 335 l 1,77,-1
 279 317 l 1,0,-1
EndSplineSet
EndChar

StartChar: s
Encoding: 115 115 49
Width: 640
VWidth: 1148
GlyphClass: 1
Flags: W
LayerCount: 2
Fore
SplineSet
60 581 m 2,0,1
 59 576 59 576 59 569 c 0,2,3
 59 555 59 555 61 535 c 1,4,-1
 66 515 l 1,5,-1
 74 493 l 1,6,-1
 81 468 l 1,7,-1
 92 449 l 1,8,-1
 105 428 l 1,9,-1
 121 413 l 1,10,-1
 139 393 l 1,11,-1
 158 375 l 1,12,13
 158 376 158 376 177 363 c 1,14,-1
 202 353 l 1,15,-1
 225 342 l 1,16,-1
 247 334 l 1,17,-1
 270 326 l 2,18,19
 271 326 271 326 300 323 c 2,20,-1
 326 321 l 1,21,-1
 353 323 l 1,22,-1
 377 326 l 1,23,-1
 404 334 l 2,24,25
 404 335 404 335 428 342 c 1,26,-1
 449 353 l 2,27,28
 475 367 475 367 483 371 c 0,29,30
 488 374 488 374 494 378 c 0,31,32
 529 400 529 400 560 449 c 2,33,-1
 572 468 l 1,34,-1
 581 493 l 1,35,36
 581 491 581 491 586 513 c 1,37,-1
 587 540 l 2,38,39
 591 560 591 560 592 585 c 2,40,-1
 592 605 l 1,41,-1
 658 605 l 1,42,-1
 658 577 l 2,43,44
 658 542 658 542 649 503 c 1,45,-1
 639 475 l 1,46,-1
 632 447 l 1,47,-1
 615 421 l 1,48,-1
 604 395 l 1,49,-1
 583 374 l 2,50,51
 559 348 559 348 541 337 c 0,52,53
 529 330 529 330 511 313 c 1,54,55
 511 314 511 314 481 300 c 2,56,-1
 453 287 l 2,57,58
 451 287 451 287 423 279 c 2,59,-1
 393 268 l 1,60,-1
 360 265 l 1,61,-1
 325 261 l 1,62,-1
 292 265 l 1,63,-1
 260 268 l 1,64,-1
 228 277 l 2,65,66
 227 277 227 277 197 283 c 1,67,-1
 172 300 l 2,68,69
 171 300 171 300 142 313 c 1,70,71
 142 312 142 312 134 318 c 0,72,73
 117 332 117 332 89 350 c 1,74,-1
 74 372 l 2,75,76
 66 379 66 379 56 392 c 1,77,-1
 51 395 l 1,78,79
 51 394 51 394 47 399 c 0,80,81
 41 407 41 407 38 415 c 0,82,83
 34 425 34 425 19 447 c 1,84,-1
 14 475 l 1,85,-1
 -2 505 l 1,86,-1
 -4 532 l 2,87,88
 -7 550 -7 550 -5 568 c 0,89,90
 -5 576 -5 576 -5 585 c 2,91,-1
 -5 605 l 1,92,-1
 28 605 l 1,93,-1
 58 605 l 1,94,-1
 60 581 l 2,0,1
EndSplineSet
EndChar

StartChar: t
Encoding: 116 116 50
Width: 192
VWidth: 1150
GlyphClass: 1
Flags: W
LayerCount: 2
Fore
SplineSet
129 289 m 1,0,-1
 126 85 l 1,1,-1
 126 -58 l 1,2,-1
 121 -74 l 2,3,4
 106 -109 106 -109 87 -121 c 1,5,6
 42 -136 42 -136 35 -140 c 0,7,8
 25 -145 25 -145 8 -142 c 2,9,-1
 -5 -142 l 1,10,-1
 -7 -142 l 1,11,-1
 -7 -113 l 1,12,-1
 -7 -86 l 1,13,14
 -7 -88 -7 -88 -5 -85 c 1,15,16
 19 -85 19 -85 30 -81 c 0,17,18
 52 -76 52 -76 55 -68 c 0,19,20
 60 -51 60 -51 60 339 c 0,21,22
 60 647 60 647 66 690 c 0,23,24
 77 752 77 752 189 753 c 2,25,-1
 196 753 l 1,26,-1
 200 753 l 1,27,-1
 200 721 l 1,28,-1
 200 692 l 1,29,-1
 193 692 l 1,30,-1
 161 692 l 1,31,32
 135 685 135 685 129 660 c 1,33,-1
 129 289 l 1,0,-1
EndSplineSet
EndChar

StartChar: u
Encoding: 117 117 51
Width: 206
VWidth: 1214
GlyphClass: 1
Flags: W
LayerCount: 2
Fore
SplineSet
119 -8 m 1,0,1
 156 -13 156 -13 183 -39 c 0,2,3
 208 -64 208 -64 214 -100 c 1,4,-1
 214 -108 l 2,5,6
 215 -168 215 -168 153 -196 c 0,7,8
 128 -207 128 -207 103 -207 c 2,9,-1
 98 -207 l 2,10,11
 59 -207 59 -207 26 -177 c 0,12,13
 -3 -151 -3 -151 -5 -119 c 2,14,-1
 -5 -111 l 2,15,16
 -5 -77 -5 -77 15 -50 c 0,17,18
 45 -10 45 -10 102 -8 c 2,19,-1
 119 -8 l 1,0,1
145 -121 m 0,20,21
 147 -115 147 -115 147 -108 c 0,22,23
 147 -83 147 -83 120 -72 c 0,24,25
 107 -67 107 -67 100 -68 c 0,26,27
 86 -68 86 -68 75 -78 c 0,28,29
 61 -91 61 -91 60 -113 c 0,30,31
 61 -137 61 -137 86 -145 c 0,32,33
 96 -149 96 -149 106 -149 c 0,34,35
 138 -149 138 -149 145 -121 c 0,20,21
EndSplineSet
EndChar

StartChar: v
Encoding: 118 118 52
Width: 630
VWidth: 1124
GlyphClass: 1
Flags: W
LayerCount: 2
Fore
SplineSet
323 761 m 2,0,1
 329 759 329 759 337 759 c 128,-1,2
 345 759 345 759 353 761 c 2,3,-1
 385 755 l 1,4,-1
 414 745 l 1,5,-1
 447 740 l 1,6,7
 447 742 447 742 456 735 c 0,8,9
 475 722 475 722 503 711 c 1,10,-1
 530 692 l 1,11,-1
 555 672 l 1,12,-1
 575 649 l 2,13,14
 578 648 578 648 595 626 c 2,15,-1
 613 602 l 1,16,17
 611 602 611 602 626 574 c 1,18,19
 634 548 634 548 639 534 c 2,20,-1
 647 519 l 1,21,-1
 647 489 l 1,22,-1
 649 458 l 1,23,24
 648 458 648 458 647 428 c 2,25,-1
 647 400 l 1,26,-1
 635 374 l 2,27,28
 634 374 634 374 626 344 c 1,29,-1
 611 319 l 2,30,31
 611 318 611 318 595 292 c 1,32,-1
 575 268 l 2,33,34
 576 267 576 267 576 267 c 2,35,36
 576 263 576 263 553 247 c 1,37,-1
 530 226 l 2,38,39
 529 226 529 226 503 207 c 1,40,-1
 475 196 l 1,41,-1
 447 183 l 1,42,-1
 415 172 l 1,43,44
 418 171 418 171 385 163 c 1,45,-1
 353 163 l 1,46,-1
 321 160 l 1,47,-1
 287 163 l 1,48,-1
 256 163 l 1,49,50
 256 162 256 162 255 163 c 0,51,52
 251 163 251 163 240 167 c 0,53,54
 227 172 227 172 195 183 c 0,55,56
 195 186 195 186 163 195 c 1,57,-1
 135 207 l 1,58,59
 135 206 135 206 111 226 c 2,60,-1
 86 247 l 1,61,-1
 65 268 l 2,62,63
 31 306 31 306 32 317 c 1,64,-1
 28 319 l 1,65,66
 28 318 28 318 19 332 c 2,67,-1
 14 344 l 1,68,-1
 5 374 l 2,69,70
 2 374 2 374 -5 400 c 1,71,-1
 -7 428 l 1,72,-1
 -14 458 l 2,73,74
 -14 461 -14 461 -7 489 c 1,75,76
 -8 489 -8 489 -8 494 c 0,77,78
 -8 501 -8 501 -5 519 c 1,79,-1
 5 547 l 1,80,-1
 14 575 l 1,81,-1
 28 602 l 1,82,-1
 45 626 l 1,83,-1
 56 637 l 1,84,-1
 74 658 l 1,85,-1
 86 672 l 2,86,87
 87 672 87 672 99 681 c 128,-1,88
 111 690 111 690 135 711 c 1,89,-1
 163 721 l 1,90,91
 189 736 189 736 192 738 c 0,92,93
 193 739 193 739 193 739 c 2,94,95
 195 742 195 742 225 745 c 1,96,-1
 255 755 l 2,97,98
 255 756 255 756 287 761 c 1,99,-1
 323 761 l 2,0,1
292 700 m 1,100,-1
 266 698 l 2,101,102
 266 697 266 697 256 694 c 0,103,104
 242 689 242 689 215 683 c 1,105,-1
 195 670 l 1,106,-1
 174 660 l 1,107,-1
 153 645 l 2,108,109
 129 630 129 630 120 618 c 0,110,111
 115 613 115 613 111 607 c 2,112,-1
 100 595 l 1,113,-1
 87 574 l 1,114,-1
 74 553 l 1,115,-1
 66 530 l 2,116,117
 65 530 65 530 58 507 c 1,118,-1
 58 483 l 2,119,120
 58 482 58 482 56 458 c 1,121,-1
 58 437 l 1,122,-1
 58 414 l 1,123,-1
 68 389 l 1,124,-1
 74 365 l 1,125,-1
 87 345 l 1,126,127
 86 345 86 345 100 325 c 1,128,-1
 115 308 l 2,129,130
 116 308 116 308 132 289 c 1,131,-1
 153 275 l 1,132,133
 153 276 153 276 174 258 c 1,134,-1
 195 247 l 1,135,-1
 215 237 l 1,136,-1
 237 232 l 2,137,138
 271 226 271 226 277 223 c 0,139,140
 279 222 279 222 286 221 c 1,141,-1
 286 292 l 1,142,-1
 281 365 l 1,143,-1
 355 365 l 1,144,-1
 355 221 l 1,145,-1
 360 221 l 2,146,147
 365 221 365 221 384 225 c 0,148,149
 396 229 396 229 425 237 c 0,150,151
 426 234 426 234 447 247 c 2,152,-1
 468 260 l 2,153,154
 489 274 489 274 489 270 c 1,155,-1
 508 289 l 1,156,-1
 523 308 l 1,157,-1
 540 323 l 2,158,159
 543 323 543 323 553 344 c 2,160,-1
 565 365 l 2,161,162
 565 367 565 367 572 389 c 2,163,-1
 581 413 l 1,164,-1
 585 435 l 1,165,-1
 585 486 l 1,166,-1
 581 508 l 1,167,-1
 572 530 l 2,168,169
 572 531 572 531 571 534 c 0,170,171
 566 553 566 553 553 574 c 2,172,-1
 542 595 l 1,173,-1
 523 613 l 1,174,-1
 508 630 l 1,175,-1
 487 645 l 1,176,-1
 466 660 l 1,177,-1
 445 670 l 1,178,-1
 425 683 l 2,179,180
 424 683 424 683 397 689 c 2,181,-1
 372 698 l 2,182,183
 372 699 372 699 344 700 c 2,184,-1
 292 700 l 1,100,-1
EndSplineSet
EndChar

StartChar: w
Encoding: 119 119 53
Width: 640
VWidth: 1177
GlyphClass: 1
Flags: W
LayerCount: 2
Fore
SplineSet
323 457 m 1,0,1
 338 452 338 452 350 456 c 1,2,3
 350 455 350 455 381 454 c 1,4,-1
 413 444 l 2,5,6
 413 443 413 443 442 435 c 1,7,-1
 470 423 l 1,8,9
 467 423 467 423 500 408 c 1,10,-1
 525 388 l 2,11,12
 526 387 526 387 553 370 c 0,13,14
 553 367 553 367 574 349 c 1,15,-1
 593 325 l 1,16,17
 592 325 592 325 597 317 c 0,18,19
 608 298 608 298 625 273 c 1,20,21
 639 243 639 243 637 233 c 1,22,-1
 642 217 l 1,23,-1
 645 187 l 1,24,-1
 647 157 l 1,25,-1
 645 128 l 1,26,-1
 642 96 l 1,27,-1
 635 72 l 1,28,-1
 625 42 l 2,29,30
 624 42 624 42 607 17 c 2,31,-1
 593 -9 l 1,32,33
 594 -8 594 -8 589 -14 c 0,34,35
 574 -33 574 -33 550 -54 c 2,36,-1
 525 -75 l 2,37,38
 523 -78 523 -78 500 -94 c 1,39,-1
 470 -105 l 1,40,41
 471 -105 471 -105 445 -123 c 1,42,-1
 414 -128 l 2,43,44
 414 -130 414 -130 383 -138 c 1,45,-1
 350 -141 l 1,46,-1
 317 -144 l 1,47,-1
 285 -141 l 1,48,-1
 249 -138 l 1,49,-1
 221 -128 l 2,50,51
 219 -128 219 -128 216 -128 c 0,52,53
 191 -123 191 -123 163 -105 c 1,54,55
 163 -106 163 -106 132 -94 c 1,56,-1
 108 -75 l 2,57,58
 107 -75 107 -75 81 -56 c 1,59,-1
 61 -33 l 2,60,61
 35 -5 35 -5 26 15 c 1,62,-1
 26 17 l 1,63,64
 21 22 21 22 20 28 c 0,65,66
 18 33 18 33 11 44 c 2,67,-1
 0 72 l 1,68,-1
 -7 96 l 2,69,70
 -7 99 -7 99 -7 105 c 0,71,72
 -9 128 -9 128 -15 157 c 1,73,-1
 -11 187 l 1,74,-1
 -7 219 l 1,75,-1
 0 245 l 2,76,77
 0 246 0 246 5 257 c 0,78,79
 12 274 12 274 26 298 c 2,80,-1
 40 325 l 1,81,-1
 51 336 l 1,82,-1
 71 357 l 1,83,84
 71 356 71 356 74 360 c 0,85,86
 81 370 81 370 95 379 c 0,87,88
 110 389 110 389 132 408 c 1,89,-1
 158 421 l 2,90,91
 184 435 184 435 201 439 c 0,92,93
 204 440 204 440 217 444 c 2,94,-1
 249 454 l 1,95,-1
 285 456 l 2,96,97
 299 456 299 456 314 457 c 2,98,-1
 319 457 l 1,99,-1
 323 457 l 1,0,1
357 395 m 0,100,101
 353 395 353 395 353 325 c 2,102,-1
 353 251 l 1,103,-1
 317 251 l 1,104,-1
 281 251 l 1,105,-1
 281 325 l 2,106,107
 281 393 281 393 277 395 c 0,108,109
 273 393 273 393 265 392 c 0,110,111
 256 391 256 391 239 387 c 2,112,-1
 214 380 l 1,113,-1
 193 370 l 1,114,-1
 170 359 l 1,115,-1
 151 344 l 2,116,117
 126 327 126 327 115 311 c 0,118,119
 112 306 112 306 108 305 c 2,120,-1
 96 291 l 1,121,-1
 81 270 l 1,122,-1
 71 249 l 1,123,124
 38 151 38 151 38 150 c 1,125,-1
 56 204 l 1,126,127
 56 203 56 203 55 180 c 2,128,-1
 51 157 l 1,129,-1
 55 135 l 1,130,-1
 56 109 l 1,131,-1
 66 87 l 1,132,-1
 71 65 l 1,133,-1
 81 44 l 1,134,-1
 96 23 l 1,135,-1
 113 5 l 2,136,137
 114 4 114 4 129 -15 c 1,138,-1
 151 -28 l 1,139,140
 151 -25 151 -25 156 -32 c 0,141,142
 168 -44 168 -44 194 -55 c 0,143,144
 217 -66 217 -66 240 -72 c 2,145,-1
 265 -81 l 1,146,-1
 289 -83 l 2,147,148
 297 -84 297 -84 306 -84 c 0,149,150
 313 -84 313 -84 321 -84 c 0,151,152
 332 -83 332 -83 345 -83 c 2,153,-1
 365 -81 l 1,154,155
 365 -82 365 -82 366 -81 c 0,156,157
 371 -81 371 -81 393 -72 c 1,158,-1
 419 -65 l 1,159,-1
 442 -54 l 1,160,-1
 466 -43 l 1,161,-1
 485 -28 l 1,162,-1
 503 -15 l 1,163,-1
 521 5 l 1,164,-1
 537 23 l 1,165,166
 535 23 535 23 550 44 c 2,167,-1
 563 65 l 1,168,-1
 570 87 l 1,169,-1
 575 109 l 1,170,-1
 581 130 l 2,171,172
 583 143 583 143 583 156 c 128,-1,173
 583 169 583 169 581 183 c 2,174,-1
 575 205 l 1,175,-1
 570 225 l 2,176,177
 569 225 569 225 563 251 c 1,178,179
 564 251 564 251 550 273 c 2,180,-1
 540 291 l 1,181,-1
 521 308 l 2,182,183
 520 307 520 307 503 328 c 1,184,185
 503 327 503 327 497 331 c 0,186,187
 482 342 482 342 463 359 c 1,188,189
 463 356 463 356 440 370 c 2,190,-1
 419 380 l 2,191,192
 418 380 418 380 395 387 c 0,193,194
 358 395 358 395 357 395 c 0,100,101
EndSplineSet
EndChar

StartChar: x
Encoding: 120 120 54
Width: 348
VWidth: 1124
GlyphClass: 1
Flags: W
LayerCount: 2
Fore
SplineSet
247 512 m 1024,0,-1
275 534 m 1,1,-1
 250 509 l 1,2,-1
 215 466 l 1,3,-1
 205 445 l 1,4,-1
 210 437 l 1,5,-1
 213 432 l 1,6,-1
 218 422 l 1,7,-1
 228 405 l 1,8,-1
 240 393 l 1,9,-1
 244 389 l 1,10,-1
 246 386 l 1,11,-1
 251 381 l 1,12,-1
 256 375 l 1,13,-1
 265 368 l 1,14,-1
 278 360 l 1,15,-1
 291 354 l 1,16,-1
 308 342 l 1,17,-1
 332 340 l 1,18,-1
 346 335 l 1,19,-1
 356 334 l 1,20,-1
 360 334 l 1,21,-1
 360 302 l 1,22,-1
 359 280 l 1,23,-1
 357 273 l 1,24,-1
 327 279 l 1,25,-1
 301 287 l 1,26,-1
 284 298 l 1,27,-1
 262 315 l 1,28,-1
 214 349 l 1,29,-1
 200 363 l 1,30,-1
 189 383 l 1,31,-1
 183 392 l 1,32,-1
 179 397 l 1,33,-1
 134 342 l 1,34,-1
 105 314 l 1,35,-1
 92 305 l 1,36,-1
 79 295 l 1,37,-1
 0 274 l 1,38,-1
 0 334 l 1,39,-1
 4 334 l 1,40,-1
 42 339 l 1,41,-1
 75 355 l 1,42,-1
 92 365 l 1,43,-1
 118 395 l 1,44,-1
 142 430 l 1,45,-1
 148 439 l 1,46,-1
 151 442 l 1,47,-1
 152 443 l 1,48,-1
 153 445 l 1,49,-1
 142 460 l 1,50,-1
 130 477 l 1,51,-1
 123 488 l 1,52,-1
 110 508 l 1,53,-1
 96 521 l 1,54,-1
 86 527 l 1,55,-1
 75 532 l 1,56,-1
 53 543 l 1,57,-1
 43 546 l 1,58,-1
 37 547 l 1,59,-1
 26 550 l 1,60,-1
 4 553 l 1,61,-1
 4 614 l 1,62,-1
 19 611 l 1,63,-1
 35 607 l 1,64,-1
 62 602 l 1,65,-1
 92 588 l 1,66,-1
 115 572 l 1,67,-1
 139 546 l 1,68,-1
 159 523 l 1,69,-1
 166 508 l 1,70,-1
 175 496 l 1,71,-1
 179 492 l 1,72,-1
 185 501 l 1,73,-1
 187 508 l 1,74,-1
 196 523 l 1,75,-1
 217 547 l 1,76,-1
 240 572 l 1,77,-1
 246 575 l 1,78,-1
 265 585 l 1,79,-1
 285 595 l 1,80,-1
 292 600 l 1,81,-1
 302 602 l 1,82,-1
 325 605 l 1,83,-1
 355 614 l 1,84,-1
 355 553 l 1,85,-1
 345 553 l 1,86,-1
 330 550 l 1,87,-1
 275 534 l 1,1,-1
EndSplineSet
EndChar

StartChar: y
Encoding: 121 121 55
Width: 335
VWidth: 1173
GlyphClass: 1
Flags: W
LayerCount: 2
Fore
SplineSet
-5 305 m 0,0,1
 -5 334 -5 334 25 334 c 0,2,3
 29 334 29 334 32 333 c 0,4,5
 47 331 47 331 61 327 c 0,6,7
 98 315 98 315 120 286 c 0,8,9
 125 280 125 280 135 268 c 0,10,11
 158 240 158 240 168 225 c 1,12,13
 182 240 182 240 183 242 c 0,14,15
 183 244 183 244 193 258 c 2,16,-1
 214 283 l 2,17,18
 251 327 251 327 298 333 c 0,19,20
 307 335 307 335 319 334 c 0,21,22
 324 334 324 334 333 334 c 2,23,-1
 342 333 l 2,24,25
 343 333 343 333 343 316.5 c 128,-1,26
 343 300 343 300 340 274 c 1,27,-1
 321 274 l 2,28,29
 301 274 301 274 293 270 c 0,30,31
 283 266 283 266 271 254 c 0,32,33
 264 244 264 244 245 226 c 1,34,-1
 235 205 l 1,35,-1
 224 185 l 1,36,37
 225 186 225 186 215 161 c 0,38,39
 204 136 204 136 204 133 c 0,40,41
 204 131 204 131 200 122 c 0,42,43
 197 115 197 115 195 108 c 0,44,45
 190 91 190 91 185 81 c 2,46,-1
 168 44 l 1,47,48
 154 74 154 74 145 107 c 0,49,50
 140 126 140 126 135 133 c 0,51,52
 131 139 131 139 123 163 c 2,53,-1
 115 185 l 1,54,-1
 104 205 l 1,55,-1
 92 226 l 2,56,57
 92 227 92 227 82 238 c 0,58,59
 57 269 57 269 40 272 c 0,60,61
 34 274 34 274 15 274 c 2,62,-1
 -4 274 l 2,63,64
 -5 274 -5 274 -5 291 c 0,65,66
 -5 302 -5 302 -5 305 c 0,0,1
-4 231 m 0,67,68
 -5 281 -5 281 -5 287 c 1,69,70
 -3 184 -3 184 -3 185 c 128,-1,71
 -3 186 -3 186 -4 231 c 0,67,68
EndSplineSet
EndChar

StartChar: z
Encoding: 122 122 56
Width: 953
VWidth: 1188
GlyphClass: 1
Flags: W
LayerCount: 2
Fore
SplineSet
623 342 m 2,0,1
 638 339 638 339 648 339 c 0,2,3
 653 339 653 339 655 340 c 2,4,-1
 668 340 l 1,5,-1
 687 337 l 1,6,-1
 719 329 l 2,7,8
 720 329 720 329 728 326 c 0,9,10
 751 319 751 319 762 311 c 0,11,12
 776 302 776 302 807 289 c 1,13,-1
 832 274 l 2,14,15
 837 269 837 269 844 265 c 0,16,17
 858 259 858 259 858 249 c 0,18,19
 861 245 861 245 866 245 c 0,20,21
 874 238 874 238 876 233 c 0,22,23
 880 227 880 227 886 220 c 0,24,25
 900 206 900 206 913 185 c 2,26,-1
 930 155 l 1,27,-1
 934 139 l 2,28,29
 939 124 939 124 941 117 c 0,30,31
 949 96 949 96 955 47 c 1,32,-1
 955 -61 l 1,33,-1
 955 -134 l 1,34,-1
 921 -134 l 1,35,-1
 889 -134 l 1,36,-1
 889 47 l 1,37,-1
 887 68 l 1,38,-1
 881 87 l 2,39,40
 882 88 882 88 876 111 c 1,41,42
 878 111 878 111 868 132 c 2,43,-1
 858 153 l 1,44,-1
 845 174 l 1,45,-1
 828 193 l 1,46,-1
 808 214 l 1,47,48
 794 221 794 221 785 229 c 0,49,50
 773 238 773 238 750 253 c 1,51,-1
 724 263 l 1,52,53
 725 263 725 263 700 270 c 2,54,-1
 677 277 l 2,55,56
 677 278 677 278 666 278 c 0,57,58
 649 279 649 279 637 280 c 0,59,60
 632 281 632 281 624 282 c 0,61,62
 612 282 612 282 597 279 c 2,63,-1
 572 277 l 1,64,-1
 545 270 l 2,65,66
 543 271 543 271 521 263 c 2,67,-1
 498 253 l 1,68,-1
 477 240 l 1,69,70
 478 240 478 240 472 237 c 0,71,72
 455 226 455 226 437 213 c 2,73,-1
 417 193 l 1,74,75
 417 194 417 194 404 174 c 2,76,-1
 393 153 l 1,77,-1
 379 132 l 1,78,-1
 372 111 l 1,79,-1
 363 87 l 1,80,-1
 359 37 l 2,81,82
 359 28 359 28 360 19 c 2,83,-1
 360 -4 l 1,84,-1
 292 -4 l 1,85,86
 292 -3 292 -3 248 46 c 0,87,88
 174 130 174 130 58 263 c 1,89,-1
 58 47 l 1,90,-1
 58 -134 l 1,91,-1
 26 -134 l 1,92,-1
 -5 -134 l 1,93,-1
 -5 340 l 1,94,-1
 58 340 l 1,95,96
 57 337 57 337 206 171 c 0,97,98
 294 72 294 72 296 68 c 1,99,100
 296 75 296 75 297 79 c 0,101,102
 299 84 299 84 300 98 c 2,103,-1
 308 125 l 1,104,-1
 317 155 l 1,105,106
 315 155 315 155 332 185 c 2,107,-1
 345 207 l 1,108,109
 344 207 344 207 368 230 c 2,110,-1
 387 253 l 1,111,-1
 415 274 l 1,112,-1
 440 289 l 2,113,114
 442 288 442 288 468 303 c 2,115,-1
 498 319 l 1,116,-1
 528 326 l 1,117,-1
 558 334 l 2,118,119
 558 335 558 335 589 340 c 1,120,-1
 623 342 l 2,0,1
EndSplineSet
EndChar

StartChar: c_l
Encoding: 65539 -1 57
Width: 861
VWidth: 1189
GlyphClass: 3
Flags: W
LayerCount: 2
Fore
SplineSet
581 340 m 1,0,-1
 866 340 l 2,1,2
 867 340 867 340 867 332.5 c 128,-1,3
 867 325 867 325 866 311 c 2,4,-1
 866 279 l 1,5,6
 862 279 862 279 863 277 c 0,7,8
 864 275 864 275 855 275 c 0,9,10
 849 275 849 275 597 277 c 2,11,-1
 575 277 l 1,12,-1
 385 277 l 1,13,14
 359 272 359 272 352 250 c 0,15,16
 350 244 350 244 350 234 c 2,17,-1
 350 189 l 1,18,19
 355 189 355 189 365 186 c 2,20,-1
 383 186 l 2,21,22
 385 186 385 186 405 181 c 0,23,24
 449 168 449 168 470 156 c 2,25,-1
 500 142 l 1,26,-1
 525 123 l 2,27,28
 526 123 526 123 553 105 c 1,29,-1
 574 81 l 1,30,-1
 595 58 l 1,31,-1
 607 35 l 2,32,33
 622 9 622 9 625 3 c 0,34,35
 626 0 626 0 626 -5 c 0,36,37
 628 -14 628 -14 633 -22 c 0,38,39
 637 -28 637 -28 637 -35 c 2,40,-1
 642 -49 l 1,41,42
 642 -46 642 -46 645 -71 c 0,43,44
 650 -112 650 -112 650 -124 c 0,45,46
 650 -128 650 -128 649 -129 c 2,47,-1
 649 -151 l 1,48,-1
 615 -151 l 1,49,-1
 583 -151 l 1,50,-1
 583 -123 l 2,51,52
 583 -114 583 -114 581 -81 c 1,53,-1
 575 -60 l 2,54,55
 575 -59 575 -59 572 -47 c 0,56,57
 569 -37 569 -37 569 -35 c 0,58,59
 564 -16 564 -16 550 5 c 2,60,-1
 540 26 l 2,61,62
 539 26 539 26 521 44 c 2,63,-1
 505 61 l 1,64,-1
 486 77 l 1,65,-1
 466 92 l 1,66,-1
 442 104 l 1,67,-1
 417 115 l 1,68,-1
 417 115 l 1,69,70
 412 115 412 115 368 129 c 1,71,-1
 342 132 l 1,72,-1
 317 134 l 2,73,74
 316 135 316 135 313 135 c 0,75,76
 308 135 308 135 296 133 c 0,77,78
 290 132 290 132 266 129 c 2,79,-1
 239 123 l 1,80,81
 242 123 242 123 215 115 c 1,82,-1
 170 91 l 1,83,-1
 151 79 l 1,84,85
 152 79 152 79 129 61 c 1,86,-1
 113 44 l 1,87,88
 113 45 113 45 96 26 c 1,89,-1
 86 5 l 1,90,-1
 72 -15 l 1,91,-1
 63 -39 l 1,92,-1
 56 -60 l 1,93,94
 57 -59 57 -59 55 -69 c 0,95,96
 50 -94 50 -94 51 -129 c 2,97,-1
 51 -151 l 1,98,-1
 -15 -151 l 1,99,-1
 -15 -132 l 1,100,-1
 -15 -116 l 2,101,102
 -15 -101 -15 -101 -14 -81 c 2,103,-1
 -7 -49 l 1,104,-1
 4 -21 l 2,105,106
 5 -21 5 -21 6 -13 c 0,107,108
 13 10 13 10 26 35 c 2,109,-1
 40 60 l 2,110,111
 41 60 41 60 47 67 c 0,112,113
 54 77 54 77 61 85 c 0,114,115
 77 103 77 103 91 111 c 0,116,117
 105 118 105 118 132 142 c 1,118,-1
 163 155 l 1,119,-1
 193 172 l 1,120,-1
 221 179 l 1,121,-1
 255 186 l 1,122,-1
 268 186 l 1,123,-1
 283 189 l 1,124,125
 285 203 285 203 285 208 c 2,126,-1
 285 232 l 2,127,128
 285 256 285 256 291 274 c 0,129,130
 307 317 307 317 342 325 c 0,131,132
 379 336 379 336 532 340 c 1,133,-1
 581 340 l 1,0,-1
EndSplineSet
Ligature2: "'liga' Standard Ligatures in Latin lookup 0 subtable" c l
LCarets2: 1 447
EndChar

StartChar: s_h_i_t
Encoding: 65540 -1 58
Width: 924
VWidth: 1150
GlyphClass: 3
LigCaretCntFixed: 1
Flags: W
LayerCount: 2
Fore
SplineSet
323 507 m 0,0,1
 333 507 333 507 407 521 c 1,2,-1
 426 521 l 2,3,4
 428 521 428 521 428 552 c 0,5,6
 428 565 428 565 428 577 c 0,7,8
 427 596 427 596 427 608 c 0,9,10
 427 654 427 654 435 676 c 0,11,12
 448 715 448 715 486 729 c 0,13,14
 518 739 518 739 592 740 c 2,15,-1
 598 740 l 1,16,-1
 647 740 l 1,17,-1
 647 708 l 1,18,-1
 645 679 l 1,19,-1
 585 679 l 2,20,21
 527 679 527 679 512 675 c 0,22,23
 497 670 497 670 494 654 c 0,24,25
 492 647 492 647 492 634 c 0,26,27
 492 629 492 629 492 623 c 2,28,-1
 492 573 l 2,29,30
 492 522 492 522 495 520 c 0,31,32
 497 519 497 519 515 519 c 0,33,34
 530 517 530 517 558 513 c 2,35,-1
 592 508 l 1,36,37
 590 508 590 508 626 496 c 2,38,-1
 660 486 l 1,39,-1
 695 470 l 2,40,41
 695 467 695 467 726 458 c 1,42,-1
 756 440 l 1,43,-1
 786 425 l 1,44,-1
 815 404 l 2,45,46
 845 384 845 384 868 363 c 2,47,-1
 892 342 l 1,48,-1
 892 343 l 1,49,50
 894 343 894 343 911 321 c 2,51,-1
 928 298 l 1,52,53
 922 290 922 290 911 277 c 2,54,-1
 892 256 l 1,55,-1
 892 256 l 1,56,57
 892 254 892 254 876 241 c 0,58,59
 851 218 851 218 815 193 c 1,60,61
 815 194 815 194 786 174 c 2,62,-1
 756 155 l 1,63,-1
 726 139 l 1,64,-1
 695 125 l 1,65,-1
 695 125 l 1,66,67
 691 125 691 125 675 117 c 0,68,69
 647 105 647 105 623 100 c 0,70,71
 608 96 608 96 603 94 c 0,72,73
 593 89 593 89 558 82 c 0,74,75
 533 77 533 77 527 77 c 1,76,77
 527 78 527 78 523 78 c 0,78,79
 516 78 516 78 498 75 c 1,80,-1
 493 58 l 1,81,-1
 493 47 l 1,82,-1
 492 14 l 2,83,84
 490 -65 490 -65 484 -87 c 0,85,86
 474 -124 474 -124 425 -139 c 0,87,88
 401 -146 401 -146 358 -146 c 0,89,90
 347 -146 347 -146 329 -145 c 2,91,-1
 272 -145 l 1,92,-1
 272 -119 l 1,93,-1
 272 -87 l 1,94,-1
 332 -87 l 2,95,96
 393 -87 393 -87 410 -78 c 0,97,98
 418 -73 418 -73 422 -64 c 0,99,100
 427 -52 427 -52 427 -21 c 0,101,102
 427 -8 427 -8 426 11 c 2,103,-1
 426 58 l 1,104,-1
 426 75 l 1,105,106
 402 75 402 75 368 79 c 0,107,108
 356 81 356 81 354 81 c 0,109,110
 348 81 348 81 292 100 c 2,111,-1
 249 113 l 2,112,113
 242 118 242 118 241 119 c 0,114,115
 236 124 236 124 207 134 c 0,116,117
 183 142 183 142 169 150 c 0,118,119
 162 155 162 155 129 174 c 2,120,-1
 102 193 l 2,121,122
 65 219 65 219 55 229 c 0,123,124
 50 234 50 234 24 256 c 1,125,126
 24 254 24 254 19 261 c 0,127,128
 7 276 7 276 -14 298 c 1,129,130
 -12 304 -12 304 24 342 c 1,131,132
 84 397 84 397 161 440 c 1,133,134
 161 438 161 438 189 458 c 1,135,-1
 225 470 l 2,136,137
 228 470 228 470 258 486 c 1,138,-1
 289 496 l 2,139,140
 289 499 289 499 323 507 c 0,0,1
387 374 m 0,141,142
 399 381 399 381 414 386 c 0,143,144
 434 393 434 393 461 397 c 1,145,146
 498 397 498 397 525 375 c 0,147,148
 557 350 557 350 565 314 c 0,149,150
 568 300 568 300 565 286 c 0,151,152
 560 236 560 236 508 210 c 0,153,154
 487 199 487 199 468 198 c 0,155,156
 464 198 464 198 461 198 c 0,157,158
 409 198 409 198 375 235 c 0,159,160
 350 263 350 263 350 296 c 2,161,-1
 350 308 l 2,162,163
 352 351 352 351 387 374 c 0,141,142
375 125 m 2,164,165
 399 120 399 120 410 120 c 2,166,167
 410 120 410 120 411 120 c 0,168,169
 418 121 418 121 433 120 c 0,170,171
 445 119 445 119 458 119 c 2,172,-1
 487 119 l 1,173,174
 486 116 486 116 513 121 c 2,175,-1
 542 125 l 1,176,177
 671 149 671 149 793 242 c 1,178,-1
 856 298 l 1,179,180
 818 335 818 335 805 342 c 0,181,182
 726 410 726 410 655 437 c 0,183,184
 597 461 597 461 542 470 c 1,185,186
 542 469 542 469 541 470 c 0,187,188
 536 470 536 470 513 475 c 1,189,-1
 489 477 l 2,190,191
 475 479 475 479 461 479 c 128,-1,192
 447 479 447 479 430 477 c 2,193,-1
 405 475 l 1,194,-1
 375 470 l 2,195,196
 315 456 315 456 265 437 c 0,197,198
 217 419 217 419 185 395 c 0,199,200
 174 387 174 387 165 381 c 0,201,202
 140 365 140 365 85 319 c 1,203,-1
 63 298 l 1,204,205
 71 290 71 290 87 275 c 0,206,207
 206 173 206 173 321 140 c 1,208,-1
 322 140 l 2,209,210
 325 140 325 140 349 132 c 2,211,-1
 375 125 l 2,164,165
455 258 m 2,212,-1
 463 258 l 2,213,214
 482 258 482 258 494 274 c 0,215,216
 502 286 502 286 503 300 c 0,217,218
 503 335 503 335 460 340 c 1,219,-1
 451 340 l 1,220,221
 414 335 414 335 414 301 c 0,222,223
 414 282 414 282 425.5 270 c 128,-1,224
 437 258 437 258 455 258 c 2,212,-1
EndSplineSet
Ligature2: "'liga' Standard Ligatures in Latin lookup 0 subtable" s h i t
LCarets2: 3 228 468 711
EndChar

StartChar: d_a_b
Encoding: 65541 -1 59
Width: 795
VWidth: 1159
GlyphClass: 3
LigCaretCntFixed: 1
Flags: W
LayerCount: 2
Fore
SplineSet
225 602 m 2,0,1
 227 602 227 602 231 601 c 0,2,3
 243 598 243 598 258 597 c 2,4,-1
 281 593 l 2,5,6
 282 593 282 593 300 586 c 2,7,-1
 321 575 l 2,8,9
 322 575 322 575 340 568 c 1,10,-1
 355 555 l 1,11,-1
 372 544 l 1,12,-1
 385 530 l 2,13,14
 390 524 390 524 404 511 c 1,15,-1
 404 508 l 1,16,17
 380 478 380 478 360 453 c 1,18,19
 351 471 351 471 336 487 c 0,20,21
 308 519 308 519 253 535 c 0,22,23
 238 540 238 540 217 542 c 2,24,-1
 215 542 l 1,25,-1
 215 540 l 1,26,27
 214 540 214 540 203 539 c 0,28,29
 149 532 149 532 121 508 c 2,30,-1
 100 487 l 2,31,32
 85 470 85 470 79 461 c 0,33,34
 66 440 66 440 66 401 c 0,35,36
 66 377 66 377 71 363 c 2,37,-1
 77 344 l 1,38,39
 77 345 77 345 84 336 c 0,40,41
 104 313 104 313 169 243 c 0,42,43
 177 235 177 235 183 229 c 0,44,45
 192 219 192 219 193 217 c 0,46,47
 195 215 195 215 198 212 c 0,48,49
 205 204 205 204 208 201 c 0,50,51
 215 196 215 196 274 134 c 0,52,53
 306 100 306 100 310 95 c 0,54,55
 313 92 313 92 314 90 c 0,56,57
 316 89 316 89 321 85 c 0,58,59
 326 83 326 83 328 80 c 0,60,61
 329 79 329 79 335 72 c 0,62,63
 373 28 373 28 384 17 c 0,64,65
 388 13 388 13 392 9 c 0,66,67
 396 5 396 5 396 4 c 0,68,69
 400 -1 400 -1 404 -2 c 1,70,-1
 404 -4 l 1,71,72
 430 22 430 22 575 177 c 0,73,74
 710 319 710 319 716 328 c 0,75,76
 718 330 718 330 732 345 c 1,77,-1
 737 363 l 1,78,-1
 740 375 l 1,79,-1
 740 392 l 2,80,81
 740 427 740 427 735 440 c 0,82,83
 731 451 731 451 722 466 c 0,84,85
 702 498 702 498 676 515 c 0,86,87
 660 525 660 525 631 534 c 0,88,89
 611 540 611 540 604 540 c 2,90,-1
 586 542 l 1,91,-1
 574 540 l 2,92,93
 503 526 503 526 460 477 c 0,94,95
 455 472 455 472 451 463 c 0,96,97
 438 439 438 439 437 415 c 0,98,99
 434 415 434 415 437 405 c 0,100,101
 439 399 439 399 439 397 c 2,102,-1
 449 395 l 1,103,104
 508 367 508 367 508 308 c 2,105,-1
 508 298 l 1,106,107
 504 270 504 270 486 245 c 1,108,109
 460 217 460 217 422 208 c 0,110,111
 407 204 407 204 397 207 c 0,112,113
 373 207 373 207 348 220 c 0,114,115
 299 245 299 245 292 298 c 1,116,117
 287 303 287 303 289 311 c 0,118,119
 289 350 289 350 331 383 c 0,120,121
 347 397 347 397 365 401 c 0,122,123
 371 403 371 403 372 414 c 0,124,125
 372 429 372 429 360 453 c 1,126,127
 387 488 387 488 421 530 c 1,128,-1
 435 544 l 1,129,-1
 451 555 l 1,130,-1
 468 566 l 1,131,-1
 487 575 l 1,132,-1
 507 586 l 1,133,-1
 525 593 l 1,134,135
 525 592 525 592 544 597 c 1,136,-1
 568 598 l 1,137,-1
 589 604 l 1,138,-1
 611 598 l 1,139,-1
 628 597 l 1,140,-1
 649 593 l 1,141,-1
 672 586 l 1,142,143
 671 586 671 586 685 579 c 0,144,145
 766 540 766 540 795 460 c 2,146,-1
 802 442 l 1,147,-1
 804 425 l 2,148,149
 807 414 807 414 805 402 c 0,150,151
 805 397 805 397 805 392 c 2,152,-1
 805 375 l 1,153,-1
 802 361 l 2,154,155
 797 346 797 346 786 329 c 1,156,-1
 781 313 l 1,157,158
 781 314 781 314 772 305 c 0,159,160
 751 286 751 286 615 145 c 0,161,162
 573 101 573 101 489 14 c 2,163,-1
 404 -77 l 1,164,165
 376 -51 376 -51 363 -37 c 0,166,167
 352 -26 352 -26 345 -21 c 0,168,169
 335 -14 335 -14 325 2 c 0,170,171
 321 7 321 7 317 12 c 0,172,173
 312 17 312 17 304 26 c 0,174,175
 297 33 297 33 284 47 c 0,176,177
 270 62 270 62 262 69 c 0,178,179
 255 76 255 76 244 87 c 0,180,181
 207 122 207 122 188 145 c 0,182,183
 182 152 182 152 178 157 c 0,184,185
 163 173 163 173 105 230 c 0,186,187
 49 288 49 288 43 295 c 0,188,189
 39 300 39 300 37 303 c 0,190,191
 26 313 26 313 19 329 c 0,192,193
 5 350 5 350 5 361 c 2,194,-1
 4 375 l 1,195,-1
 4 425 l 1,196,197
 5 425 5 425 5 442 c 1,198,-1
 11 460 l 1,199,200
 11 459 11 459 15 468 c 0,201,202
 20 479 20 479 26 498 c 1,203,-1
 37 513 l 1,204,-1
 49 530 l 1,205,206
 49 529 49 529 57 535.5 c 128,-1,207
 65 542 65 542 79 555 c 2,208,-1
 98 566 l 1,209,-1
 119 575 l 1,210,-1
 134 586 l 1,211,-1
 155 593 l 1,212,213
 154 592 154 592 176 597 c 2,214,-1
 196 602 l 2,215,216
 210 604 210 604 219 604 c 2,217,-1
 225 602 l 2,0,1
415 344 m 0,218,219
 406 347 406 347 398 346 c 0,220,221
 366 345 366 345 356 319 c 0,222,223
 351 312 351 312 355 303 c 0,224,225
 356 288 356 288 365 279 c 0,226,227
 379 266 379 266 404 266 c 2,228,-1
 405 266 l 2,229,230
 431 266 431 266 441 289 c 0,231,232
 445 297 445 297 444 308 c 0,233,234
 443 338 443 338 415 344 c 0,218,219
360 453 m 1,235,236
 247 310 247 310 247 310.5 c 128,-1,237
 247 311 247 311 298 375 c 0,238,239
 360 452 360 452 360 453 c 1,235,236
EndSplineSet
Ligature2: "'liga' Standard Ligatures in Latin lookup 0 subtable" d a b
LCarets2: 2 256 563
EndChar

StartChar: r_o_p
Encoding: 65542 -1 60
Width: 800
VWidth: 1151
GlyphClass: 3
LigCaretCntFixed: 1
Flags: W
LayerCount: 2
Fore
SplineSet
405 632 m 1,0,1
 419 624 419 624 581 449 c 1,2,-1
 593 437 l 2,3,4
 606 428 606 428 605 425 c 0,5,6
 605 424 605 424 607 421 c 2,7,-1
 618 411 l 2,8,9
 622 407 622 407 626 403 c 0,10,11
 632 398 632 398 638 393 c 0,12,13
 649 382 649 382 677 353 c 0,14,15
 710 318 710 318 730 295 c 0,16,17
 744 280 744 280 758 265 c 0,18,19
 764 259 764 259 766 256 c 2,20,-1
 783 242 l 1,21,-1
 787 228 l 2,22,23
 792 214 792 214 796 207 c 0,24,25
 802 194 802 194 805 181 c 2,26,-1
 805 165 l 2,27,28
 805 160 805 160 804 132 c 2,29,-1
 804 113 l 1,30,31
 803 113 803 113 795 96 c 2,32,-1
 787 77 l 1,33,-1
 779 60 l 1,34,-1
 771 42 l 1,35,-1
 756 26 l 1,36,37
 757 26 757 26 742 14 c 2,38,-1
 726 2 l 2,39,40
 725 2 725 2 711 -14 c 1,41,-1
 692 -21 l 1,42,-1
 674 -28 l 1,43,-1
 653 -37 l 1,44,-1
 628 -42 l 1,45,-1
 613 -44 l 2,46,47
 613 -45 613 -45 587 -47 c 1,48,-1
 566 -44 l 1,49,-1
 545 -42 l 1,50,-1
 526 -37 l 1,51,-1
 508 -30 l 1,52,-1
 487 -21 l 1,53,54
 488 -21 488 -21 468 -14 c 1,55,-1
 453 0 l 1,56,-1
 435 14 l 1,57,-1
 421 26 l 2,58,59
 408 40 408 40 405 46 c 128,-1,60
 402 52 402 52 397 46 c 0,61,62
 393 42 393 42 394 41 c 0,63,64
 387 26 387 26 374 14 c 2,65,-1
 355 0 l 1,66,67
 356 0 356 0 340 -14 c 1,68,-1
 321 -21 l 1,69,-1
 302 -28 l 2,70,71
 301 -28 301 -28 281 -37 c 1,72,-1
 260 -42 l 1,73,-1
 240 -44 l 2,74,75
 240 -45 240 -45 217 -47 c 1,76,-1
 196 -44 l 2,77,78
 195 -44 195 -44 176 -42 c 2,79,-1
 155 -37 l 1,80,-1
 137 -30 l 1,81,-1
 119 -21 l 1,82,-1
 100 -14 l 2,83,84
 99 -14 99 -14 81 0 c 2,85,-1
 66 14 l 1,86,-1
 51 26 l 1,87,-1
 37 42 l 1,88,-1
 28 60 l 1,89,-1
 17 77 l 1,90,-1
 14 96 l 1,91,92
 17 96 17 96 5 113 c 1,93,-1
 5 132 l 2,94,95
 2 150 2 150 3 158 c 0,96,97
 3 162 3 162 4 163 c 2,98,-1
 4 181 l 1,99,100
 5 181 5 181 5 195 c 1,101,102
 10 210 10 210 17 228 c 1,103,-1
 28 244 l 1,104,-1
 39 258 l 2,105,106
 53 272 53 272 196 420 c 0,107,108
 365 595 365 595 385 614 c 2,109,-1
 405 632 l 1,0,1
292 240 m 1,110,-1
 292 258 l 2,111,112
 292 276 292 276 305 299 c 0,113,114
 336 349 336 349 396 349 c 2,115,-1
 413 349 l 1,116,117
 447 345 447 345 472 325 c 0,118,119
 510 294 510 294 511 254 c 0,120,121
 511 228 511 228 493 201 c 0,122,123
 479 179 479 179 460 166 c 0,124,125
 443 158 443 158 439 158 c 0,126,127
 437 158 437 158 438 152 c 0,128,129
 438 139 438 139 448 111 c 0,130,131
 459 83 459 83 468 68 c 1,132,133
 517 19 517 19 592 17 c 0,134,135
 592 16 592 16 614.5 18.5 c 128,-1,136
 637 21 637 21 662 35 c 0,137,138
 665 37 665 37 676 45 c 0,139,140
 708 66 708 66 725 93 c 0,141,142
 737 112 737 112 739 135 c 0,143,144
 740 146 740 146 740 165 c 2,145,-1
 740 181 l 1,146,-1
 737 195 l 2,147,148
 732 209 732 209 727 215 c 0,149,150
 717 231 717 231 684 266 c 0,151,152
 671 279 671 279 657 293 c 0,153,154
 640 310 640 310 631 322 c 0,155,156
 623 332 623 332 620 333 c 128,-1,157
 617 334 617 334 613 340 c 0,158,159
 606 349 606 349 598 355 c 0,160,161
 587 363 587 363 574 380 c 0,162,163
 553 405 553 405 506 453 c 0,164,165
 458 503 458 503 445 517 c 0,166,167
 433 531 433 531 405 558 c 1,168,-1
 253 402 l 2,169,170
 114 258 114 258 89 228 c 2,171,-1
 77 211 l 2,172,173
 76 211 76 211 71 195 c 2,174,-1
 66 179 l 1,175,-1
 66 161 l 2,176,177
 66 86 66 86 120 48 c 0,178,179
 155 23 155 23 205 17 c 1,180,181
 204 13 204 13 225 16 c 0,182,183
 291 23 291 23 332 60 c 1,184,185
 371 104 371 104 371 142 c 0,186,187
 372 155 372 155 365 155 c 0,188,189
 362 156 362 156 356 160 c 0,190,191
 352 162 352 162 351 163 c 0,192,193
 297 191 297 191 292 240 c 1,110,-1
393 289 m 1,194,195
 367 284 367 284 357 265 c 0,196,197
 353 257 353 257 354 248 c 0,198,199
 354 215 354 215 396 212 c 0,200,201
 410 211 410 211 414 214 c 0,202,203
 445 222 445 222 445 250 c 0,204,205
 445 268 445 268 431 279 c 0,206,207
 418 289 418 289 400 289 c 2,208,-1
 393 289 l 1,194,195
EndSplineSet
Ligature2: "'liga' Standard Ligatures in Latin lookup 0 subtable" r o p
LCarets2: 2 268 483
EndChar

StartChar: y_m_t
Encoding: 65543 -1 61
Width: 1132
VWidth: 1151
GlyphClass: 3
LigCaretCntFixed: 1
Flags: W
LayerCount: 2
Fore
SplineSet
919 642 m 1,0,1
 911 670 911 670 877 670 c 2,2,-1
 842 670 l 1,3,4
 842 672 842 672 838 672 c 0,5,6
 827 672 827 672 789 661 c 2,7,-1
 765 655 l 1,8,-1
 742 645 l 1,9,10
 742 647 742 647 719 634 c 1,11,-1
 700 615 l 1,12,13
 703 615 703 615 679 604 c 1,14,-1
 481 423 l 2,15,16
 480 423 480 423 281 240 c 1,17,-1
 266 225 l 1,18,-1
 249 205 l 1,19,20
 250 205 250 205 237 185 c 2,21,-1
 226 163 l 2,22,23
 225 159 225 159 220 148 c 0,24,25
 205 118 205 118 205 102 c 1,26,27
 198 81 198 81 189 63 c 2,28,-1
 172 24 l 1,29,30
 167 43 167 43 155 65 c 0,31,32
 141 99 141 99 129 142 c 1,33,-1
 121 163 l 1,34,-1
 108 185 l 1,35,-1
 95 205 l 2,36,37
 93 205 93 205 83 219 c 0,38,39
 60 249 60 249 44 253 c 0,40,41
 38 255 38 255 17 256 c 2,42,-1
 0 256 l 1,43,-1
 0 283 l 1,44,-1
 -2 313 l 1,45,-1
 14 313 l 2,46,47
 70 312 70 312 100 289 c 0,48,49
 114 282 114 282 129 260 c 2,50,-1
 149 237 l 1,51,52
 148 237 148 237 163 219 c 2,53,-1
 172 204 l 1,54,55
 177 211 177 211 185 219 c 2,56,-1
 195 237 l 1,57,-1
 215 260 l 1,58,-1
 237 287 l 1,59,60
 237 285 237 285 435 463 c 1,61,-1
 630 645 l 2,62,63
 631 645 631 645 658 663 c 2,64,-1
 681 681 l 1,65,66
 678 681 678 681 711 698 c 1,67,68
 711 697 711 697 719 701 c 0,69,70
 741 711 741 711 771 719 c 2,71,-1
 804 728 l 1,72,-1
 834 732 l 1,73,-1
 883 732 l 2,74,75
 888 730 888 730 907 728 c 0,76,77
 965 713 965 713 983 657 c 0,78,79
 987 647 987 647 985 647 c 1,80,-1
 985 621 l 1,81,-1
 985 479 l 1,82,-1
 985 -60 l 1,83,84
 994 -84 994 -84 1005 -87 c 0,85,86
 1017 -92 1017 -92 1079 -92 c 2,87,-1
 1137 -92 l 1,88,-1
 1139 -102 l 1,89,-1
 1139 -134 l 1,90,-1
 1139 -153 l 1,91,-1
 1081 -153 l 2,92,93
 1013 -153 1013 -153 984 -144 c 0,94,95
 941 -131 941 -131 925 -86 c 0,96,97
 919 -69 919 -69 919 -51 c 2,98,-1
 919 -23 l 2,99,100
 919 5 919 5 919 289 c 2,101,-1
 919 642 l 1,0,1
EndSplineSet
Ligature2: "'liga' Standard Ligatures in Latin lookup 0 subtable" y m t
LCarets2: 2 292 870
EndChar

StartChar: l_u_l
Encoding: 65544 -1 62
Width: 215
VWidth: 1148
GlyphClass: 3
LigCaretCntFixed: 1
Flags: W
LayerCount: 2
Fore
SplineSet
117 49 m 0,0,1
 156 44 156 44 185 24 c 0,2,3
 219 -4 219 -4 217 -42 c 2,4,-1
 217 -51 l 1,5,6
 212 -91 212 -91 185 -119 c 1,7,8
 151 -147 151 -147 121 -149 c 0,9,10
 108 -150 108 -150 102 -145 c 1,11,12
 57 -140 57 -140 28 -116 c 0,13,14
 -2 -91 -2 -91 -2 -51 c 2,15,-1
 -2 -39 l 1,16,17
 3 5 3 5 35 26 c 0,18,19
 63 49 63 49 101 49 c 0,20,21
 103 49 103 49 104 49 c 0,22,23
 113 50 113 50 117 49 c 0,0,1
85 743 m 0,24,25
 101 748 101 748 105 746 c 0,26,27
 108 745 108 745 116 745 c 0,28,29
 152 742 152 742 182.5 719 c 128,-1,30
 213 696 213 696 215 668 c 2,31,-1
 215 458 l 1,32,-1
 217 345 l 1,33,-1
 217 288 l 2,34,35
 217 231 217 231 214 217 c 0,36,37
 200 187 200 187 168 167 c 0,38,39
 142 151 142 151 105 151 c 0,40,41
 30 151 30 151 9 208 c 0,42,43
 -2 238 -2 238 -2 317 c 0,44,45
 -2 346 -2 346 0 458 c 2,46,-1
 2 668 l 2,47,48
 3 668 3 668 5 675 c 0,49,50
 20 727 20 727 85 743 c 0,24,25
108 207 m 2,51,-1
 114 207 l 2,52,53
 145 207 145 207 153 239 c 1,54,-1
 153 660 l 1,55,56
 146 686 146 686 100 689 c 1,57,58
 74 684 74 684 69 669 c 0,59,60
 65 657 65 657 65 587 c 0,61,62
 65 552 65 552 66 447 c 2,63,-1
 63 239 l 1,64,65
 63 242 63 242 66 234 c 0,66,67
 74 209 74 209 108 207 c 2,51,-1
150 -62 m 0,68,69
 154 -54 154 -54 154 -46.5 c 128,-1,70
 154 -39 154 -39 152 -34 c 0,71,72
 145 -14 145 -14 104 -5 c 1,73,74
 78 -5 78 -5 67 -34 c 0,75,76
 62 -49 62 -49 66 -58 c 0,77,78
 71 -82 71 -82 99 -88 c 0,79,80
 104 -90 104 -90 111 -89 c 0,81,82
 138 -90 138 -90 150 -62 c 0,68,69
EndSplineSet
Ligature2: "'liga' Standard Ligatures in Latin lookup 0 subtable" l u l
LCarets2: 2 61 153
EndChar

StartChar: t_e
Encoding: 65545 -1 63
Width: 360
VWidth: 1150
GlyphClass: 3
LigCaretCntFixed: 1
Flags: W
LayerCount: 2
Fore
SplineSet
374 750 m 1,0,-1
 374 718 l 1,1,-1
 374 688 l 1,2,-1
 313 688 l 2,3,4
 253 688 253 688 239 683.5 c 128,-1,5
 225 679 225 679 219 659 c 1,6,-1
 219 601 l 1,7,-1
 219 529 l 1,8,-1
 219 403 l 1,9,10
 217 403 217 403 225 399 c 1,11,12
 225 401 225 401 235 395 c 0,13,14
 287 368 287 368 295 318 c 1,15,-1
 295 307 l 2,16,17
 295 247 295 247 244 224 c 0,18,19
 237 220 237 220 225 215 c 1,20,-1
 217 215 l 1,21,-1
 217 88 l 1,22,-1
 217 67 l 2,23,24
 217 -52 217 -52 207 -84 c 0,25,26
 195 -119 195 -119 151 -131 c 0,27,28
 130 -136 130 -136 87 -136 c 0,29,30
 74 -136 74 -136 56 -135 c 2,31,-1
 -2 -135 l 1,32,-1
 2 -110 l 1,33,-1
 2 -78 l 1,34,-1
 119 -78 l 1,35,36
 148 -70 148 -70 152 -54 c 0,37,38
 155 -46 155 -46 154 -7 c 0,39,40
 154 22 154 22 153 85 c 2,41,-1
 153 215 l 1,42,-1
 151 215 l 2,43,44
 146 215 146 215 135 221 c 0,45,46
 85 248 85 248 79 299 c 1,47,48
 74 304 74 304 79 318 c 0,49,50
 84 374 84 374 135 394 c 0,51,52
 142 399 142 399 151 399 c 1,53,-1
 155 403 l 1,54,-1
 155 527 l 1,55,-1
 155 591 l 2,56,57
 155 667 155 667 163 692 c 0,58,59
 175 727 175 727 219 740 c 0,60,61
 254 750 254 750 329 750 c 2,62,-1
 374 750 l 1,0,-1
179 349 m 0,63,64
 152 344 152 344 144 325 c 0,65,66
 140 316 140 316 141 305 c 0,67,68
 142 288 142 288 154 278 c 0,69,70
 167 267 167 267 185 267 c 0,71,72
 205 267 205 267 217 280 c 0,73,74
 229 292 229 292 230 309 c 0,75,76
 230 335 230 335 199 347 c 0,77,78
 186 353 186 353 179 349 c 0,63,64
EndSplineSet
Ligature2: "'liga' Standard Ligatures in Latin lookup 0 subtable" t e
LCarets2: 1 102
EndChar

StartChar: k_t
Encoding: 65546 -1 64
Width: 590
VWidth: 1150
GlyphClass: 3
LigCaretCntFixed: 1
Flags: W
LayerCount: 2
Fore
SplineSet
332 740 m 1,0,-1
 332 458 l 1,1,-1
 466 458 l 1,2,-1
 469 458 l 2,3,4
 484 458 484 458 597 455 c 1,5,-1
 597 426 l 1,6,-1
 597 395 l 1,7,-1
 332 395 l 1,8,-1
 332 125 l 1,9,-1
 332 -145 l 1,10,-1
 300 -145 l 1,11,-1
 266 -145 l 1,12,-1
 266 125 l 1,13,-1
 266 395 l 1,14,-1
 132 395 l 1,15,-1
 -4 395 l 1,16,-1
 -4 455 l 1,17,-1
 4 455 l 2,18,19
 28 455 28 455 132 458 c 2,20,-1
 266 458 l 1,21,-1
 266 597 l 1,22,-1
 266 740 l 1,23,-1
 300 740 l 1,24,-1
 332 740 l 1,0,-1
EndSplineSet
Ligature2: "'liga' Standard Ligatures in Latin lookup 0 subtable" k t
LCarets2: 1 298
EndChar

StartChar: r_y_l
Encoding: 65547 -1 65
Width: 579
VWidth: 1150
GlyphClass: 3
LigCaretCntFixed: 1
Flags: W
LayerCount: 2
Fore
SplineSet
298 -28 m 1,0,-1
 289 -28 l 1,1,2
 289 -29 289 -29 282 -28 c 0,3,4
 261 -25 261 -25 237 -16 c 0,5,6
 213 -6 213 -6 202.5 4.5 c 128,-1,7
 192 15 192 15 176 45 c 0,8,9
 161 71 161 71 162 84 c 0,10,11
 162 88 162 88 163 88 c 0,12,13
 166 93 166 93 166 106 c 0,14,15
 170 150 170 150 195 170 c 0,16,17
 209 185 209 185 236 198 c 0,18,19
 262 211 262 211 286 214 c 2,20,-1
 300 214 l 1,21,-1
 319 214 l 1,22,-1
 337 213 l 2,23,24
 337 212 337 212 355 205 c 2,25,-1
 374 202 l 1,26,-1
 392 193 l 2,27,28
 416 182 416 182 454 144 c 0,29,30
 461 137 461 137 471 120 c 0,31,32
 481 105 481 105 485 96 c 0,33,34
 489 89 489 89 493 68 c 2,35,-1
 495 51 l 1,36,37
 495 53 495 53 495 48 c 0,38,39
 496 42 496 42 496 35 c 0,40,41
 496 26 496 26 495 15 c 1,42,43
 497 15 497 15 493 0 c 2,44,-1
 487 -15 l 2,45,46
 487 -16 487 -16 481 -35 c 1,47,-1
 470 -49 l 1,48,49
 451 -86 451 -86 425 -105 c 2,50,-1
 407 -119 l 1,51,-1
 392 -125 l 2,52,53
 392 -126 392 -126 381 -129 c 0,54,55
 374 -132 374 -132 355 -140 c 1,56,57
 355 -139 355 -139 334 -142 c 2,58,-1
 317 -144 l 1,59,-1
 298 -147 l 2,60,61
 297 -147 297 -147 268 -142 c 1,62,-1
 239 -142 l 1,63,-1
 213 -134 l 2,64,65
 211 -134 211 -134 206 -133 c 0,66,67
 183 -127 183 -127 144 -105 c 0,68,69
 134 -100 134 -100 129 -96 c 0,70,71
 95 -79 95 -79 70 -50 c 0,72,73
 65 -45 65 -45 63 -43 c 0,74,75
 58 -38 58 -38 47 -24 c 2,76,-1
 34 0 l 1,77,-1
 17 24 l 1,78,-1
 11 49 l 1,79,-1
 0 77 l 1,80,-1
 -4 102 l 2,81,82
 -5 103 -5 103 -5 129 c 2,83,-1
 -4 155 l 1,84,85
 -4 152 -4 152 2 185 c 1,86,-1
 11 208 l 1,87,-1
 17 235 l 2,88,89
 17 238 17 238 24 245 c 0,90,91
 34 257 34 257 47 281 c 1,92,-1
 65 302 l 1,93,-1
 85 323 l 2,94,95
 85 326 85 326 97 335 c 0,96,97
 108 342 108 342 132 360 c 1,98,-1
 151 365 l 2,99,100
 160 370 160 370 162 371 c 0,101,102
 166 373 166 373 171 376 c 0,103,104
 192 389 192 389 207 392 c 0,105,106
 212 393 212 393 239 397 c 2,107,-1
 266 402 l 1,108,109
 263 403 263 403 289 405 c 2,110,-1
 332 405 l 2,111,112
 347 405 347 405 357 405 c 128,-1,113
 367 405 367 405 375 405 c 0,114,115
 380 405 380 405 395 405 c 1,116,117
 395 405 395 405 395 405 c 1,118,119
 415 405 415 405 421 405 c 0,120,121
 436 408 436 408 444 425 c 0,122,123
 449 437 449 437 449 455 c 0,124,125
 449 465 449 465 447 489 c 2,126,-1
 447 556 l 2,127,128
 447 654 447 654 451 673 c 0,129,130
 455 692 455 692 472 712 c 0,131,132
 502 745 502 745 547 751 c 1,133,-1
 587 751 l 1,134,-1
 587 719 l 1,135,-1
 587 689 l 1,136,-1
 550 689 l 1,137,-1
 545 687 l 2,138,139
 522 679 522 679 519 668 c 0,140,141
 514 653 514 653 513 529 c 0,142,143
 512 426 512 426 502 396 c 0,144,145
 489 361 489 361 440 350 c 0,146,147
 415 344 415 344 382 344 c 2,148,-1
 289 344 l 1,149,-1
 270 342 l 1,150,151
 270 343 270 343 249 340 c 2,152,-1
 228 334 l 2,153,154
 227 334 227 334 225 333 c 0,155,156
 204 329 204 329 186 319 c 2,157,-1
 165 308 l 1,158,-1
 147 295 l 1,159,-1
 129 281 l 1,160,-1
 114 266 l 2,161,162
 114 263 114 263 100 247 c 2,163,-1
 89 230 l 2,164,165
 87 230 87 230 84 224 c 0,166,167
 77 212 77 212 71 192 c 2,168,-1
 63 172 l 1,169,-1
 60 151 l 1,170,-1
 60 129 l 1,171,-1
 60 108 l 1,172,-1
 63 87 l 1,173,-1
 71 66 l 1,174,175
 69 66 69 66 77 45 c 1,176,177
 77 46 77 46 89 26 c 2,178,-1
 100 5 l 2,179,180
 100 3 100 3 114 -8 c 2,181,-1
 129 -26 l 1,182,-1
 147 -39 l 1,183,-1
 165 -51 l 1,184,185
 164 -51 164 -51 186 -63 c 2,186,-1
 198 -68 l 2,187,188
 220 -75 220 -75 249 -86 c 1,189,-1
 275 -87 l 1,190,-1
 298 -87 l 1,191,-1
 311 -87 l 1,192,193
 373 -80 373 -80 407 -38 c 0,194,195
 422 -21 422 -21 429 1 c 0,196,197
 434 17 434 17 435 35 c 0,198,199
 435 55 435 55 423 80 c 0,200,201
 402 127 402 127 363 144 c 0,202,203
 351 149 351 149 335 154 c 0,204,205
 313 159 313 159 299 159 c 0,206,207
 297 159 297 159 296 159 c 0,208,209
 277 159 277 159 261 151 c 0,210,211
 225 134 225 134 225 95 c 0,212,213
 225 68 225 68 241 49 c 0,214,215
 258 29 258 29 289 26 c 2,216,-1
 298 26 l 1,217,218
 299 20 299 20 299 12.5 c 128,-1,219
 299 5 299 5 298 -4 c 2,220,-1
 298 -28 l 1,0,-1
EndSplineSet
Ligature2: "'liga' Standard Ligatures in Latin lookup 0 subtable" r y l
LCarets2: 2 237 479
EndChar

StartChar: d_r
Encoding: 65548 -1 66
Width: 568
VWidth: 1150
GlyphClass: 3
LigCaretCntFixed: 1
Flags: W
LayerCount: 2
Fore
SplineSet
374 716 m 1,0,-1
 374 686 l 1,1,2
 375 686 375 686 350.5 686 c 128,-1,3
 326 686 326 686 302 685 c 2,4,-1
 277 684 l 2,5,6
 277 683 277 683 266 678 c 0,7,8
 251 673 251 673 243 670 c 0,9,10
 208 658 208 658 185 645 c 2,11,-1
 165 632 l 2,12,13
 163 631 163 631 144 615 c 1,14,15
 145 615 145 615 129 599 c 1,16,17
 129 600 129 600 111 581 c 1,18,-1
 98 560 l 1,19,-1
 85 539 l 1,20,-1
 77 518 l 1,21,22
 80 518 80 518 68 495 c 1,23,-1
 66 473 l 1,24,-1
 60 448 l 2,25,26
 60 447 60 447 63 424 c 2,27,-1
 66 403 l 2,28,29
 65 402 65 402 67 395 c 0,30,31
 70 376 70 376 79 353 c 1,32,-1
 92 331 l 2,33,34
 92 330 92 330 102 310 c 1,35,-1
 119 294 l 1,36,-1
 134 276 l 1,37,-1
 153 264 l 2,38,39
 172 249 172 249 173 247 c 128,-1,40
 174 245 174 245 196 234 c 2,41,-1
 219 222 l 2,42,43
 219 220 219 220 268 205 c 1,44,-1
 270 205 l 2,45,46
 275 205 275 205 286 204 c 0,47,48
 298 202 298 202 321 201 c 1,49,50
 321 202 321 202 345 203 c 2,51,-1
 374 203 l 1,52,-1
 397 211 l 2,53,54
 423 218 423 218 445 224 c 2,55,-1
 466 232 l 1,56,57
 471 218 471 218 479 203 c 2,58,-1
 489 175 l 1,59,-1
 468 169 l 2,60,61
 408 150 408 150 381 107 c 0,62,63
 361 72 361 72 361 38 c 0,64,65
 361 -5 361 -5 386 -30 c 0,66,67
 394 -38 394 -38 408 -48 c 0,68,69
 436 -70 436 -70 458 -78 c 1,70,-1
 470 -80 l 2,71,72
 483 -85 483 -85 523 -85 c 0,73,74
 537 -85 537 -85 542 -84 c 2,75,-1
 575 -84 l 1,76,77
 577 -98 577 -98 577 -112 c 2,78,-1
 577 -136 l 1,79,-1
 542 -136 l 1,80,-1
 505 -136 l 1,81,82
 505 -135 505 -135 487 -135 c 2,83,-1
 468 -135 l 1,84,-1
 447 -125 l 2,85,86
 445 -126 445 -126 428 -122 c 1,87,-1
 413 -114 l 1,88,-1
 395 -105 l 1,89,-1
 381 -93 l 1,90,91
 383 -93 383 -93 363 -80 c 1,92,-1
 353 -65 l 2,93,94
 338 -48 338 -48 332 -35 c 2,95,-1
 321 -19 l 1,96,97
 321 -21 321 -21 319 -12 c 0,98,99
 316 -1 316 -1 311 18 c 1,100,-1
 311 34 l 1,101,-1
 308 53 l 2,102,103
 305 53 305 53 311 69 c 1,104,-1
 313 89 l 1,105,-1
 319 105 l 2,106,107
 324 120 324 120 337 141 c 1,108,-1
 329 141 l 2,109,110
 310 141 310 141 295 142 c 0,111,112
 289 143 289 143 286 142 c 0,113,114
 281 142 281 142 256 147 c 2,115,-1
 225 158 l 1,116,-1
 193 167 l 1,117,118
 195 167 195 167 186 169 c 0,119,120
 181 173 181 173 177 175 c 0,121,122
 171 180 171 180 168 180 c 0,123,124
 163 181 163 181 137 195 c 1,125,-1
 114 213 l 2,126,127
 109 217 109 217 100 225 c 0,128,129
 88 236 88 236 85 235 c 0,130,131
 70 252 70 252 69.5 256 c 128,-1,132
 69 260 69 260 63 265 c 0,133,134
 48 280 48 280 34 307 c 2,135,-1
 17 334 l 1,136,-1
 11 362 l 2,137,138
 11 363 11 363 0 392 c 1,139,-1
 -4 422 l 1,140,-1
 -4 448 l 1,141,-1
 0 478 l 1,142,-1
 4 507 l 1,143,-1
 14 535 l 1,144,-1
 26 564 l 1,145,-1
 40 592 l 1,146,147
 39 591 39 591 58 615 c 1,148,-1
 79 635 l 1,149,-1
 98 658 l 1,150,-1
 123 678 l 1,151,152
 123 677 123 677 151 697 c 1,153,-1
 181 707 l 2,154,155
 211 721 211 721 237 731 c 2,156,-1
 265 741 l 1,157,-1
 293 745 l 2,158,159
 323 749 323 749 349 748 c 2,160,-1
 374 748 l 1,161,-1
 374 716 l 1,0,-1
EndSplineSet
Ligature2: "'liga' Standard Ligatures in Latin lookup 0 subtable" d r
LCarets2: 1 303
EndChar

StartChar: s_l_e_t
Encoding: 65549 -1 68
Width: 641
VWidth: 1150
GlyphClass: 3
LigCaretCntFixed: 1
Flags: W
LayerCount: 2
Fore
SplineSet
363 321 m 2,0,-1
 363 343 l 2,1,2
 363 365 363 365 365 492 c 2,3,-1
 365 535 l 2,4,5
 365 655 365 655 376 687 c 0,6,7
 389 722 389 722 445 739 c 0,8,9
 464 744 464 744 479 745 c 2,10,-1
 495 745 l 2,11,12
 523 743 523 743 551 724 c 0,13,14
 577 704 577 704 586 677 c 0,15,16
 592 657 592 657 593 623 c 1,17,18
 593 624 593 624 593 286.5 c 128,-1,19
 593 -51 593 -51 596 -61 c 0,20,21
 597 -64 597 -64 603 -68 c 0,22,23
 617 -80 617 -80 632 -82 c 0,24,25
 637 -83 637 -83 648 -83 c 2,26,-1
 671 -83 l 1,27,-1
 671 -126 l 1,28,-1
 671 -140 l 1,29,-1
 658 -140 l 2,30,31
 620 -140 620 -140 602 -135 c 0,32,33
 555 -124 555 -124 541 -91 c 0,34,35
 527 -56 527 -56 528 138 c 0,36,37
 528 174 528 174 528 304 c 2,38,-1
 528 653 l 1,39,40
 520 685 520 685 481 685 c 2,41,-1
 479 685 l 2,42,43
 445 685 445 685 439 667 c 0,44,45
 432 646 432 646 432 489 c 2,46,-1
 432 328 l 1,47,-1
 428 314 l 1,48,-1
 426 295 l 1,49,-1
 421 275 l 1,50,-1
 415 260 l 1,51,52
 415 261 415 261 405 242 c 1,53,54
 407 242 407 242 405 238 c 0,55,56
 395 221 395 221 383 211 c 2,57,-1
 366 195 l 1,58,-1
 353 181 l 2,59,60
 353 180 353 180 334 168 c 1,61,-1
 314 160 l 1,62,-1
 298 149 l 2,63,64
 298 148 298 148 277 147 c 1,65,66
 278 147 278 147 258 140 c 1,67,-1
 237 137 l 1,68,-1
 215 137 l 1,69,70
 215 139 215 139 193 139 c 2,71,-1
 170 140 l 1,72,73
 171 140 171 140 153 147 c 1,74,-1
 132 149 l 1,75,-1
 113 160 l 1,76,-1
 95 168 l 1,77,78
 95 167 95 167 77 181 c 1,79,80
 79 181 79 181 60 195 c 1,81,82
 61 195 61 195 56 201 c 0,83,84
 48 211 48 211 35 223 c 1,85,-1
 24 242 l 1,86,-1
 14 260 l 1,87,88
 14 258 14 258 5 275 c 1,89,-1
 2 295 l 1,90,-1
 -2 315 l 2,91,92
 -4 330 -4 330 -4 337 c 2,93,-1
 -4 361 l 1,94,-1
 14 361 l 1,95,-1
 47 361 l 1,96,-1
 61 361 l 1,97,-1
 61 347 l 2,98,99
 61 312 61 312 71 287 c 0,100,101
 83 257 83 257 115 234 c 0,102,103
 150 209 150 209 188 202 c 0,104,105
 198 200 198 200 215 198 c 1,106,107
 215 199 215 199 220 199 c 0,108,109
 260 204 260 204 286 215 c 1,110,111
 321 237 321 237 336 251 c 0,112,113
 363 276 363 276 363 321 c 2,0,-1
EndSplineSet
Ligature2: "'liga' Standard Ligatures in Latin lookup 0 subtable" s l e t
LCarets2: 3 335 466 535
EndChar

StartChar: k_s
Encoding: 65550 -1 69
Width: 1058
VWidth: 1114
GlyphClass: 3
LigCaretCntFixed: 1
Flags: W
LayerCount: 2
Fore
SplineSet
33 748 m 1,0,-1
 65 745 l 1,1,-1
 95 735 l 1,2,3
 94 736 94 736 95 735 c 0,4,5
 100 735 100 735 111 733 c 0,6,7
 126 728 126 728 152 714 c 2,8,-1
 180 698 l 1,9,-1
 208 679 l 2,10,11
 209 679 209 679 212 677 c 0,12,13
 234 662 234 662 388 518 c 1,14,-1
 547 379 l 1,15,-1
 563 364 l 1,16,-1
 585 350 l 1,17,-1
 608 337 l 1,18,-1
 631 326 l 1,19,-1
 649 320 l 2,20,21
 678 313 678 313 686 313 c 2,22,-1
 687 313 l 2,23,24
 697 313 697 313 705 309 c 2,25,-1
 731 307 l 2,26,27
 731 305 731 305 757 309 c 2,28,-1
 784 315 l 1,29,-1
 810 318 l 1,30,31
 809 319 809 319 838 329 c 0,32,33
 853 334 853 334 853 334 c 2,34,35
 855 334 855 334 880 350 c 2,36,-1
 899 364 l 1,37,-1
 921 379 l 2,38,39
 923 379 923 379 938 397 c 2,40,-1
 954 415 l 1,41,-1
 965 435 l 1,42,-1
 978 455 l 1,43,-1
 985 479 l 1,44,-1
 991 504 l 1,45,-1
 995 522 l 2,46,47
 999 557 999 557 999 567 c 2,48,-1
 999 590 l 1,49,-1
 1065 590 l 1,50,51
 1065 591 1065 591 1065 576.5 c 128,-1,52
 1065 562 1065 562 1059 520 c 2,53,-1
 1056 493 l 1,54,-1
 1045 464 l 2,55,56
 1046 461 1046 461 1043 451 c 0,57,58
 1038 435 1038 435 1023 409 c 2,59,-1
 1006 381 l 2,60,61
 1006 380 1006 380 987 358 c 2,62,-1
 966 337 l 1,63,-1
 940 318 l 1,64,65
 941 318 941 318 915 297 c 1,66,67
 916 298 916 298 895 289 c 0,68,69
 885 284 885 284 856 272 c 1,70,-1
 825 264 l 1,71,-1
 795 253 l 1,72,-1
 762 251 l 1,73,-1
 731 248 l 1,74,-1
 698 251 l 1,75,-1
 665 253 l 2,76,77
 664 253 664 253 635 264 c 2,78,-1
 606 272 l 1,79,80
 608 272 608 272 578 285 c 2,81,-1
 549 297 l 2,82,83
 548 297 548 297 534 309 c 0,84,85
 508 330 508 330 506 329 c 1,86,87
 492 343 492 343 469 363 c 0,88,89
 427 398 427 398 396 430 c 0,90,91
 351 472 351 472 344 477 c 2,92,-1
 189 620 l 1,93,94
 190 619 190 619 167 632 c 1,95,-1
 147 651 l 1,96,-1
 125 662 l 1,97,-1
 102 672 l 1,98,-1
 75 677 l 2,99,100
 75 679 75 679 52 685 c 1,101,-1
 25 686 l 2,102,103
 25 687 25 687 -1 693 c 1,104,-1
 -1 750 l 1,105,-1
 33 748 l 1,0,-1
EndSplineSet
Ligature2: "'liga' Standard Ligatures in Latin lookup 0 subtable" k s
LCarets2: 1 549
EndChar

StartChar: a_y_s_h
Encoding: 65551 -1 70
Width: 660
VWidth: 1159
GlyphClass: 3
LigCaretCntFixed: 1
Flags: W
LayerCount: 2
Fore
SplineSet
317 88 m 0,0,1
 332 132 332 132 342 132 c 0,2,3
 346 132 346 132 349 123 c 0,4,5
 351 117 351 117 359 95 c 0,6,7
 374 54 374 54 383 26 c 1,8,-1
 392 9 l 1,9,10
 391 9 391 9 404 -12 c 2,11,-1
 416 -35 l 1,12,-1
 433 -52 l 2,13,14
 452 -73 452 -73 460 -78 c 0,15,16
 466 -82 466 -82 477 -82 c 2,17,-1
 507 -82 l 1,18,19
 504 -82 504 -82 509 -84 c 2,20,-1
 511 -84 l 1,21,-1
 511 -114 l 1,22,-1
 511 -142 l 1,23,-1
 495 -142 l 2,24,25
 437 -142 437 -142 412 -119 c 0,26,27
 406 -114 406 -114 383 -91 c 1,28,-1
 362 -65 l 1,29,-1
 349 -49 l 2,30,31
 338 -34 338 -34 338 -32 c 1,32,33
 333 -39 333 -39 328 -49 c 2,34,-1
 317 -65 l 1,35,-1
 294 -91 l 2,36,37
 263 -130 263 -130 229 -138 c 0,38,39
 216 -142 216 -142 198 -142 c 2,40,-1
 165 -142 l 1,41,-1
 165 -114 l 1,42,-1
 165 -84 l 1,43,-1
 185 -82 l 2,44,45
 209 -81 209 -81 219 -75 c 0,46,47
 224 -71 224 -71 244 -52 c 2,48,-1
 260 -35 l 1,49,-1
 272 -14 l 1,50,-1
 286 8 l 1,51,-1
 292 33 l 2,52,53
 297 56 297 56 302 55 c 0,54,55
 305 55 305 55 317 88 c 0,0,1
69 604 m 1,56,-1
 69 540 l 1,57,-1
 75 513 l 1,58,59
 74 513 74 513 76 507 c 0,60,61
 79 490 79 490 88 468 c 2,62,-1
 101 447 l 1,63,64
 101 450 101 450 103 446 c 0,65,66
 115 426 115 426 130 407 c 2,67,-1
 146 392 l 1,68,-1
 165 374 l 2,69,70
 181 359 181 359 194 356 c 1,71,-1
 209 347 l 2,72,73
 224 339 224 339 256 332 c 1,74,-1
 280 323 l 1,75,76
 280 326 280 326 307 321 c 2,77,-1
 334 319 l 1,78,79
 334 320 334 320 362 321 c 2,80,-1
 385 323 l 1,81,-1
 411 332 l 2,82,83
 412 333 412 333 435 340 c 2,84,-1
 458 349 l 1,85,-1
 483 360 l 1,86,87
 483 359 483 359 501 374 c 2,88,-1
 522 392 l 2,89,90
 523 392 523 392 538 407 c 0,91,92
 538 410 538 410 544 416 c 0,93,94
 554 426 554 426 563 443 c 0,95,96
 567 450 567 450 579 468 c 1,97,-1
 586 489 l 1,98,-1
 594 511 l 1,99,100
 593 511 593 511 595 528 c 0,101,102
 599 558 599 558 598 569 c 2,103,-1
 598 604 l 1,104,-1
 634 604 l 1,105,-1
 665 604 l 1,106,-1
 665 581 l 2,107,108
 665 573 665 573 663 554 c 0,109,110
 660 529 660 529 658 503 c 1,111,-1
 648 474 l 1,112,-1
 639 445 l 1,113,114
 641 445 641 445 611 395 c 1,115,116
 613 395 613 395 590 372 c 2,117,-1
 569 349 l 2,118,119
 564 342 564 342 556 332 c 0,120,121
 542 318 542 318 526 312.5 c 128,-1,122
 510 307 510 307 458 281 c 1,123,-1
 430 274 l 1,124,-1
 401 266 l 1,125,-1
 367 261 l 1,126,-1
 332 260 l 1,127,-1
 301 261 l 2,128,129
 300 261 300 261 269 266 c 2,130,-1
 237 274 l 1,131,-1
 207 281 l 1,132,-1
 179 298 l 1,133,-1
 179 298 l 1,134,135
 176 298 176 298 151 311 c 1,136,-1
 123 330 l 1,137,-1
 98 349 l 1,138,-1
 77 372 l 1,139,-1
 56 395 l 1,140,-1
 44 419 l 1,141,-1
 26 445 l 2,142,143
 26 446 26 446 20 474 c 1,144,-1
 9 503 l 1,145,146
 10 503 10 503 10 505 c 0,147,148
 10 510 10 510 7 526 c 0,149,150
 3 551 3 551 4 569 c 0,151,152
 4 575 4 575 4 583 c 2,153,-1
 4 604 l 1,154,155
 11 605 11 605 20 605 c 2,156,-1
 35 604 l 1,157,-1
 69 604 l 1,56,-1
332 658 m 2,158,-1
 346 658 l 1,159,160
 385 653 385 653 412 629 c 0,161,162
 439 605 439 605 444 572 c 1,163,-1
 444 561 l 2,164,165
 444 514 444 514 398 483 c 0,166,167
 367 461 367 461 335 460 c 0,168,169
 317 460 317 460 302 466 c 0,170,171
 272 474 272 474 250 498 c 0,172,173
 226 523 226 523 225 553 c 2,174,-1
 225 561 l 2,175,176
 225 601 225 601 256 630 c 0,177,178
 288 658 288 658 332 658 c 2,158,-1
376 572 m 0,179,180
 366 600 366 600 341 601 c 0,181,182
 339 601 339 601 338 601 c 0,183,184
 323 601 323 601 311 594 c 0,185,186
 290 582 290 582 290 560 c 0,187,188
 290 542 290 542 305 531 c 0,189,190
 318 521 318 521 334 521 c 0,191,192
 349 521 349 521 362 530 c 0,193,194
 377 544 377 544 379 561 c 0,195,196
 377 568 377 568 376 572 c 0,179,180
EndSplineSet
Ligature2: "'liga' Standard Ligatures in Latin lookup 0 subtable" a y s h
LCarets2: 3 126 230 472
EndChar

StartChar: o_y_t
Encoding: 65552 -1 71
Width: 338
VWidth: 1150
GlyphClass: 3
LigCaretCntFixed: 1
Flags: W
LayerCount: 2
Fore
SplineSet
185 50 m 0,0,1
 220 45 220 45 247 22 c 0,2,3
 274 -3 274 -3 277 -37 c 2,4,-1
 277 -47 l 2,5,6
 277 -107 277 -107 213 -138 c 0,7,8
 197 -145 197 -145 185 -145 c 2,9,-1
 176 -145 l 2,10,11
 108 -145 108 -145 73 -91 c 0,12,13
 60 -72 60 -72 60 -55 c 0,14,15
 60 -51 60 -51 60 -47 c 0,16,17
 61 -21 61 -21 74 2 c 0,18,19
 101 51 101 51 167 53 c 2,20,-1
 172 53 l 2,21,22
 180 51 180 51 185 50 c 0,0,1
308 131 m 1,23,24
 308 132 308 132 325 131 c 2,25,-1
 343 131 l 1,26,-1
 343 102 l 1,27,-1
 343 70 l 1,28,-1
 331 70 l 1,29,-1
 301 70 l 1,30,31
 262 76 262 76 243 95 c 0,32,33
 239 99 239 99 216 123 c 2,34,-1
 195 144 l 1,35,36
 196 144 196 144 185 160 c 0,37,38
 170 181 170 181 172 184 c 1,39,40
 169 177 169 177 162 165 c 2,41,-1
 148 145 l 1,42,-1
 148 146 l 1,43,44
 146 146 146 146 139 135 c 0,45,46
 123 111 123 111 106 99 c 0,47,48
 71 70 71 70 15 70 c 2,49,-1
 -3 70 l 1,50,-1
 -3 112 l 2,51,52
 -5 113 -5 113 -1 131 c 1,53,-1
 8 131 l 2,54,55
 38 131 38 131 46 133 c 0,56,57
 57 137 57 137 80 163 c 2,58,-1
 94 177 l 1,59,60
 94 176 94 176 106 198 c 2,61,-1
 120 219 l 1,62,63
 119 219 119 219 121 227 c 0,64,65
 128 265 128 265 140 274 c 1,66,-1
 140 463 l 2,67,68
 137 464 137 464 137 514 c 128,-1,69
 137 564 137 564 137 585 c 0,70,71
 142 725 142 725 215 745 c 0,72,73
 236 750 236 750 282 752 c 2,74,-1
 301 752 l 1,75,-1
 357 752 l 1,76,-1
 357 721 l 1,77,-1
 357 691 l 1,78,-1
 299 691 l 1,79,-1
 238 691 l 1,80,81
 212 684 212 684 205 659 c 1,82,-1
 205 470 l 1,83,-1
 205 278 l 1,84,85
 202 278 202 278 207 269 c 0,86,87
 217 253 217 253 216 240 c 1,88,-1
 225 219 l 2,89,90
 228 218 228 218 238 198 c 2,91,-1
 250 177 l 2,92,93
 251 177 251 177 267 163 c 1,94,95
 286 137 286 137 305 131 c 1,96,-1
 308 131 l 1,23,24
215 -47 m 1,97,98
 212 -8 212 -8 165 -5 c 0,99,100
 139 -6 139 -6 128 -33 c 0,101,102
 123 -48 123 -48 127 -58 c 0,103,104
 135 -86 135 -86 167 -87 c 2,105,-1
 183 -87 l 1,106,107
 212 -80 212 -80 215 -47 c 1,97,98
EndSplineSet
Ligature2: "'liga' Standard Ligatures in Latin lookup 0 subtable" o y t
LCarets2: 2 135 273
EndChar

StartChar: n_k
Encoding: 65553 -1 72
Width: 703
VWidth: 1150
GlyphClass: 3
LigCaretCntFixed: 1
Flags: W
LayerCount: 2
Fore
SplineSet
801 498 m 1024,0,-1
5 753 m 1,1,2
 19 748 19 748 31 747 c 2,3,-1
 62 746 l 2,4,5
 62 745 62 745 125 728 c 1,6,-1
 154 715 l 2,7,8
 154 714 154 714 182 702 c 1,9,-1
 206 683 l 2,10,11
 253 646 253 646 375 533 c 0,12,13
 472 443 472 443 505 420 c 0,14,15
 512 415 512 415 525 405 c 0,16,17
 535 397 535 397 541 392 c 0,18,19
 544 389 544 389 545 388 c 0,20,21
 552 381 552 381 557 381 c 0,22,23
 558 383 558 383 558 382 c 0,24,25
 559 378 559 378 583 365 c 2,26,-1
 604 356 l 2,27,28
 604 354 604 354 638 347 c 1,29,-1
 638 347 l 1,30,31
 641 347 641 347 673 339 c 1,32,-1
 694 339 l 1,33,-1
 716 339 l 1,34,35
 716 340 716 340 719 336 c 1,36,37
 717 336 717 336 716 278 c 1,38,39
 690 278 690 278 631 285 c 2,40,-1
 603 286 l 1,41,42
 603 283 603 283 580 286 c 2,43,-1
 378 285 l 1,44,-1
 199 271 l 1,45,-1
 199 269 l 1,46,47
 223 256 223 256 295 193 c 0,48,49
 323 168 323 168 329 164.5 c 128,-1,50
 335 161 335 161 347 149 c 0,51,52
 368 128 368 128 375 127 c 1,53,-1
 403 101 l 1,54,-1
 540 -21 l 1,55,-1
 559 -37 l 1,56,57
 558 -36 558 -36 583 -49 c 2,58,-1
 604 -60 l 1,59,-1
 631 -68 l 1,60,-1
 654 -73 l 1,61,-1
 680 -75 l 1,62,-1
 706 -79 l 2,63,64
 708 -79 708 -79 707.5 -87 c 128,-1,65
 707 -95 707 -95 706 -111 c 2,66,-1
 706 -137 l 1,67,68
 691 -135 691 -135 675 -134 c 1,69,-1
 675 -134 l 1,70,71
 671 -134 671 -134 655 -133 c 0,72,73
 642 -132 642 -132 642 -132 c 0,74,75
 638 -132 638 -132 612 -123 c 2,76,-1
 580 -113 l 1,77,78
 580 -114 580 -114 579 -113 c 0,79,80
 574 -113 574 -113 552 -102 c 1,81,-1
 551 -102 l 2,82,83
 548 -102 548 -102 525 -89 c 1,84,-1
 497 -68 l 1,85,86
 403 22 403 22 378 45 c 0,87,88
 354 67 354 67 339 76 c 0,89,90
 335 78 335 78 334 79 c 0,91,92
 328 83 328 83 326 86 c 0,93,94
 324 90 324 90 312 100 c 0,95,96
 310 101 310 101 308 102 c 0,97,98
 305 104 305 104 305 105 c 0,99,100
 295 110 295 110 243 157 c 0,101,102
 162 225 162 225 159 225 c 2,103,-1
 146 235 l 1,104,-1
 124 246 l 2,105,106
 124 247 124 247 118 249 c 0,107,108
 101 256 101 256 75 262 c 2,109,-1
 50 269 l 2,110,111
 49 269 49 269 22 271 c 1,112,-1
 -1 278 l 1,113,-1
 -1 335 l 1,114,-1
 1 335 l 2,115,116
 12 335 12 335 44 330 c 0,117,118
 84 325 84 325 104 324 c 2,119,-1
 127 324 l 2,120,121
 134 322 134 322 146 323 c 0,122,123
 152 323 152 323 165 324 c 0,124,125
 183 325 183 325 217 325 c 0,126,127
 307 330 307 330 385 335 c 0,128,129
 441 340 441 340 461 340 c 0,130,131
 480 340 480 340 484 336 c 0,132,133
 504 335 504 335 505 338 c 0,134,135
 508 340 508 340 504 343 c 0,136,137
 493 350 493 350 442 398 c 0,138,139
 365 472 365 472 285 540 c 0,140,141
 210 605 210 605 166 637 c 2,142,-1
 146 651 l 1,143,-1
 124 662 l 1,144,-1
 97 674 l 1,145,146
 100 674 100 674 75 681 c 2,147,-1
 50 688 l 2,148,149
 49 688 49 688 43 688 c 0,150,151
 22 690 22 690 -1 692 c 1,152,-1
 -1 753 l 1,153,-1
 1 753 l 1,154,-1
 5 753 l 1,1,2
-1 692 m 1,155,156
 -1 692 -1 692 -1 692 c 1,157,-1
 -1 432 l 1,158,-1
 -1 692 l 1,155,156
-1 278 m 1,159,-1
 -1 278 l 1,160,-1
 -1 181 l 1,161,-1
 -1 278 l 1,159,-1
EndSplineSet
Ligature2: "'liga' Standard Ligatures in Latin lookup 0 subtable" n k
LCarets2: 1 369
EndChar

StartChar: l_c
Encoding: 65554 -1 73
Width: 882
VWidth: 1189
GlyphClass: 3
LigCaretCntFixed: 1
Flags: W
LayerCount: 2
Fore
SplineSet
276 278 m 1,0,-1
 141 278 l 2,1,2
 92 278 92 278 62 278 c 0,3,4
 39 277 39 277 28 277 c 0,5,6
 11 277 11 277 11 279 c 0,7,8
 11 280 11 280 5 280 c 1,9,-1
 5 312 l 2,10,11
 4 340 4 340 5 340 c 2,12,-1
 26 340 l 1,13,-1
 292 338 l 1,14,-1
 341 338 l 2,15,16
 490 338 490 338 528 328 c 0,17,18
 568 317 568 317 582 275 c 0,19,20
 588 254 588 254 588 225 c 2,21,-1
 588 215 l 1,22,-1
 590 191 l 1,23,24
 595 191 595 191 603 189 c 2,25,-1
 622 187 l 1,26,-1
 650 178 l 1,27,-1
 679 174 l 1,28,-1
 710 156 l 2,29,30
 711 156 711 156 739 144 c 1,31,-1
 757 131 l 2,32,33
 772 117 772 117 782 112 c 0,34,35
 789 107 789 107 797 98 c 0,36,37
 802 93 802 93 811 83 c 0,38,39
 816 76 816 76 818 74 c 2,40,-1
 832 59 l 1,41,42
 832 61 832 61 845 35 c 2,43,-1
 860 8 l 1,44,-1
 874 -20 l 1,45,-1
 879 -48 l 2,46,47
 881 -48 881 -48 885 -75 c 0,48,49
 888 -96 888 -96 887 -108 c 0,50,51
 887 -113 887 -113 886 -120 c 2,52,-1
 886 -130 l 1,53,-1
 886 -149 l 1,54,-1
 853 -149 l 1,55,-1
 820 -149 l 1,56,-1
 820 -128 l 2,57,58
 820 -93 820 -93 818 -81 c 2,59,-1
 816 -58 l 1,60,61
 817 -58 817 -58 814 -49 c 0,62,63
 809 -36 809 -36 805 -28 c 0,64,65
 800 -12 800 -12 788 6 c 2,66,-1
 775 28 l 1,67,68
 777 28 777 28 760 45 c 2,69,-1
 741 63 l 1,70,71
 741 62 741 62 722 80 c 2,72,-1
 705 93 l 1,73,-1
 679 105 l 1,74,-1
 657 115 l 1,75,-1
 632 123 l 1,76,-1
 605 131 l 2,77,78
 603 132 603 132 595 132 c 0,79,80
 581 133 581 133 569 135 c 0,81,82
 563 136 563 136 555 135 c 0,83,84
 543 135 543 135 529 133 c 2,85,-1
 505 131 l 2,86,87
 505 130 505 130 478 123 c 2,88,-1
 453 115 l 1,89,-1
 431 105 l 1,90,-1
 407 93 l 1,91,-1
 386 78 l 1,92,-1
 367 63 l 1,93,-1
 350 45 l 1,94,95
 350 46 350 46 334 28 c 1,96,-1
 321 6 l 1,97,-1
 310 -15 l 1,98,-1
 303 -35 l 2,99,100
 303 -37 303 -37 295 -58 c 2,101,-1
 292 -79 l 2,102,103
 288 -113 288 -113 288 -122 c 2,104,-1
 288 -149 l 1,105,-1
 257 -149 l 1,106,-1
 224 -149 l 1,107,-1
 224 -128 l 2,108,109
 224 -120 224 -120 226 -77 c 1,110,-1
 231 -48 l 2,111,112
 232 -48 232 -48 234 -34 c 1,113,114
 239 -20 239 -20 243 -8 c 0,115,116
 247 7 247 7 252 14 c 0,117,118
 256 19 256 19 263 35 c 2,119,-1
 278 59 l 1,120,121
 277 59 277 59 287 69 c 0,122,123
 301 83 301 83 320 106 c 1,124,-1
 348 125 l 1,125,126
 348 124 348 124 371 144 c 1,127,-1
 401 156 l 2,128,129
 427 170 427 170 469 184 c 1,130,-1
 490 187 l 1,131,-1
 507 189 l 1,132,-1
 524 191 l 1,133,-1
 524 219 l 2,134,135
 524 243 524 243 521 252 c 0,136,137
 516 272 516 272 486 278 c 1,138,-1
 297 278 l 1,139,-1
 276 278 l 1,0,-1
EndSplineSet
Ligature2: "'liga' Standard Ligatures in Latin lookup 0 subtable" l c
LCarets2: 1 435
EndChar

StartChar: l_t_s
Encoding: 65555 -1 74
Width: 972
VWidth: 1150
GlyphClass: 3
LigCaretCntFixed: 1
Flags: W
LayerCount: 2
Fore
SplineSet
137 277 m 0,0,1
 129 274 129 274 60 275 c 2,2,-1
 2 275 l 1,3,-1
 2 335 l 1,4,-1
 62 336 l 2,5,6
 119 336 119 336 133 340.5 c 128,-1,7
 147 345 147 345 152 358 c 0,8,9
 157 373 157 373 157 448 c 0,10,11
 157 470 157 470 157 512 c 2,12,-1
 157 541 l 2,13,14
 157 664 157 664 167 693 c 0,15,16
 175 718 175 718 215 738 c 0,17,18
 241 752 241 752 269 752 c 0,19,20
 317 752 317 752 351 717 c 0,21,22
 376 692 376 692 380 661 c 2,23,-1
 381 650 l 1,24,-1
 380 629 l 2,25,26
 380 610 380 610 384 587 c 2,27,-1
 386 566 l 1,28,-1
 394 543 l 1,29,-1
 401 520 l 1,30,-1
 413 497 l 1,31,-1
 427 478 l 1,32,-1
 439 465 l 2,33,34
 447 457 447 457 450 451 c 0,35,36
 454 441 454 441 468 432 c 0,37,38
 480 425 480 425 488 417 c 0,39,40
 501 406 501 406 524 398 c 2,41,-1
 545 387 l 1,42,-1
 569 384 l 1,43,-1
 594 375 l 1,44,-1
 620 373 l 1,45,-1
 646 371 l 1,46,-1
 673 373 l 2,47,48
 673 374 673 374 681 375 c 0,49,50
 704 376 704 376 725 384 c 1,51,-1
 748 387 l 1,52,53
 748 384 748 384 758 390 c 0,54,55
 773 398 773 398 781 402 c 0,56,57
 796 409 796 409 815 425 c 2,58,-1
 834 440 l 2,59,60
 834 443 834 443 852 459 c 2,61,-1
 869 478 l 1,62,-1
 881 497 l 1,63,-1
 892 520 l 1,64,-1
 901 541 l 2,65,66
 901 542 901 542 906 565 c 2,67,-1
 910 585 l 2,68,69
 914 606 914 606 913 633 c 2,70,-1
 913 654 l 1,71,-1
 946 654 l 1,72,-1
 978 654 l 1,73,-1
 978 629 l 2,74,75
 978 590 978 590 977 579 c 0,76,77
 975 558 975 558 959 524 c 1,78,-1
 954 495 l 1,79,-1
 938 469 l 1,80,-1
 922 446 l 2,81,82
 922 445 922 445 902 419 c 1,83,-1
 881 398 l 1,84,-1
 854 378 l 2,85,86
 853 378 853 378 833 361 c 1,87,-1
 801 345 l 1,88,89
 801 346 801 346 773 333 c 1,90,-1
 743 324 l 2,91,92
 743 323 743 323 712 314 c 1,93,-1
 678 314 l 1,94,-1
 646 310 l 1,95,-1
 613 314 l 1,96,-1
 609 314 l 2,97,98
 602 314 602 314 580 314 c 1,99,-1
 550 324 l 2,100,101
 550 325 550 325 520 333 c 1,102,-1
 492 345 l 2,103,104
 491 345 491 345 462 361 c 1,105,-1
 439 378 l 2,106,107
 438 378 438 378 412 398 c 1,108,-1
 392 419 l 1,109,-1
 369 443 l 2,110,111
 366 442 366 442 357 469 c 1,112,-1
 339 495 l 1,113,-1
 331 524 l 1,114,115
 331 521 331 521 322 554 c 1,116,-1
 317 585 l 2,117,118
 313 600 313 600 314 613 c 0,119,120
 314 619 314 619 315 625 c 2,121,-1
 315 657 l 2,122,123
 315 678 315 678 290 686 c 0,124,125
 279 690 279 690 268 690 c 0,126,127
 235 690 235 690 222 659 c 1,128,-1
 222 67 l 1,129,-1
 222 -39 l 1,130,-1
 222 -50 l 1,131,-1
 218 -65 l 1,132,133
 203 -114 203 -114 163 -125 c 0,134,135
 135 -133 135 -133 60 -134 c 2,136,-1
 2 -134 l 1,137,138
 1 -78 1 -78 1 -58 c 1,139,140
 1 -58 1 -58 1 -58 c 1,141,-1
 2 -76 l 1,142,-1
 60 -76 l 2,143,144
 120 -76 120 -76 133 -73 c 0,145,146
 148 -69 148 -69 153 -52 c 0,147,148
 157 -37 157 -37 157 4 c 2,149,-1
 157 50 l 1,150,-1
 157 167 l 2,151,152
 157 278 157 278 139 278 c 0,153,154
 138 277 138 277 137 277 c 0,0,1
EndSplineSet
Ligature2: "'liga' Standard Ligatures in Latin lookup 0 subtable" l t s
LCarets2: 2 154 305
EndChar

StartChar: t_s
Encoding: 65556 -1 75
Width: 959
VWidth: 1150
GlyphClass: 3
LigCaretCntFixed: 1
Flags: W
LayerCount: 2
Fore
SplineSet
150 -48 m 2,0,-1
 150 552 l 2,1,2
 151 587 151 587 151 610 c 0,3,4
 151 626 151 626 151 629 c 0,5,6
 150 633 150 633 150 663 c 1,7,-1
 155 676 l 2,8,9
 169 716 169 716 213 735 c 0,10,11
 229 742 229 742 253 748 c 1,12,13
 287 747 287 747 313 735 c 0,14,15
 369 707 369 707 371 634 c 1,16,17
 371 635 371 635 371 617.5 c 128,-1,18
 371 600 371 600 374 581 c 2,19,-1
 374 560 l 1,20,21
 377 560 377 560 385 535 c 1,22,23
 386 537 386 537 389 515 c 1,24,-1
 404 492 l 1,25,26
 403 492 403 492 415 473 c 2,27,-1
 425 462 l 2,28,29
 427 462 427 462 434 455 c 2,30,-1
 447 434 l 2,31,32
 450 434 450 434 473 417 c 0,33,34
 495 401 495 401 512 392 c 0,35,36
 532 381 532 381 561 375 c 2,37,-1
 585 369 l 1,38,-1
 611 367 l 1,39,-1
 637 364 l 2,40,41
 638 364 638 364 666 367 c 2,42,-1
 689 369 l 1,43,-1
 713 375 l 1,44,-1
 740 381 l 1,45,46
 740 380 740 380 744 383 c 0,47,48
 763 395 763 395 785 405 c 1,49,-1
 804 422 l 1,50,-1
 825 434 l 1,51,52
 824 434 824 434 839 455 c 1,53,54
 839 453 839 453 856 469 c 0,55,56
 859 469 859 469 865 481 c 0,57,58
 870 492 870 492 874 501 c 0,59,60
 882 516 882 516 889 535 c 2,61,-1
 896 558 l 1,62,-1
 900 578 l 2,63,64
 902 595 902 595 902 606 c 128,-1,65
 902 617 902 617 900 622 c 2,66,-1
 900 646 l 1,67,-1
 934 648 l 1,68,-1
 968 648 l 1,69,-1
 968 625 l 2,70,71
 968 618 968 618 963 576 c 2,72,-1
 961 548 l 1,73,74
 961 551 961 551 953 518 c 0,75,76
 950 518 950 518 946 503.5 c 128,-1,77
 942 489 942 489 935 476 c 0,78,79
 930 465 930 465 911 437 c 1,80,-1
 892 415 l 1,81,-1
 870 392 l 1,82,-1
 845 373 l 1,83,-1
 817 355 l 1,84,-1
 792 341 l 1,85,-1
 763 326 l 2,86,87
 760 325 760 325 732 318 c 2,88,-1
 700 310 l 1,89,-1
 668 307 l 1,90,-1
 637 305 l 1,91,92
 637 306 637 306 604 307 c 2,93,-1
 571 310 l 1,94,95
 571 309 571 309 570 309 c 0,96,97
 565 309 565 309 540 318 c 2,98,-1
 511 326 l 1,99,-1
 481 341 l 1,100,-1
 449 355 l 2,101,102
 449 356 449 356 426 371 c 0,103,104
 384 406 384 406 353 455 c 0,105,106
 334 490 334 490 323 518 c 0,107,108
 321 523 321 523 319 525 c 0,109,110
 315 529 315 529 311 548 c 1,111,-1
 311 568 l 1,112,113
 312 568 312 568 309 576 c 0,114,115
 304 602 304 602 304 638 c 0,116,117
 304 653 304 653 302 660 c 0,118,119
 297 676 297 676 276 684 c 0,120,121
 268 687 268 687 263 686 c 0,122,123
 257 686 257 686 250 685 c 0,124,125
 225 680 225 680 214 653 c 1,126,-1
 214 81 l 1,127,-1
 214 -43 l 1,128,-1
 214 -54 l 1,129,130
 213 -54 213 -54 211 -60 c 0,131,132
 190 -119 190 -119 144 -133 c 0,133,134
 126 -138 126 -138 83 -138 c 0,135,136
 70 -138 70 -138 51 -138 c 2,137,-1
 -5 -138 l 1,138,-1
 -5 -112 l 1,139,-1
 -5 -80 l 1,140,-1
 53 -80 l 2,141,142
 109 -80 109 -80 123 -76 c 0,143,144
 142 -71 142 -71 145 -50 c 1,145,146
 148 -53 148 -53 150 -48 c 2,0,-1
EndSplineSet
Ligature2: "'liga' Standard Ligatures in Latin lookup 0 subtable" t s
LCarets2: 1 225
EndChar

StartChar: m_s
Encoding: 65557 -1 76
Width: 1293
VWidth: 1111
GlyphClass: 3
LigCaretCntFixed: 1
Flags: W
LayerCount: 2
Fore
SplineSet
635 625 m 2,0,1
 635 685 635 685 599 685 c 2,2,-1
 586 684 l 2,3,4
 573 683 573 683 557 668 c 0,5,6
 544 657 544 657 410 541 c 0,7,8
 131 300 131 300 125 295 c 0,9,10
 124 293 124 293 121 292 c 0,11,12
 115 290 115 290 113 287 c 2,13,-1
 107 283 l 1,14,15
 107 284 107 284 94 280 c 2,16,-1
 77 275 l 1,17,-1
 60 274 l 1,18,-1
 43 274 l 1,19,-1
 18 274 l 1,20,-1
 -5 274 l 1,21,22
 -4 275 -4 275 -7 304 c 1,23,-1
 -5 335 l 2,24,25
 -5 337 -5 337 5 336 c 0,26,27
 7 336 7 336 8 336 c 0,28,29
 21 336 21 336 41 335 c 0,30,31
 55 334 55 334 63 335 c 0,32,33
 72 335 72 335 75 335 c 0,34,35
 80 336 80 336 87 343 c 0,36,37
 112 363 112 363 295 525 c 0,38,39
 470 681 470 681 497 704 c 1,40,41
 523 730 523 730 541 735 c 1,42,43
 562 746 562 746 583 746 c 0,44,45
 586 746 586 746 589 746 c 0,46,47
 594 745 594 745 603 745 c 0,48,49
 637 742 637 742 663 721 c 0,50,51
 685 704 685 704 693 679 c 0,52,53
 700 659 700 659 701 598 c 0,54,55
 701 591 701 591 701 577 c 2,56,-1
 704 556 l 2,57,58
 705 556 705 556 711 533 c 1,59,-1
 722 511 l 1,60,-1
 732 490 l 1,61,-1
 743 468 l 1,62,63
 743 470 743 470 752 460 c 128,-1,64
 761 450 761 450 765 446 c 0,65,66
 779 430 779 430 797 417 c 2,67,-1
 816 402 l 1,68,-1
 839 389 l 1,69,-1
 860 379 l 1,70,-1
 888 372 l 2,71,72
 888 368 888 368 940 365 c 2,73,-1
 964 363 l 1,74,-1
 985 365 l 2,75,76
 1009 369 1009 369 1012 366 c 0,77,78
 1014 365 1014 365 1015 366 c 0,79,80
 1020 366 1020 366 1034 369 c 0,81,82
 1042 372 1042 372 1047 374 c 0,83,84
 1072 379 1072 379 1090 389 c 2,85,-1
 1113 402 l 1,86,-1
 1134 417 l 2,87,88
 1137 416 1137 416 1147 428 c 0,89,90
 1153 434 1153 434 1169 451 c 2,91,-1
 1185 468 l 1,92,93
 1184 468 1184 468 1197 490 c 2,94,-1
 1211 511 l 1,95,-1
 1216 533 l 2,96,97
 1216 534 1216 534 1226 556 c 1,98,-1
 1226 577 l 1,99,100
 1230 601 1230 601 1230 625 c 2,101,-1
 1230 645 l 1,102,-1
 1262 645 l 1,103,-1
 1298 645 l 1,104,-1
 1298 626 l 2,105,106
 1298 619 1298 619 1295 603 c 0,107,108
 1290 574 1290 574 1290 545 c 1,109,-1
 1279 515 l 1,110,-1
 1271 490 l 1,111,112
 1272 490 1272 490 1256 463 c 2,113,-1
 1239 437 l 2,114,115
 1237 437 1237 437 1218 412 c 2,116,-1
 1198 389 l 1,117,-1
 1175 370 l 1,118,119
 1176 370 1176 370 1170 366 c 0,120,121
 1151 353 1151 353 1120 337 c 2,122,-1
 1090 325 l 1,123,124
 986 294 986 294 900 268 c 1,125,126
 1000 299 1000 299 1000 303 c 0,127,128
 1000 304 1000 304 998 304 c 2,129,-1
 997 304 l 1,130,-1
 964 302 l 1,131,132
 964 303 964 303 934 304 c 0,133,134
 897 309 897 309 860 317 c 1,135,136
 863 318 863 318 855 320 c 0,137,138
 838 324 838 324 807 337 c 1,139,-1
 783 354 l 1,140,-1
 755 370 l 1,141,-1
 755 370 l 1,142,143
 755 372 755 372 732 389 c 1,144,-1
 709 412 l 2,145,146
 678 443 678 443 658 490 c 2,147,-1
 648 515 l 1,148,-1
 639 545 l 2,149,150
 638 545 638 545 637 568 c 0,151,152
 634 589 634 589 635 602 c 2,153,-1
 635 625 l 2,0,1
900 268 m 1,154,155
 488 145 488 145 488 145 c 1,156,-1
 619 184 l 2,157,158
 805 238 805 238 900 268 c 1,154,155
EndSplineSet
Ligature2: "'liga' Standard Ligatures in Latin lookup 0 subtable" m s
LCarets2: 1 572
EndChar

StartChar: n_v
Encoding: 65558 -1 77
Width: 637
VWidth: 1150
GlyphClass: 3
LigCaretCntFixed: 1
Flags: W
LayerCount: 2
Fore
SplineSet
-3 413 m 2,0,1
 -6 434 -6 434 -5 437 c 0,2,3
 -5 442 -5 442 -1 476 c 2,4,-1
 2 503 l 1,5,-1
 13 529 l 1,6,-1
 22 559 l 1,7,8
 20 559 20 559 35 585 c 2,9,-1
 50 610 l 1,10,-1
 75 633 l 1,11,-1
 90 655 l 2,12,13
 91 655 91 655 98 661 c 0,14,15
 118 675 118 675 122 677 c 0,16,17
 145 693 145 693 173 707 c 2,18,-1
 203 724 l 1,19,20
 203 723 203 723 231 728 c 1,21,-1
 260 738 l 1,22,-1
 294 742 l 1,23,-1
 328 745 l 2,24,25
 329 745 329 745 362 742 c 2,26,-1
 392 738 l 2,27,28
 393 738 393 738 423 731 c 2,29,-1
 454 724 l 2,30,31
 454 723 454 723 464 717 c 0,32,33
 492 700 492 700 507 695 c 0,34,35
 518 691 518 691 533 679 c 0,36,37
 536 676 536 676 541 674 c 2,38,-1
 562 655 l 1,39,-1
 581 633 l 2,40,41
 581 632 581 632 605 610 c 1,42,-1
 616 585 l 2,43,44
 617 585 617 585 634 559 c 1,45,-1
 641 531 l 1,46,-1
 652 503 l 1,47,48
 652 506 652 506 653 498 c 0,49,50
 657 472 657 472 656 445 c 0,51,52
 656 431 656 431 655 413 c 2,53,-1
 652 385 l 2,54,55
 652 383 652 383 641 357 c 1,56,-1
 634 328 l 1,57,-1
 616 303 l 1,58,-1
 605 275 l 2,59,60
 605 274 605 274 581 252 c 0,61,62
 581 249 581 249 562 231 c 2,63,-1
 535 212 l 2,64,65
 535 211 535 211 527 205 c 0,66,67
 512 192 512 192 509.5 192 c 128,-1,68
 507 192 507 192 484 178 c 1,69,-1
 454 166 l 2,70,71
 454 164 454 164 423 157 c 2,72,-1
 392 147 l 1,73,-1
 392 147 l 1,74,75
 388 147 388 147 360 145 c 2,76,-1
 327 142 l 1,77,-1
 303 145 l 2,78,79
 301 145 301 145 299 145 c 0,80,81
 290 145 290 145 290 140 c 0,82,83
 290 134 290 134 307 119 c 0,84,85
 317 111 317 111 362 68 c 2,86,-1
 448 -9 l 1,87,88
 447 -9 447 -9 470 -24 c 1,89,-1
 490 -41 l 1,90,91
 490 -40 490 -40 513 -53 c 2,92,-1
 535 -64 l 1,93,94
 534 -64 534 -64 542 -65 c 0,95,96
 562 -71 562 -71 585 -76 c 2,97,-1
 613 -79 l 1,98,-1
 638 -83 l 1,99,-1
 638 -115 l 1,100,-1
 638 -141 l 1,101,-1
 634 -141 l 1,102,-1
 603 -139 l 2,103,104
 572 -137 572 -137 543 -126 c 2,105,-1
 512 -116 l 1,106,107
 512 -117 512 -117 511 -116 c 0,108,109
 507 -116 507 -116 485 -105 c 1,110,-1
 485 -105 l 2,111,112
 481 -105 481 -105 457 -94 c 1,113,-1
 427 -72 l 1,114,-1
 403 -51 l 1,115,116
 404 -51 404 -51 278 61 c 0,117,118
 278 64 278 64 172 159 c 0,119,120
 83 239 83 239 84 242 c 2,121,-1
 49 280 l 2,122,123
 50 282 50 282 47 285 c 0,124,125
 28 308 28 308 6 368 c 1,126,127
 7 368 7 368 2 385 c 2,128,-1
 -3 413 l 2,0,1
216 223 m 1,129,130
 267 208 267 208 276 206 c 2,131,-1
 290 206 l 1,132,-1
 290 210 l 1,133,-1
 362 210 l 1,134,-1
 362 206 l 1,135,-1
 365 206 l 2,136,137
 380 206 380 206 395 211 c 0,138,139
 405 214 405 214 414 216 c 0,140,141
 427 221 427 221 452 231 c 0,142,143
 452 234 452 234 463 237 c 0,144,145
 478 242 478 242 496 258 c 0,146,147
 503 265 503 265 507 268 c 0,148,149
 512 273 512 273 531 293 c 1,150,151
 531 292 531 292 550 307 c 1,152,-1
 560 328 l 1,153,-1
 573 350 l 1,154,-1
 581 371 l 1,155,156
 580 371 580 371 585 397 c 2,157,-1
 590 421 l 1,158,-1
 592 442 l 1,159,-1
 590 466 l 1,160,-1
 585 491 l 2,161,162
 585 492 585 492 581 515 c 1,163,-1
 573 536 l 1,164,-1
 560 557 l 1,165,-1
 550 578 l 1,166,-1
 533 595 l 1,167,-1
 518 613 l 1,168,-1
 513 613 l 1,169,170
 506 618 506 618 495 629 c 2,171,-1
 476 644 l 1,172,-1
 452 654 l 1,173,-1
 427 666 l 1,174,-1
 405 674 l 2,175,176
 404 674 404 674 399 675 c 0,177,178
 375 681 375 681 352 685 c 0,179,180
 338 687 338 687 325 685 c 0,181,182
 312 685 312 685 299 684 c 2,183,-1
 276 680 l 2,184,185
 276 679 276 679 225 668 c 1,186,-1
 203 654 l 1,187,-1
 180 644 l 1,188,-1
 160 629 l 2,189,190
 160 628 160 628 139 613 c 2,191,-1
 122 596 l 1,192,193
 123 597 123 597 107 578 c 1,194,195
 107 581 107 581 96 557 c 1,196,-1
 81 536 l 1,197,-1
 76 515 l 1,198,-1
 65 491 l 1,199,-1
 65 466 l 1,200,-1
 62 444 l 2,201,202
 62 443 62 443 63 438 c 0,203,204
 67 421 67 421 67 397 c 1,205,-1
 76 374 l 1,206,-1
 81 350 l 1,207,-1
 96 328 l 2,208,209
 96 327 96 327 107 307 c 1,210,-1
 122 291 l 1,211,212
 121 291 121 291 141 274 c 2,213,-1
 160 259 l 2,214,215
 186 242 186 242 203 231 c 2,216,-1
 216 223 l 1,129,130
EndSplineSet
Ligature2: "'liga' Standard Ligatures in Latin lookup 0 subtable" n v
LCarets2: 1 267
EndChar

StartChar: v_a_s_t
Encoding: 65559 -1 78
Width: 997
VWidth: 1150
GlyphClass: 3
LigCaretCntFixed: 1
Flags: W
LayerCount: 2
Fore
SplineSet
435 89 m 2,0,1
 456 86 456 86 459 86 c 2,2,-1
 467 86 l 1,3,-1
 467 145 l 1,4,5
 467 143 467 143 449 147 c 1,6,-1
 434 147 l 1,7,8
 434 146 434 146 433 146 c 0,9,10
 429 146 429 146 404 157 c 2,11,-1
 372 166 l 2,12,13
 372 169 372 169 358 174 c 0,14,15
 342 179 342 179 312 192 c 1,16,17
 314 192 314 192 303 201 c 0,18,19
 291 211 291 211 265 231 c 1,20,-1
 244 252 l 1,21,-1
 223 275 l 1,22,-1
 213 293 l 2,23,24
 209 300 209 300 205 307 c 0,25,26
 201 312 201 312 199 316 c 0,27,28
 192 331 192 331 183 355 c 0,29,30
 179 366 179 366 177 374 c 1,31,-1
 152 321 l 1,32,-1
 177 374 l 1,33,34
 172 394 172 394 170 413 c 2,35,-1
 165 442 l 1,36,-1
 170 471 l 2,37,38
 171 471 171 471 172 503 c 1,39,-1
 183 529 l 1,40,-1
 192 559 l 1,41,42
 191 559 191 559 206 585 c 2,43,-1
 223 610 l 1,44,-1
 244 633 l 2,45,46
 245 633 245 633 252 641 c 0,47,48
 267 657 267 657 279 666 c 0,49,50
 290 673 290 673 312 695 c 1,51,52
 312 694 312 694 343 707 c 2,53,-1
 372 724 l 1,54,-1
 404 731 l 1,55,-1
 434 738 l 2,56,57
 435 738 435 738 465 742 c 2,58,-1
 496 745 l 1,59,-1
 501 745 l 1,60,61
 509 741 509 741 530 742 c 2,62,-1
 562 738 l 1,63,-1
 594 731 l 1,64,-1
 625 724 l 1,65,-1
 648 710 l 2,66,67
 663 703 663 703 670 697 c 0,68,69
 675 692 675 692 681.5 691.5 c 128,-1,70
 688 691 688 691 695 684 c 0,71,72
 700 679 700 679 707 675 c 2,73,-1
 730 655 l 1,74,-1
 751 633 l 2,75,76
 751 632 751 632 772 610 c 1,77,-1
 788 585 l 2,78,79
 789 585 789 585 804 557 c 2,80,-1
 815 529 l 1,81,-1
 823 503 l 1,82,-1
 827 474 l 1,83,84
 826 474 826 474 826 465 c 0,85,86
 826 459 826 459 826 454 c 0,87,88
 827 443 827 443 827 413 c 1,89,-1
 823 385 l 2,90,91
 822 383 822 383 815 357 c 2,92,-1
 804 328 l 1,93,-1
 788 303 l 2,94,95
 787 303 787 303 783 295 c 0,96,97
 772 274 772 274 751 252 c 0,98,99
 751 249 751 249 730 231 c 2,100,-1
 707 212 l 2,101,102
 707 211 707 211 697 205 c 0,103,104
 681 192 681 192 679 192 c 128,-1,105
 677 192 677 192 671 188 c 0,106,107
 654 178 654 178 625 166 c 1,108,109
 628 164 628 164 594 157 c 2,110,-1
 562 147 l 1,111,112
 565 144 565 144 551 147 c 0,113,114
 546 145 546 145 544 145 c 0,115,116
 540 144 540 144 530 145 c 1,117,-1
 530 86 l 1,118,-1
 533 86 l 1,119,-1
 544 86 l 2,120,121
 549 86 549 86 570 89 c 2,122,-1
 583 93 l 2,123,124
 597 97 597 97 610 97 c 0,125,126
 641 101 641 101 665 114 c 2,127,-1
 701 129 l 1,128,-1
 739 149 l 1,129,-1
 770 171 l 1,130,-1
 802 197 l 1,131,132
 799 198 799 198 827 229 c 1,133,134
 826 227 826 227 856 254 c 1,135,-1
 875 291 l 2,136,137
 876 291 876 291 880 296 c 0,138,139
 897 323 897 323 909 361 c 2,140,-1
 920 397 l 2,141,142
 922 397 922 397 922 421 c 2,143,-1
 925 442 l 2,144,145
 929 464 929 464 928 484 c 2,146,-1
 928 545 l 1,147,-1
 967 545 l 1,148,-1
 1004 545 l 1,149,-1
 1004 507 l 1,150,-1
 1004 475 l 1,151,152
 1005 475 1005 475 1002 431 c 1,153,-1
 995 389 l 1,154,-1
 981 345 l 1,155,-1
 967 303 l 1,156,-1
 951 275 l 2,157,158
 946 270 946 270 935 251 c 0,159,160
 930 242 930 242 929 241 c 0,161,162
 927 239 927 239 920 223 c 1,163,-1
 888 189 l 1,164,-1
 856 150 l 1,165,-1
 817 124 l 1,166,-1
 817 124 l 1,167,168
 814 124 814 124 780 95 c 1,169,-1
 735 74 l 2,170,171
 733 74 733 74 731 72 c 0,172,173
 689 53 689 53 646 39 c 2,174,-1
 596 25 l 1,175,-1
 564 23 l 2,176,177
 564 22 564 22 532 21 c 1,178,179
 530 14 530 14 530 -18.5 c 128,-1,180
 530 -51 530 -51 528 -72 c 1,181,182
 511 -121 511 -121 462 -135 c 0,183,184
 442 -140 442 -140 399 -141 c 0,185,186
 386 -141 386 -141 369 -141 c 2,187,-1
 312 -141 l 1,188,-1
 312 -95 l 1,189,-1
 312 -83 l 1,190,-1
 372 -83 l 1,191,-1
 430 -83 l 1,192,193
 456 -76 456 -76 464 -57 c 0,194,195
 468 -47 468 -47 467 -27 c 2,196,-1
 467 -4 l 2,197,198
 467 20 467 20 452 22 c 0,199,200
 448 23 448 23 434 23 c 2,201,-1
 401 25 l 2,202,203
 401 27 401 27 401 28 c 0,204,205
 354 42 354 42 305 52 c 1,206,-1
 260 74 l 1,207,-1
 216 95 l 1,208,-1
 196 108 l 1,209,210
 172 129 172 129 159 136 c 1,211,212
 161 136 161 136 141 150 c 1,213,-1
 109 187 l 2,214,215
 79 222 79 222 62 252 c 0,216,217
 50 273 50 273 35 291 c 1,218,-1
 30 303 l 2,219,220
 32 304 32 304 16 345 c 2,221,-1
 2 389 l 2,222,223
 -1 389 -1 389 -5 433 c 2,224,-1
 -5 457 l 2,225,226
 -6 496 -6 496 -6 545 c 1,227,-1
 30 545 l 1,228,-1
 69 545 l 1,229,-1
 69 507 l 1,230,-1
 69 475 l 1,231,232
 68 475 68 475 69 461 c 0,233,234
 71 436 71 436 77 397 c 1,235,-1
 88 361 l 1,236,237
 87 361 87 361 101 324 c 1,238,-1
 120 291 l 1,239,240
 119 291 119 291 119 290 c 0,241,242
 119 287 119 287 141 259 c 2,243,-1
 167 229 l 1,244,-1
 194 197 l 1,245,246
 194 198 194 198 202 192 c 0,247,248
 226 173 226 173 249 157 c 1,249,-1
 258 149 l 1,250,-1
 298 129 l 1,251,-1
 332 114 l 1,252,-1
 375 103 l 1,253,254
 374 103 374 103 415 93 c 2,255,-1
 435 89 l 2,0,1
469 684 m 2,256,-1
 446 680 l 2,257,258
 446 679 446 679 422 674 c 2,259,-1
 395 668 l 1,260,-1
 375 655 l 2,261,262
 374 655 374 655 351 644 c 2,263,-1
 330 629 l 2,264,265
 329 628 329 628 312 613 c 2,266,-1
 294 596 l 1,267,268
 299 597 299 597 277 578 c 1,269,270
 278 581 278 581 265 557 c 2,271,-1
 243 513 l 1,272,-1
 237 491 l 2,273,274
 240 489 240 489 235 466 c 2,275,-1
 234 444 l 2,276,277
 235 443 235 443 235 421 c 2,278,-1
 237 397 l 1,279,-1
 246 374 l 2,280,281
 247 374 247 374 254 350 c 1,282,-1
 265 328 l 2,283,284
 267 328 267 328 277 310 c 1,285,-1
 294 293 l 2,286,287
 294 290 294 290 312 274 c 2,288,-1
 330 259 l 1,289,290
 330 261 330 261 349 242 c 1,291,-1
 375 231 l 1,292,293
 375 234 375 234 395 221 c 1,294,-1
 422 212 l 2,295,296
 445 207 445 207 452 206 c 0,297,298
 454 206 454 206 455 206 c 2,299,-1
 462 206 l 1,300,-1
 462 242 l 1,301,-1
 462 278 l 1,302,-1
 462 350 l 1,303,-1
 458 350 l 1,304,305
 454 354 454 354 452.5 354 c 128,-1,306
 451 354 451 354 443 359 c 0,307,308
 390 394 390 394 389 435 c 0,309,310
 389 443 389 443 390 451 c 0,311,312
 396 489 396 489 422 515 c 1,313,314
 457 543 457 543 492 545 c 2,315,-1
 502 545 l 1,316,317
 544 540 544 540 573 515 c 0,318,319
 606 488 606 488 605 449 c 2,320,-1
 605 431 l 1,321,322
 600 384 600 384 553 359 c 0,323,324
 546 355 546 355 543 353 c 0,325,326
 539 350 539 350 535 350 c 2,327,-1
 533 350 l 1,328,-1
 533 278 l 1,329,-1
 533 206 l 1,330,-1
 543 206 l 2,331,332
 550 206 550 206 581 215 c 0,333,334
 599 220 599 220 602 221 c 1,335,-1
 602 221 l 1,336,337
 623 228 623 228 622 230 c 0,338,339
 620 233 620 233 646 242 c 1,340,-1
 667 259 l 1,341,342
 668 257 668 257 685 274 c 2,343,-1
 701 291 l 1,344,-1
 717 307 l 1,345,346
 716 307 716 307 730 328 c 2,347,-1
 743 350 l 1,348,-1
 751 371 l 1,349,-1
 760 397 l 2,350,351
 761 397 761 397 762 421 c 2,352,-1
 764 444 l 1,353,-1
 762 466 l 1,354,-1
 760 493 l 2,355,356
 759 494 759 494 756 502 c 0,357,358
 751 518 751 518 743 536 c 2,359,-1
 730 557 l 1,360,-1
 720 578 l 1,361,-1
 701 596 l 1,362,363
 702 596 702 596 694 604 c 0,364,365
 686 612 686 612 667 629 c 1,366,-1
 646 644 l 1,367,-1
 623 655 l 1,368,-1
 601 666 l 1,369,-1
 575 674 l 1,370,-1
 549 680 l 2,371,372
 549 681 549 681 538 684 c 0,373,374
 513 688 513 688 497 687 c 0,375,376
 483 688 483 688 469 684 c 2,256,-1
541 452 m 1,377,378
 534 484 534 484 496 484 c 1,379,380
 454 479 454 479 455 444 c 2,381,-1
 455 435 l 2,382,383
 455 427 455 427 465 415 c 0,384,385
 480 400 480 400 498 402 c 2,386,-1
 499 402 l 2,387,388
 517 402 517 402 530 415 c 0,389,390
 541 427 541 427 541 444 c 2,391,-1
 541 452 l 1,377,378
-5 457 m 1,392,-1
 -6 475 l 1,393,394
 -3 302 -3 302 -3 302 c 129,-1,395
 -3 302 -3 302 -5 457 c 1,392,-1
EndSplineSet
Ligature2: "'liga' Standard Ligatures in Latin lookup 0 subtable" v a s t
LCarets2: 3 143 401 816
EndChar

StartChar: s_m
Encoding: 65560 -1 79
Width: 1051
VWidth: 1114
GlyphClass: 3
LigCaretCntFixed: 1
Flags: W
LayerCount: 2
Fore
SplineSet
1024 748 m 1,0,-1
 1025 748 l 2,1,2
 1030 748 1030 748 1058 751 c 1,3,-1
 1058 722 l 1,4,-1
 1058 694 l 1,5,6
 1044 690 1044 690 1028 687 c 1,7,8
 1028 690 1028 690 1004 685 c 2,9,-1
 981 678 l 2,10,11
 980 678 980 678 953 673 c 1,12,-1
 929 662 l 1,13,-1
 908 652 l 1,14,-1
 887 633 l 1,15,-1
 868 620 l 1,16,17
 868 622 868 622 745 507 c 0,18,19
 685 451 685 451 637 410 c 0,20,21
 630 404 630 404 608 383 c 0,22,23
 584 359 584 359 555 337 c 0,24,25
 545 330 545 330 523 314 c 1,26,-1
 507 297 l 1,27,28
 507 298 507 298 447 273 c 1,29,-1
 417 265 l 1,30,-1
 387 254 l 1,31,-1
 355 252 l 1,32,-1
 323 248 l 1,33,-1
 289 252 l 1,34,-1
 260 254 l 1,35,36
 261 254 261 254 226 265 c 2,37,-1
 196 273 l 1,38,-1
 168 285 l 1,39,-1
 140 297 l 1,40,-1
 113 319 l 2,41,42
 112 318 112 318 89 338 c 2,43,-1
 68 359 l 1,44,-1
 47 382 l 1,45,-1
 32 410 l 1,46,47
 32 407 32 407 27 415 c 0,48,49
 13 440 13 440 -4 494 c 1,50,-1
 -5 520 l 2,51,52
 -9 545 -9 545 -8 558 c 0,53,54
 -8 566 -8 566 -7 569 c 2,55,-1
 -7 590 l 1,56,-1
 25 590 l 1,57,-1
 58 590 l 1,58,-1
 58 567 l 2,59,60
 58 560 58 560 60 522 c 2,61,-1
 61 504 l 1,62,63
 56 504 56 504 68 480 c 2,64,-1
 79 456 l 1,65,66
 76 456 76 456 89 435 c 2,67,-1
 102 415 l 1,68,-1
 117 397 l 1,69,-1
 134 380 l 1,70,-1
 155 365 l 1,71,72
 154 365 154 365 174 350 c 1,73,-1
 196 338 l 1,74,-1
 219 327 l 2,75,76
 220 327 220 327 247 319 c 2,77,-1
 270 315 l 2,78,79
 271 313 271 313 297 310 c 2,80,-1
 323 308 l 2,81,82
 323 305 323 305 328 305 c 0,83,84
 334 305 334 305 362 312 c 0,85,86
 382 317 382 317 385 316 c 0,87,88
 387 316 387 316 407 320 c 1,89,90
 406 321 406 321 426 327 c 2,91,-1
 447 338 l 1,92,-1
 468 350 l 1,93,-1
 489 365 l 1,94,-1
 511 380 l 1,95,-1
 668 519 l 1,96,-1
 821 662 l 1,97,98
 820 662 820 662 847 680 c 1,99,100
 846 680 846 680 859 689 c 0,101,102
 874 699 874 699 881 704 c 0,103,104
 901 717 901 717 929 727 c 2,105,-1
 961 735 l 1,106,-1
 992 745 l 1,107,-1
 1024 748 l 1,0,-1
EndSplineSet
Ligature2: "'liga' Standard Ligatures in Latin lookup 0 subtable" s m
LCarets2: 1 577
EndChar

StartChar: t_e_o_t
Encoding: 65561 -1 80
Width: 255
VWidth: 1150
GlyphClass: 3
LigCaretCntFixed: 1
Flags: W
LayerCount: 2
Fore
SplineSet
143 740 m 1,0,1
 206 735 206 735 237 660 c 1,2,-1
 237 581 l 1,3,-1
 237 535 l 1,4,-1
 237 489 l 1,5,-1
 237 472 l 1,6,-1
 237 407 l 1,7,-1
 237 213 l 1,8,-1
 237 189 l 2,9,10
 237 164 237 164 240 108 c 2,11,-1
 240 -24 l 2,12,13
 237 -54 237 -54 235 -62 c 0,14,15
 231 -95 231 -95 205 -118 c 0,16,17
 175 -143 175 -143 132 -144 c 2,18,-1
 122 -144 l 1,19,20
 50 -139 50 -139 28 -79 c 0,21,22
 23 -66 23 -66 24 -56 c 2,23,-1
 24 -47 l 1,24,-1
 24 -15 l 2,25,26
 24 -7 24 -7 22 21 c 0,27,28
 22 79 22 79 22 127 c 0,29,30
 24 214 24 214 24 405 c 2,31,-1
 24 472 l 1,32,-1
 24 498 l 2,33,34
 24 503 24 503 25 581 c 2,35,-1
 25 660 l 1,36,37
 22 660 22 660 25 669 c 0,38,39
 50 734 50 734 130 740 c 1,40,-1
 143 740 l 1,0,1
154 675 m 0,41,42
 143 680 143 680 133 679 c 0,43,44
 125 679 125 679 116 677 c 0,45,46
 96 672 96 672 90 659 c 0,47,48
 85 649 85 649 87 635 c 2,49,-1
 87 574 l 1,50,51
 112 581 112 581 131 581 c 128,-1,52
 150 581 150 581 162 574 c 1,53,-1
 175 574 l 1,54,-1
 175 607 l 2,55,56
 175 651 175 651 170 662 c 0,57,58
 167 670 167 670 154 675 c 0,41,42
124 521 m 0,59,60
 99 516 99 516 87 492 c 0,61,62
 84 478 84 478 87 468 c 0,63,64
 92 446 92 446 118 442 c 0,65,66
 124 438 124 438 133 439 c 0,67,68
 151 440 151 440 164 455 c 0,69,70
 172 462 172 462 175 479 c 0,71,72
 175 505 175 505 151 516 c 0,73,74
 141 521 141 521 132 522 c 0,75,76
 128 522 128 522 124 521 c 0,59,60
156 210 m 0,77,78
 175 205 175 205 175 218 c 0,79,80
 175 221 175 221 175 223 c 0,81,82
 174 238 174 238 175 383 c 2,83,-1
 175 389 l 1,84,85
 157 382 157 382 144 383 c 2,86,-1
 129 383 l 2,87,88
 114 383 114 383 98 386 c 2,89,-1
 86 387 l 1,90,-1
 86 342 l 1,91,-1
 86 298 l 2,92,93
 86 208 86 208 88 206 c 0,94,95
 89 205 89 205 104 209 c 0,96,97
 122 214 122 214 128 214 c 0,98,99
 129 214 129 214 138 213.5 c 128,-1,100
 147 213 147 213 156 210 c 0,77,78
175 99 m 0,101,102
 178 105 178 105 176 115 c 0,103,104
 176 149 176 149 140 154 c 0,105,106
 135 155 135 155 131 155 c 0,107,108
 115 155 115 155 99 142 c 0,109,110
 84 130 84 130 85 118 c 2,111,-1
 85 115 l 2,112,113
 85 111 85 111 85 107 c 0,114,115
 92 81 92 81 120 77 c 0,116,117
 125 73 125 73 137 75 c 0,118,119
 167 78 167 78 175 99 c 0,101,102
163 23 m 0,120,121
 144 17 144 17 124 15 c 0,122,123
 109 15 109 15 95 22 c 0,124,125
 90 25 90 25 89 25 c 0,126,127
 85 27 85 27 86 11 c 2,128,-1
 86 -20 l 2,129,130
 86 -51 86 -51 88 -61 c 0,131,132
 93 -82 93 -82 118 -87 c 0,133,134
 133 -91 133 -91 145 -86 c 0,135,136
 176 -79 176 -79 175 -42 c 0,137,138
 175 -34 175 -34 175 -15 c 2,139,-1
 175 11 l 2,140,141
 173 23 173 23 174 25 c 1,142,-1
 172 24 l 2,143,144
 169 26 169 26 163 23 c 0,120,121
EndSplineSet
Ligature2: "'liga' Standard Ligatures in Latin lookup 0 subtable" t e o t
LCarets2: 3 92 158 177
EndChar

StartChar: t_a_t
Encoding: 65562 -1 81
Width: 258
VWidth: 1150
GlyphClass: 3
LigCaretCntFixed: 1
Flags: W
LayerCount: 2
Fore
SplineSet
23 386 m 2,0,1
 22 422 22 422 22 459 c 0,2,3
 22 484 22 484 22 520 c 0,4,5
 23 555 23 555 23 581 c 2,6,-1
 23 660 l 1,7,8
 22 660 22 660 25 666 c 0,9,10
 50 733 50 733 128 740 c 1,11,-1
 140 740 l 2,12,13
 170 738 170 738 199 719 c 1,14,15
 227 695 227 695 235 660 c 1,16,-1
 235 581 l 1,17,-1
 237 535 l 1,18,-1
 238 489 l 1,19,-1
 238 472 l 1,20,-1
 238 407 l 1,21,-1
 240 213 l 1,22,-1
 240 5 l 1,23,-1
 239 -25 l 2,24,25
 238 -56 238 -56 237 -66 c 0,26,27
 233 -95 233 -95 205 -117 c 0,28,29
 172 -143 172 -143 132 -144 c 2,30,-1
 121 -144 l 1,31,32
 36 -137 36 -137 23 -56 c 1,33,-1
 23 -47 l 1,34,-1
 23 213 l 1,35,-1
 23 386 l 2,0,1
170 661 m 0,36,37
 167 668 167 668 155 675 c 0,38,39
 144 680 144 680 135 679 c 0,40,41
 127 679 127 679 118 677 c 0,42,43
 96 672 96 672 90 659 c 0,44,45
 85 647 85 647 85 611 c 2,46,-1
 85 572 l 1,47,48
 85 573 85 573 95 575 c 0,49,50
 115 580 115 580 131 581 c 0,51,52
 151 581 151 581 161 574 c 1,53,-1
 174 574 l 1,54,-1
 174 607 l 2,55,56
 174 651 174 651 170 661 c 0,36,37
125 521 m 1,57,58
 99 516 99 516 87 492 c 0,59,60
 83 478 83 478 87 467 c 0,61,62
 93 446 93 446 117 442 c 0,63,64
 125 438 125 438 134 438 c 0,65,66
 150 438 150 438 163 455 c 0,67,68
 171 462 171 462 174 479 c 0,69,70
 174 505 174 505 149 517 c 0,71,72
 142 521 142 521 135 521 c 2,73,-1
 125 521 l 1,57,58
160 385 m 0,74,75
 155 383 155 383 147 385 c 2,76,-1
 131 385 l 2,77,78
 115 385 115 385 98 386 c 2,79,-1
 85 389 l 1,80,-1
 85 -58 l 1,81,82
 90 -82 90 -82 119 -88 c 0,83,84
 134 -91 134 -91 141 -86 c 0,85,86
 165 -80 165 -80 172 -58 c 1,87,-1
 175 -56 l 1,88,-1
 175 151 l 1,89,-1
 175 239 l 1,90,-1
 175 374 l 2,91,92
 175 389 175 389 160 385 c 0,74,75
EndSplineSet
Ligature2: "'liga' Standard Ligatures in Latin lookup 0 subtable" t a t
LCarets2: 2 96 177
EndChar

StartChar: t_o_t
Encoding: 65563 -1 82
Width: 261
VWidth: 1150
GlyphClass: 3
LigCaretCntFixed: 1
Flags: W
LayerCount: 2
Fore
SplineSet
26 -66 m 1,0,-1
 26 39 l 2,1,2
 26 46 26 46 25 82 c 0,3,4
 24 100 24 100 25 102 c 1,5,6
 26 88 26 88 26 77 c 1,7,8
 25 94 25 94 25 119 c 2,9,-1
 25 561 l 2,10,11
 25 653 25 653 32 676 c 0,12,13
 38 700 38 700 67 719 c 0,14,15
 99 740 99 740 134 740 c 2,16,-1
 146 740 l 1,17,18
 176 735 176 735 199 718 c 0,19,20
 225 700 225 700 233 678 c 0,21,22
 241 653 241 653 241 560 c 2,23,-1
 241 385 l 1,24,-1
 241 217 l 1,25,-1
 241 121 l 1,26,-1
 241 111 l 1,27,-1
 241 104 l 1,28,-1
 240 81 l 2,29,30
 238 67 238 67 238 57 c 0,31,32
 238 52 238 52 239 47 c 2,33,-1
 239 -66 l 1,34,35
 237 -66 237 -66 237 -75 c 0,36,37
 219 -135 219 -135 145 -146 c 0,38,39
 137 -147 137 -147 128 -147 c 0,40,41
 92 -147 92 -147 63 -125 c 0,42,43
 38 -105 38 -105 28 -75 c 1,44,-1
 26 -66 l 1,0,-1
175 649 m 1,45,46
 168 678 168 678 134 679 c 2,47,-1
 126 679 l 1,48,49
 96 674 96 674 89 649 c 1,50,-1
 89 426 l 1,51,-1
 89 205 l 1,52,53
 103 212 103 212 128 213 c 0,54,55
 130 213 130 213 131 213 c 0,56,57
 155 213 155 213 165.5 209 c 128,-1,58
 176 205 176 205 176 220 c 0,59,60
 176 223 176 223 176 225 c 0,61,62
 175 242 175 242 175 649 c 1,45,46
175 113 m 0,63,64
 175 132 175 132 163 143 c 0,65,66
 151 155 151 155 132 155 c 128,-1,67
 113 155 113 155 100 143 c 0,68,69
 89 132 89 132 89 116 c 128,-1,70
 89 100 89 100 98 88 c 0,71,72
 110 73 110 73 130 74 c 2,73,-1
 132 74 l 2,74,75
 153 74 153 74 164 84.5 c 128,-1,76
 175 95 175 95 175 113 c 0,63,64
137 -87 m 2,77,78
 137 -87 137 -87 138 -87 c 0,79,80
 175 -87 175 -87 175 -37 c 2,81,-1
 175 -15 l 1,82,-1
 175 24 l 1,83,84
 157 17 157 17 134 14 c 0,85,86
 113 15 113 15 89 24 c 1,87,-1
 89 -24 l 2,88,89
 89 -54 89 -54 93.5 -66.5 c 128,-1,90
 98 -79 98 -79 111 -81 c 0,91,92
 124 -86 124 -86 137 -87 c 2,77,78
EndSplineSet
Ligature2: "'liga' Standard Ligatures in Latin lookup 0 subtable" t o t
LCarets2: 2 88 174
EndChar

StartChar: r_b
Encoding: 65564 -1 83
Width: 472
VWidth: 1150
GlyphClass: 3
LigCaretCntFixed: 1
Flags: W
LayerCount: 2
Fore
SplineSet
203 746 m 1,0,-1
 224 746 l 1,1,-1
 245 739 l 2,2,3
 245 738 245 738 263 737 c 1,4,-1
 282 729 l 2,5,6
 282 728 282 728 303 719 c 2,7,-1
 319 709 l 1,8,-1
 336 698 l 1,9,10
 336 700 336 700 350 687 c 0,11,12
 353 684 353 684 366 672 c 1,13,-1
 376 655 l 2,14,15
 390 640 390 640 387 641 c 1,16,17
 392 636 392 636 394 629 c 0,18,19
 397 622 397 622 405 605 c 1,20,-1
 408 586 l 1,21,-1
 410 566 l 2,22,23
 410 564 410 564 408 548 c 2,24,-1
 408 526 l 2,25,26
 409 525 409 525 405 508 c 2,27,-1
 399 492 l 1,28,29
 399 494 399 494 393 475 c 2,30,-1
 385 455 l 2,31,32
 385 452 385 452 371 443 c 1,33,-1
 358 426 l 1,34,-1
 345 413 l 1,35,36
 346 413 346 413 337 407 c 0,37,38
 327 401 327 401 319 395 c 0,39,40
 285 374 285 374 247 361 c 0,41,42
 232 356 232 356 205 345 c 1,43,-1
 185 335 l 1,44,-1
 165 318 l 2,45,46
 162 319 162 319 145 305 c 1,47,-1
 129 288 l 1,48,-1
 114 275 l 1,49,-1
 103 253 l 1,50,51
 104 253 104 253 90 234 c 1,52,-1
 82 213 l 2,53,54
 82 212 82 212 74 193 c 1,55,56
 77 193 77 193 74 181 c 0,57,58
 71 170 71 170 69 148 c 2,59,-1
 69 129 l 2,60,61
 70 128 70 128 71 105 c 1,62,-1
 80 85 l 1,63,-1
 85 62 l 1,64,-1
 95 43 l 2,65,66
 97 43 97 43 106 24 c 1,67,-1
 122 7 l 1,68,69
 135 -13 135 -13 152 -23 c 1,70,71
 169 -38 169 -38 173 -40 c 0,72,73
 175 -42 175 -42 177 -43 c 0,74,75
 182 -44 182 -44 185.5 -47.5 c 128,-1,76
 189 -51 189 -51 195 -52 c 2,77,-1
 214 -63 l 1,78,-1
 240 -68 l 2,79,80
 243 -68 243 -68 261 -75 c 1,81,-1
 284 -78 l 1,82,-1
 308 -82 l 1,83,-1
 393 -82 l 1,84,-1
 476 -82 l 1,85,-1
 476 -93 l 1,86,-1
 476 -121 l 1,87,-1
 476 -140 l 1,88,-1
 393 -140 l 1,89,-1
 308 -140 l 1,90,91
 308 -139 308 -139 278 -136 c 1,92,-1
 278 -136 l 1,93,94
 274 -136 274 -136 260 -135 c 0,95,96
 248 -134 248 -134 247 -135 c 0,97,98
 243 -135 243 -135 219 -125 c 2,99,-1
 189 -115 l 1,100,-1
 165 -103 l 2,101,102
 162 -102 162 -102 151 -95 c 0,103,104
 137 -85 137 -85 123 -75 c 0,105,106
 111 -68 111 -68 107 -65 c 0,107,108
 89 -54 89 -54 71 -31 c 2,109,-1
 52 -8 l 2,110,111
 52 -7 52 -7 45 5 c 0,112,113
 38 19 38 19 24 43 c 1,114,-1
 16 69 l 1,115,-1
 8 95 l 1,116,-1
 6 125 l 1,117,-1
 5 150 l 2,118,119
 6 151 6 151 8 179 c 2,120,-1
 10 207 l 1,121,-1
 19 232 l 1,122,-1
 29 262 l 1,123,124
 29 261 29 261 40 275 c 0,125,126
 56 305 56 305 73 320 c 0,127,128
 83 329 83 329 101 351 c 1,129,130
 99 351 99 351 112 360 c 0,131,132
 124 368 124 368 136 376 c 0,133,134
 150 384 150 384 168 394 c 0,135,136
 205 413 205 413 234 423 c 0,137,138
 273 438 273 438 305 465 c 0,139,140
 315 473 315 473 318.5 477 c 128,-1,141
 322 481 322 481 328 493 c 0,142,143
 344 524 344 524 345 535 c 2,144,-1
 345 548 l 2,145,146
 345 595 345 595 323 626 c 0,147,148
 317 634 317 634 305 651 c 1,149,150
 268 686 268 686 229 686 c 1,151,-1
 214 692 l 1,152,-1
 145 692 l 1,153,-1
 74 692 l 1,154,-1
 74 719 l 1,155,-1
 76 746 l 1,156,-1
 115 746 l 1,157,-1
 129 746 l 1,158,-1
 203 746 l 1,0,-1
EndSplineSet
Ligature2: "'liga' Standard Ligatures in Latin lookup 0 subtable" r b
LCarets2: 1 275
EndChar

StartChar: t_y_p
Encoding: 65565 -1 84
Width: 694
VWidth: 1150
GlyphClass: 3
LigCaretCntFixed: 1
Flags: W
LayerCount: 2
Fore
SplineSet
702 152 m 1,0,1
 703 152 703 152 698 120 c 2,2,-1
 695 105 l 1,3,4
 695 106 695 106 685 78 c 2,5,-1
 675 48 l 1,6,-1
 662 24 l 2,7,8
 662 23 662 23 646 -4 c 1,9,-1
 628 -25 l 2,10,11
 611 -46 611 -46 575 -72 c 2,12,-1
 555 -88 l 2,13,14
 555 -91 555 -91 526 -101 c 2,15,-1
 496 -112 l 2,16,17
 496 -115 496 -115 472 -121 c 0,18,19
 465 -123 465 -123 458 -125 c 0,20,21
 435 -130 435 -130 430 -130 c 0,22,23
 426 -130 426 -130 407 -133 c 2,24,-1
 377 -135 l 1,25,-1
 167 -135 l 1,26,27
 127 -130 127 -130 100 -113 c 0,28,29
 65 -89 65 -89 62 -48 c 1,30,-1
 62 310 l 1,31,-1
 60 655 l 1,32,33
 55 674 55 674 30 686 c 1,34,35
 36 682 36 682 44.5 686 c 128,-1,36
 53 690 53 690 35 690 c 0,37,38
 23 690 23 690 -7 688 c 1,39,-1
 -8 750 l 1,40,-1
 28 750 l 1,41,42
 88 745 88 745 116 692 c 0,43,44
 122 680 122 680 124 671 c 0,45,46
 125 666 125 666 125 651 c 2,47,-1
 125 310 l 1,48,-1
 126 -41 l 1,49,50
 131 -67 131 -67 165 -78 c 1,51,-1
 270 -78 l 1,52,-1
 375 -78 l 2,53,54
 376 -78 376 -78 398 -75 c 2,55,-1
 422 -72 l 1,56,-1
 449 -67 l 1,57,58
 448 -67 448 -67 472 -59 c 2,59,-1
 495 -48 l 1,60,61
 494 -48 494 -48 516 -35 c 2,62,-1
 537 -20 l 2,63,64
 539 -20 539 -20 558 -6 c 1,65,66
 557 -6 557 -6 577 13 c 1,67,-1
 592 31 l 1,68,-1
 605 50 l 1,69,-1
 616 71 l 1,70,-1
 622 95 l 1,71,-1
 632 118 l 2,72,73
 631 119 631 119 633 141 c 2,74,-1
 637 165 l 1,75,-1
 633 188 l 1,76,-1
 632 215 l 2,77,78
 631 215 631 215 622 235 c 1,79,-1
 616 257 l 1,80,-1
 605 278 l 1,81,-1
 592 299 l 1,82,-1
 577 318 l 2,83,84
 549 353 549 353 511 368 c 0,85,86
 495 374 495 374 472 388 c 1,87,-1
 449 394 l 2,88,89
 448 394 448 394 422 403 c 1,90,-1
 398 405 l 1,91,-1
 369 405 l 1,92,93
 370 402 370 402 356 405 c 1,94,95
 294 400 294 400 260 363 c 0,96,97
 225 328 225 328 220 271 c 0,98,99
 219 260 219 260 220 250 c 0,100,101
 225 198 225 198 275 162 c 1,102,103
 325 130 325 130 374 131 c 2,104,-1
 379 131 l 1,105,106
 412 135 412 135 433 155 c 0,107,108
 453 176 453 176 453 205 c 2,109,-1
 453 213 l 2,110,111
 451 237 451 237 434 255 c 0,112,113
 412 278 412 278 379 278 c 2,114,-1
 375 278 l 1,115,-1
 370 280 l 1,116,-1
 370 339 l 1,117,118
 398 339 398 339 435 323 c 0,119,120
 459 312 459 312 475 297 c 0,121,122
 480 292 480 292 494 278 c 0,123,124
 494 274 494 274 499 266 c 0,125,126
 514 244 514 244 516 216 c 2,127,-1
 516 205 l 1,128,-1
 516 192 l 1,129,130
 511 148 511 148 483 120 c 1,131,132
 457 83 457 83 386 71 c 1,133,-1
 370 69 l 1,134,-1
 349 73 l 1,135,-1
 330 76 l 1,136,-1
 309 81 l 1,137,-1
 290 86 l 1,138,139
 291 86 291 86 272 97 c 1,140,141
 275 97 275 97 251 105 c 1,142,-1
 234 118 l 1,143,144
 234 117 234 117 217 131 c 2,145,-1
 204 145 l 1,146,-1
 190 160 l 1,147,-1
 181 175 l 1,148,149
 181 174 181 174 169 194 c 1,150,-1
 165 213 l 2,151,152
 164 215 164 215 156 231 c 1,153,-1
 156 248 l 1,154,155
 157 248 157 248 156 253 c 0,156,157
 155 261 155 261 155 268 c 0,158,159
 155 277 155 277 156 286 c 2,160,-1
 156 307 l 1,161,-1
 165 325 l 1,162,-1
 170 343 l 1,163,164
 170 342 170 342 176 353 c 0,165,166
 181 361 181 361 183 365 c 0,167,168
 190 380 190 380 200 387 c 0,169,170
 207 392 207 392 217 406 c 2,171,-1
 228 416 l 1,172,-1
 234 422 l 1,173,-1
 249 433 l 1,174,-1
 270 444 l 1,175,-1
 288 452 l 1,176,-1
 306 457 l 1,177,-1
 326 460 l 1,178,-1
 349 465 l 1,179,-1
 370 467 l 1,180,-1
 404 465 l 2,181,182
 404 463 404 463 435 459 c 1,183,-1
 465 452 l 1,184,-1
 496 445 l 1,185,-1
 526 429 l 1,186,187
 526 430 526 430 540 423 c 0,188,189
 557 415 557 415 568 406 c 0,190,191
 572 403 572 403 578 398 c 0,192,193
 588 390 588 390 592 388 c 2,194,-1
 607 376 l 1,195,196
 606 376 606 376 616 366 c 0,197,198
 635 346 635 346 641 338 c 2,199,-1
 662 307 l 1,200,-1
 675 280 l 2,201,202
 675 279 675 279 680 266 c 0,203,204
 698 221 698 221 700 197 c 0,205,206
 700 193 700 193 700 192 c 0,207,208
 700 184 700 184 702 165 c 2,209,-1
 702 152 l 1,0,1
-7 688 m 2,210,211
 -8 688 -8 688 -8 688 c 1,212,-1
 -5 428 l 1,213,-1
 -7 688 l 2,210,211
EndSplineSet
Ligature2: "'liga' Standard Ligatures in Latin lookup 0 subtable" t y p
LCarets2: 2 194 409
EndChar

StartChar: i_b
Encoding: 65566 -1 85
Width: 485
VWidth: 1109
GlyphClass: 3
LigCaretCntFixed: 1
Flags: W
LayerCount: 2
Fore
SplineSet
-1395 258 m 1024,0,-1
59 670 m 0,1,2
 55 658 55 658 59 646 c 0,3,4
 67 620 67 620 95 619 c 0,5,6
 105 619 105 619 115 622 c 0,7,8
 130 627 130 627 138 637 c 0,9,10
 144 647 144 647 145 662 c 0,11,12
 145 687 145 687 119 697 c 0,13,14
 111 701 111 701 99 701 c 0,15,16
 67 701 67 701 59 670 c 0,1,2
116 761 m 1,17,18
 116 753 116 753 171 753 c 0,19,20
 190 753 190 753 205 754 c 0,21,22
 215 755 215 755 221 754 c 0,23,24
 245 754 245 754 290 747 c 1,25,-1
 315 740 l 1,26,-1
 343 734 l 1,27,-1
 364 723 l 1,28,29
 364 724 364 724 385 711 c 2,30,-1
 405 698 l 1,31,-1
 426 681 l 1,32,33
 425 681 425 681 440 663 c 2,34,-1
 456 647 l 1,35,-1
 467 630 l 2,36,37
 486 601 486 601 490 583 c 2,38,-1
 495 561 l 1,39,-1
 498 540 l 2,40,41
 502 523 502 523 500 515 c 0,42,43
 499 510 499 510 498 489 c 2,44,-1
 495 468 l 1,45,-1
 490 447 l 1,46,-1
 481 425 l 2,47,48
 478 426 478 426 474 414 c 0,49,50
 468 398 468 398 449 376 c 0,51,52
 439 364 439 364 425 345 c 0,53,54
 422 345 422 345 405 334 c 2,55,-1
 385 317 l 1,56,-1
 364 308 l 1,57,-1
 343 296 l 1,58,-1
 316 289 l 1,59,60
 319 289 319 289 311 286 c 0,61,62
 281 276 281 276 233 276 c 0,63,64
 222 276 222 276 220 277 c 2,65,-1
 -17 277 l 1,66,-1
 -17 308 l 1,67,-1
 -17 335 l 1,68,-1
 220 335 l 2,69,70
 225 335 225 335 258 340 c 2,71,-1
 277 342 l 1,72,73
 277 341 277 341 281 342 c 0,74,75
 341 349 341 349 390 403 c 0,76,77
 405 420 405 420 411 432 c 2,78,-1
 418 447 l 1,79,80
 418 446 418 446 426 460 c 1,81,82
 426 473 426 473 434 497 c 1,83,-1
 435 514 l 1,84,-1
 434 532 l 1,85,-1
 429 553 l 1,86,-1
 425 565 l 2,87,88
 411 604 411 604 384 634 c 0,89,90
 374 644 374 644 367 648 c 0,91,92
 363 650 363 650 360 653 c 0,93,94
 349 660 349 660 330 668 c 2,95,-1
 313 679 l 2,96,97
 313 680 313 680 290 684 c 0,98,99
 240 692 240 692 226 692 c 2,100,-1
 205 692 l 1,101,102
 210 675 210 675 211 658 c 0,103,104
 211 623 211 623 185 598 c 1,105,106
 164 572 164 572 139 565 c 0,107,108
 126 561 126 561 107 561 c 2,109,-1
 79 561 l 2,110,111
 60 562 60 562 31 589 c 0,112,113
 -7 624 -7 624 -7 650 c 0,114,115
 -7 655 -7 655 -6 660 c 0,116,117
 -5 663 -5 663 -5 667 c 0,118,119
 3 713 3 713 35 737 c 0,120,121
 65 760 65 760 111 760 c 2,122,-1
 116 760 l 1,123,-1
 116 761 l 1,17,18
EndSplineSet
Ligature2: "'liga' Standard Ligatures in Latin lookup 0 subtable" i b
LCarets2: 1 209
EndChar

StartChar: b_r
Encoding: 65567 -1 86
Width: 465
VWidth: 1150
GlyphClass: 3
LigCaretCntFixed: 1
Flags: W
LayerCount: 2
Fore
SplineSet
194 749 m 1,0,-1
 222 744 l 2,1,2
 222 743 222 743 254 734 c 2,3,-1
 284 724 l 1,4,-1
 308 711 l 2,5,6
 309 711 309 711 315 708 c 0,7,8
 340 700 340 700 359 681 c 2,9,-1
 384 661 l 1,10,-1
 403 639 l 2,11,12
 406 638 406 638 422 615 c 2,13,-1
 435 593 l 1,14,-1
 448 568 l 1,15,16
 448 569 448 569 452 555 c 0,17,18
 456 542 456 542 459 531 c 0,19,20
 464 511 464 511 466 486 c 2,21,-1
 466 458 l 1,22,-1
 466 430 l 1,23,-1
 462 404 l 2,24,25
 461 404 461 404 454 375 c 1,26,-1
 443 350 l 1,27,-1
 427 325 l 2,28,29
 426 323 426 323 412 300 c 1,30,-1
 390 279 l 1,31,-1
 371 258 l 2,32,33
 370 258 370 258 348 242 c 2,34,-1
 324 225 l 1,35,-1
 295 211 l 2,36,37
 276 204 276 204 263 198 c 0,38,39
 173 168 173 168 140 108 c 0,40,41
 127 90 127 90 127 58 c 2,42,-1
 127 44 l 1,43,-1
 127 30 l 1,44,45
 134 -20 134 -20 190 -58 c 0,46,47
 205 -72 205 -72 243 -77 c 1,48,-1
 256 -81 l 1,49,-1
 398 -81 l 1,50,-1
 398 -108 l 1,51,-1
 398 -137 l 1,52,-1
 324 -135 l 2,53,54
 249 -135 249 -135 245 -133 c 0,55,56
 243 -132 243 -132 236 -131 c 0,57,58
 214 -130 214 -130 190 -119 c 2,59,-1
 171 -111 l 2,60,61
 169 -111 169 -111 160 -105 c 0,62,63
 138 -92 138 -92 127 -81 c 0,64,65
 103 -62 103 -62 95 -47 c 2,66,-1
 85 -30 l 1,67,-1
 76 -14 l 1,68,69
 77 -14 77 -14 76 -9 c 0,70,71
 73 6 73 6 65 25 c 1,72,-1
 65 44 l 1,73,-1
 65 79 l 1,74,-1
 66 98 l 1,75,-1
 73 119 l 1,76,-1
 80 134 l 1,77,78
 80 133 80 133 90 153 c 1,79,-1
 103 166 l 1,80,-1
 115 185 l 1,81,82
 115 184 115 184 127 197 c 1,83,-1
 143 207 l 2,84,85
 145 207 145 207 161 221 c 0,86,87
 190 239 190 239 228 250 c 0,88,89
 270 263 270 263 305 287 c 0,90,91
 330 303 330 303 340 315 c 0,92,93
 345 320 345 320 351 329 c 0,94,95
 358 339 358 339 365 350 c 0,96,97
 370 357 370 357 382 374 c 1,98,99
 379 374 379 374 385 384 c 0,100,101
 391 396 391 396 398 415 c 1,102,-1
 401 437 l 1,103,-1
 403 458 l 1,104,-1
 403 481 l 1,105,-1
 401 507 l 1,106,-1
 395 526 l 1,107,-1
 388 547 l 1,108,-1
 378 565 l 2,109,110
 376 565 376 565 372 575 c 0,111,112
 367 588 367 588 356 599 c 0,113,114
 351 604 351 604 338 618 c 2,115,-1
 316 635 l 1,116,-1
 299 647 l 1,117,-1
 278 660 l 1,118,-1
 259 670 l 1,119,120
 259 667 259 667 235 679 c 1,121,-1
 212 685 l 1,122,-1
 188 687 l 2,123,124
 188 688 188 688 162 689 c 2,125,-1
 78 689 l 1,126,-1
 -4 689 l 1,127,128
 -8 718 -8 718 -5 751 c 1,129,-1
 80 751 l 1,130,-1
 165 751 l 1,131,-1
 194 749 l 1,0,-1
-4 689 m 1024,132,-1
EndSplineSet
Ligature2: "'liga' Standard Ligatures in Latin lookup 0 subtable" b r
LCarets2: 1 312
EndChar

StartChar: c_h
Encoding: 65568 -1 87
Width: 640
VWidth: 1137
GlyphClass: 3
LigCaretCntFixed: 1
Flags: W
LayerCount: 2
Fore
SplineSet
345 492 m 0,0,1
 344 492 344 492 344 492 c 2,2,3
 311 492 311 492 311 461 c 0,4,5
 311 458 311 458 312 455 c 0,6,7
 312 453 312 453 312 452 c 0,8,9
 312 438 312 438 328 419 c 0,10,11
 349 394 349 394 354 364 c 1,12,-1
 354 348 l 1,13,-1
 354 345 l 1,14,15
 354 347 354 347 371 343 c 2,16,-1
 385 342 l 1,17,-1
 416 331 l 1,18,-1
 448 322 l 2,19,20
 449 322 449 322 478 307 c 0,21,22
 503 294 503 294 506 293.5 c 128,-1,23
 509 293 509 293 519 286 c 0,24,25
 541 271 541 271 555 258 c 2,26,-1
 578 233 l 1,27,-1
 597 211 l 1,28,-1
 613 187 l 1,29,-1
 627 159 l 1,30,-1
 638 133 l 2,31,32
 638 132 638 132 648 103 c 1,33,-1
 648 93 l 1,34,35
 654 83 654 83 655 24 c 2,36,-1
 655 0 l 1,37,-1
 588 0 l 1,38,39
 588 3 588 3 587 13 c 0,40,41
 582 54 582 54 584 85 c 0,42,43
 584 89 584 89 584 93 c 1,44,45
 582 93 582 93 575 115 c 2,46,-1
 569 136 l 1,47,-1
 555 157 l 1,48,49
 538 191 538 191 518 206 c 0,50,51
 513 213 513 213 497 226 c 0,52,53
 481 241 481 241 477 241.5 c 128,-1,54
 473 242 473 242 446 258 c 2,55,-1
 425 268 l 1,56,-1
 399 274 l 2,57,58
 399 275 399 275 375 282 c 1,59,-1
 349 282 l 1,60,-1
 322 284 l 1,61,-1
 297 282 l 1,62,-1
 269 282 l 1,63,-1
 246 274 l 1,64,-1
 218 268 l 1,65,-1
 196 258 l 1,66,-1
 175 245 l 2,67,68
 175 244 175 244 154 229 c 2,69,-1
 134 216 l 1,70,71
 134 217 134 217 118 197 c 2,72,-1
 101 178 l 1,73,-1
 88 157 l 1,74,-1
 78 136 l 1,75,-1
 69 114 l 1,76,-1
 62 93 l 1,77,-1
 59 69 l 2,78,79
 57 45 57 45 57 22 c 2,80,-1
 57 0 l 1,81,-1
 -10 0 l 1,82,-1
 -10 31 l 2,83,84
 -8 36 -8 36 -6 71 c 2,85,-1
 -5 103 l 1,86,-1
 6 131 l 2,87,88
 7 131 7 131 8 135 c 0,89,90
 14 158 14 158 34 187 c 2,91,-1
 46 211 l 1,92,-1
 67 238 l 1,93,94
 66 238 66 238 67 238 c 1,95,96
 67 241 67 241 88 258 c 2,97,-1
 113 275 l 1,98,-1
 139 295 l 2,99,100
 140 295 140 295 167 308 c 2,101,-1
 196 322 l 1,102,-1
 227 331 l 1,103,-1
 257 342 l 1,104,-1
 275 343 l 2,105,106
 275 344 275 344 291 345 c 1,107,-1
 291 354 l 2,108,109
 289 371 289 371 272 387 c 0,110,111
 247 411 247 411 246 449 c 0,112,113
 246 463 246 463 250 482 c 1,114,115
 264 512 264 512 288 531 c 0,116,117
 316 553 316 553 349 552 c 1,118,-1
 349 554 l 1,119,120
 396 553 396 553 424 528 c 0,121,122
 442 512 442 512 463 512 c 1,123,124
 463 511 463 511 468 512 c 0,125,126
 500 518 500 518 507 541 c 0,127,128
 511 551 511 551 509 559 c 0,129,130
 506 571 506 571 489 589 c 0,131,132
 474 604 474 604 469 617 c 0,133,134
 464 627 464 627 465 642 c 2,135,-1
 465 650 l 2,136,137
 465 680 465 680 487 710 c 0,138,139
 508 737 508 737 535 743 c 0,140,141
 554 748 554 748 612 750 c 2,142,-1
 655 750 l 1,143,-1
 655 719 l 1,144,-1
 655 693 l 1,145,-1
 654 693 l 2,146,147
 649 693 649 693 606 690 c 0,148,149
 558 690 558 690 545 685 c 0,150,151
 529 679 529 679 528 657 c 0,152,153
 528 653 528 653 528 651 c 0,154,155
 529 634 529 634 546 616 c 0,156,157
 570 592 570 592 573 555 c 2,158,-1
 573 545 l 1,159,160
 568 506 568 506 537.5 479.5 c 128,-1,161
 507 453 507 453 469 452 c 2,162,-1
 459 452 l 1,163,164
 415 457 415 457 390 476 c 0,165,166
 370 491 370 491 345 492 c 0,0,1
EndSplineSet
Ligature2: "'liga' Standard Ligatures in Latin lookup 0 subtable" c h
LCarets2: 1 327
EndChar

StartChar: a_v
Encoding: 65569 -1 88
Width: 611
VWidth: 1124
GlyphClass: 3
LigCaretCntFixed: 1
Flags: W
LayerCount: 2
Fore
SplineSet
288 754 m 2,0,1
 289 754 289 754 297 754 c 128,-1,2
 305 754 305 754 312 755 c 0,3,4
 319 757 319 757 327 756 c 0,5,6
 341 751 341 751 348 753 c 0,7,8
 351 753 351 753 353 753 c 0,9,10
 363 753 363 753 385 750 c 1,11,-1
 415 741 l 2,12,13
 416 740 416 740 446 733 c 1,14,-1
 446 733 l 1,15,16
 450 733 450 733 476 720 c 2,17,-1
 504 703 l 1,18,19
 504 704 504 704 531 688 c 0,20,21
 557 669 557 669 555 666 c 2,22,-1
 566 651 l 2,23,24
 571 646 571 646 576 640 c 0,25,26
 579 640 579 640 595 619 c 1,27,-1
 595 619 l 1,28,29
 597 619 597 619 614 595 c 1,30,31
 612 595 612 595 619 581 c 0,32,33
 627 566 627 566 638 543 c 0,34,35
 646 517 646 517 646 512 c 1,36,37
 646 514 646 514 648 510 c 2,38,-1
 648 482 l 1,39,-1
 650 454 l 1,40,41
 649 454 649 454 649 439 c 0,42,43
 648 424 648 424 646 395 c 1,44,-1
 638 366 l 2,45,46
 635 366 635 366 632 355 c 0,47,48
 627 339 627 339 612 312 c 2,49,-1
 595 287 l 1,50,-1
 575 265 l 1,51,-1
 555 240 l 1,52,-1
 531 222 l 2,53,54
 530 222 530 222 504 205 c 2,55,-1
 476 190 l 1,56,-1
 448 175 l 1,57,-1
 416 166 l 1,58,-1
 385 157 l 2,59,60
 382 157 382 157 354 155 c 1,61,62
 354 156 354 156 349 156 c 0,63,64
 342 156 342 156 322 154 c 1,65,-1
 288 155 l 1,66,-1
 257 157 l 1,67,68
 257 156 257 156 256 156 c 0,69,70
 252 156 252 156 225 166 c 1,71,72
 228 167 228 167 195 175 c 1,73,-1
 165 188 l 1,74,-1
 135 205 l 1,75,-1
 112 222 l 1,76,-1
 87 240 l 1,77,-1
 66 265 l 2,78,79
 41 295 41 295 35 304 c 0,80,81
 33 307 33 307 30 310 c 0,82,83
 22 320 22 320 22 327 c 2,84,-1
 15 341 l 1,85,-1
 5 366 l 2,86,87
 4 366 4 366 -5 395 c 1,88,-1
 -6 425 l 2,89,90
 -7 425 -7 425 -13 454 c 1,91,-1
 -6 484 l 2,92,93
 -7 485 -7 485 -7 487 c 0,94,95
 -7 493 -7 493 -5 512 c 2,96,-1
 5 541 l 1,97,-1
 15 569 l 2,98,99
 15 574 15 574 29 595 c 2,100,-1
 46 620 l 1,101,-1
 66 645 l 1,102,-1
 88 667 l 2,103,104
 89 668 89 668 112 688 c 1,105,-1
 135 703 l 1,106,-1
 165 720 l 1,107,108
 165 719 165 719 195 733 c 1,109,-1
 225 741 l 1,110,-1
 255 750 l 1,111,-1
 288 754 l 2,0,1
319 695 m 2,112,113
 307 693 307 693 302 694 c 0,114,115
 293 692 293 692 267 690 c 1,116,-1
 243 682 l 1,117,-1
 216 678 l 2,118,119
 216 677 216 677 203 669 c 0,120,121
 138 636 138 636 114 606 c 1,122,123
 116 606 116 606 101 587 c 2,124,-1
 88 566 l 2,125,126
 88 565 88 565 75 545 c 1,127,-1
 67 524 l 2,128,129
 66 524 66 524 59 503 c 1,130,-1
 59 480 l 1,131,-1
 57 455 l 1,132,-1
 59 431 l 1,133,-1
 59 406 l 1,134,-1
 67 385 l 1,135,-1
 75 362 l 1,136,-1
 88 341 l 1,137,138
 87 341 87 341 101 320 c 1,139,140
 101 323 101 323 113 306 c 0,141,142
 133 278 133 278 154 269 c 1,143,-1
 175 252 l 1,144,-1
 195 240 l 1,145,-1
 216 230 l 1,146,147
 237 225 237 225 278 216 c 1,148,149
 277 214 277 214 283 216 c 1,150,-1
 283 362 l 1,151,152
 279 366 279 366 276 365 c 0,153,154
 244 379 244 379 227 405 c 0,155,156
 210 439 210 439 210 450 c 0,157,158
 210 455 210 455 214 459 c 1,159,-1
 214 462 l 1,160,161
 218 490 218 490 237 514 c 0,162,163
 263 545 263 545 310 554 c 0,164,165
 317 559 317 559 324 554 c 1,166,167
 363 554 363 554 394 529 c 0,168,169
 429 496 429 496 429 454 c 1,170,171
 429 455 429 455 429 450 c 128,-1,172
 429 445 429 445 428 440 c 0,173,174
 422 393 422 393 371 366 c 2,175,-1
 362 362 l 1,176,-1
 357 362 l 1,177,-1
 357 288 l 1,178,-1
 357 216 l 1,179,-1
 365 216 l 1,180,-1
 395 225 l 1,181,-1
 396 225 l 2,182,183
 399 225 399 225 404 226 c 0,184,185
 427 230 427 230 446 240 c 2,186,-1
 469 255 l 1,187,188
 469 253 469 253 488 269 c 1,189,-1
 510 282 l 2,190,191
 510 285 510 285 524 301 c 2,192,-1
 541 320 l 1,193,-1
 555 341 l 1,194,-1
 566 362 l 2,195,196
 566 364 566 364 573 385 c 2,197,-1
 582 406 l 1,198,-1
 585 430 l 1,199,-1
 587 454 l 1,200,201
 586 454 586 454 585 478 c 2,202,-1
 582 501 l 1,203,-1
 573 522 l 1,204,-1
 566 548 l 1,205,-1
 555 567 l 1,206,-1
 543 587 l 1,207,208
 543 586 543 586 524 606 c 1,209,-1
 510 625 l 1,210,-1
 488 638 l 1,211,212
 489 638 489 638 469 655 c 1,213,-1
 446 667 l 1,214,-1
 425 678 l 2,215,216
 424 678 424 678 398 682 c 1,217,218
 398 679 398 679 373 690 c 1,219,-1
 343 693 l 1,220,-1
 319 695 l 2,112,113
363 470 m 0,221,222
 351 495 351 495 324 495 c 2,223,-1
 322 495 l 2,224,225
 293 494 293 494 281 470 c 0,226,227
 276 461 276 461 276 453 c 0,228,229
 276 443 276 443 283 433 c 0,230,231
 290 418 290 418 305 415 c 0,232,233
 309 414 309 414 314 415 c 0,234,235
 353 415 353 415 363 440 c 0,236,237
 367 447 367 447 366 454 c 0,238,239
 367 462 367 462 363 470 c 0,221,222
EndSplineSet
Ligature2: "'liga' Standard Ligatures in Latin lookup 0 subtable" a v
LCarets2: 1 315
EndChar

StartChar: f_l
Encoding: 65570 -1 89
Width: 482
VWidth: 1150
GlyphClass: 3
LigCaretCntFixed: 1
Flags: W
LayerCount: 2
Fore
SplineSet
65 45 m 1,0,1
 61 52 61 52 61 61 c 0,2,3
 61 71 61 71 66 85 c 0,4,5
 91 154 91 154 170 157 c 2,6,-1
 183 157 l 1,7,8
 220 152 220 152 246 129 c 0,9,10
 258 119 258 119 269 116 c 0,11,12
 274 115 274 115 279 115 c 0,13,14
 291 115 291 115 303 121 c 0,15,16
 315 127 315 127 317 134 c 0,17,18
 322 146 322 146 322 212 c 2,19,-1
 322 439 l 2,20,21
 322 661 322 661 335 697 c 0,22,23
 346 726 346 726 405 746 c 1,24,-1
 404 752 l 1,25,-1
 446 752 l 1,26,-1
 467 752 l 1,27,-1
 501 752 l 1,28,-1
 501 720 l 1,29,-1
 501 690 l 1,30,-1
 444 690 l 1,31,-1
 423 690 l 1,32,33
 397 685 397 685 392 659 c 1,34,-1
 388 412 l 1,35,-1
 388 280 l 2,36,37
 388 148 388 148 379 116 c 0,38,39
 368 78 368 78 314 64 c 0,40,41
 299 59 299 59 290 59 c 2,42,-1
 277 59 l 2,43,44
 236 61 236 61 200 89 c 0,45,46
 189 97 189 97 185 98 c 0,47,48
 183 98 183 98 180 98 c 0,49,50
 151 98 151 98 138 85 c 0,51,52
 128 75 128 75 128 60 c 0,53,54
 128 44 128 44 147 24 c 0,55,56
 172 -2 172 -2 171 -33 c 0,57,58
 171 -60 171 -60 157 -84 c 0,59,60
 124 -139 124 -139 38 -139 c 2,61,-1
 28 -139 l 1,62,-1
 -5 -139 l 1,63,-1
 -5 -113 l 1,64,-1
 -5 -81 l 1,65,-1
 34 -81 l 1,66,-1
 69 -81 l 1,67,68
 69 -80 69 -80 88 -72 c 1,69,70
 107 -58 107 -58 107 -42 c 0,71,72
 107 -25 107 -25 87 -2 c 0,73,74
 65 24 65 24 65 45 c 1,0,1
EndSplineSet
Ligature2: "'liga' Standard Ligatures in Latin lookup 0 subtable" f l
LCarets2: 1 262
EndChar

StartChar: g_h
Encoding: 65571 -1 90
Width: 515
VWidth: 1116
GlyphClass: 3
LigCaretCntFixed: 1
Flags: W
LayerCount: 2
Fore
SplineSet
287 462 m 0,0,1
 232 469 232 469 230 470 c 2,2,-1
 215 471 l 1,3,-1
 200 470 l 1,4,5
 172 464 172 464 147 457 c 1,6,7
 91 431 91 431 75 381 c 0,8,9
 66 356 66 356 63 317 c 2,10,-1
 63 285 l 2,11,12
 63 236 63 236 66 228 c 0,13,14
 68 223 68 223 75 216 c 0,15,16
 90 201 90 201 109 203 c 0,17,18
 110 203 110 203 111 203 c 0,19,20
 148 203 148 203 152 252 c 0,21,22
 158 318 158 318 230 339 c 0,23,24
 244 343 244 343 252 343 c 0,25,26
 257 343 257 343 260 341 c 0,27,28
 263 342 263 342 267 342 c 0,29,30
 276 342 276 342 287 340 c 0,31,32
 295 338 295 338 299 337 c 2,33,-1
 460 518 l 1,34,-1
 445 507 l 2,35,36
 445 506 445 506 428 491 c 1,37,-1
 408 484 l 1,38,-1
 393 476 l 2,39,40
 393 475 393 475 370 470 c 2,41,-1
 351 465 l 1,42,-1
 328 462 l 1,43,-1
 308 460 l 1,44,45
 308 462 308 462 287 462 c 0,0,1
299 337 m 1,46,47
 360 316 360 316 370 248 c 1,48,-1
 374 231 l 2,49,50
 379 205 379 205 415 203 c 2,51,-1
 417 203 l 2,52,53
 443 203 443 203 454 224 c 0,54,55
 459 234 459 234 458 246 c 0,56,57
 458 251 458 251 458 255 c 2,58,-1
 458 286 l 1,59,60
 457 286 457 286 460 333 c 1,61,-1
 492 333 l 1,62,-1
 523 333 l 1,63,-1
 523 290 l 1,64,-1
 523 275 l 2,65,66
 523 236 523 236 516 215 c 0,67,68
 508 183 508 183 478 163 c 0,69,70
 449 143 449 143 415 143 c 1,71,-1
 405 145 l 2,72,73
 371 148 371 148 345 167 c 0,74,75
 307 195 307 195 307 239 c 1,76,77
 303 273 303 273 277 280 c 0,78,79
 271 285 271 285 260 285 c 0,80,81
 240 285 240 285 226 267 c 0,82,83
 219 253 219 253 215 238 c 0,84,85
 213 182 213 182 150 150 c 0,86,87
 135 143 135 143 130 143 c 2,88,-1
 119 143 l 2,89,90
 108 143 108 143 99 144 c 0,91,92
 65 149 65 149 38 168 c 0,93,94
 16 184 16 184 8 203 c 0,95,96
 -2 227 -2 227 -2 288 c 2,97,-1
 -2 334 l 1,98,-1
 0 354 l 1,99,-1
 4 373 l 1,100,-1
 8 390 l 1,101,-1
 15 410 l 1,102,-1
 26 427 l 1,103,-1
 37 443 l 1,104,105
 37 442 37 442 47 457 c 1,106,-1
 61 471 l 1,107,108
 60 471 60 471 75 483 c 0,109,110
 102 504 102 504 106 503 c 0,111,112
 109 503 109 503 119 508 c 0,113,114
 141 520 141 520 153 520 c 1,115,116
 153 521 153 521 174 528 c 1,117,-1
 195 528 l 1,118,-1
 215 531 l 2,119,120
 215 532 215 532 229 529 c 0,121,122
 253 526 253 526 265 522 c 0,123,124
 271 519 271 519 283 519 c 0,125,126
 288 519 288 519 288 520 c 0,127,128
 292 521 292 521 308 518 c 0,129,130
 309 515 309 515 321 520 c 0,131,132
 358 525 358 525 374 531 c 0,133,134
 413 552 413 552 417 565 c 1,135,136
 457 612 457 612 460 669 c 2,137,-1
 460 685 l 2,138,139
 460 687 460 687 468 686 c 2,140,-1
 500 686 l 1,141,-1
 523 686 l 1,142,-1
 523 673 l 2,143,144
 522 658 522 658 521 638 c 2,145,-1
 521 618 l 1,146,-1
 514 601 l 1,147,-1
 508 584 l 1,148,-1
 498 565 l 1,149,-1
 487 548 l 1,150,-1
 299 337 l 1,46,47
EndSplineSet
Ligature2: "'liga' Standard Ligatures in Latin lookup 0 subtable" g h
LCarets2: 1 279
EndChar

StartChar: n_g_h
Encoding: 65572 -1 91
Width: 545
VWidth: 1167
GlyphClass: 3
LigCaretCntFixed: 1
Flags: W
LayerCount: 2
Fore
SplineSet
551 -141 m 1,0,1
 551 -140 551 -140 543 -140 c 0,2,3
 497 -138 497 -138 446 -122 c 1,4,-1
 430 -120 l 1,5,-1
 400 -106 l 1,6,-1
 370 -91 l 1,7,-1
 347 -71 l 1,8,9
 307 -41 307 -41 267 -2 c 0,10,11
 241 24 241 24 190 71 c 0,12,13
 109 146 109 146 65 190 c 1,14,15
 20 231 20 231 11 241 c 0,16,17
 -7 261 -7 261 -7 293 c 0,18,19
 -7 297 -7 297 -7 301 c 0,20,21
 -6 308 -6 308 -6 315 c 0,22,23
 -1 363 -1 363 49 388 c 0,24,25
 73 400 73 400 95 400 c 2,26,-1
 111 399 l 2,27,28
 142 397 142 397 181 373 c 1,29,30
 196 358 196 358 202 359 c 2,31,-1
 215 359 l 2,32,33
 229 359 229 359 242 371 c 128,-1,34
 255 383 255 383 255 400 c 0,35,36
 255 406 255 406 254 410 c 0,37,38
 251 419 251 419 238 433 c 0,39,40
 209 462 209 462 210 495 c 2,41,-1
 210 506 l 1,42,43
 215 559 215 559 261 582 c 0,44,45
 293 598 293 598 343 598 c 2,46,-1
 381 598 l 1,47,-1
 381 567 l 1,48,-1
 381 541 l 1,49,-1
 347 541 l 2,50,51
 287 541 287 541 276 507 c 0,52,53
 273 497 273 497 275 492 c 0,54,55
 278 480 278 480 292 465 c 0,56,57
 318 439 318 439 318 408 c 0,58,59
 318 404 318 404 318 400 c 0,60,61
 317 343 317 343 261 314 c 0,62,63
 236 301 236 301 215 301 c 2,64,-1
 210 301 l 2,65,66
 175 301 175 301 138 325 c 0,67,68
 114 340 114 340 96 340 c 0,69,70
 95 340 95 340 95 340 c 2,71,72
 70 340 70 340 59 317 c 0,73,74
 54 307 54 307 55 299 c 0,75,76
 56 288 56 288 61 283 c 0,77,78
 66 275 66 275 122 222 c 0,79,80
 142 203 142 203 159 187 c 0,81,82
 232 117 232 117 258 95 c 0,83,84
 275 80 275 80 286 67 c 0,85,86
 284 65 284 65 295 59 c 0,87,88
 365 -11 365 -11 386 -25 c 2,89,-1
 410 -43 l 1,90,-1
 432 -52 l 2,91,92
 433 -52 433 -52 455 -65 c 1,93,-1
 477 -69 l 2,94,95
 478 -70 478 -70 505 -78 c 1,96,-1
 528 -78 l 1,97,98
 528 -77 528 -77 555 -80 c 1,99,100
 557 -95 557 -95 556.5 -104 c 128,-1,101
 556 -113 556 -113 555 -141 c 1,102,-1
 551 -141 l 1,0,1
EndSplineSet
Ligature2: "'liga' Standard Ligatures in Latin lookup 0 subtable" n g h
LCarets2: 2 194 379
EndChar

